<svg width="325" height="462" viewBox="0 0 325 462" fill="none" xmlns="http://www.w3.org/2000/svg">
<path d="M215.85 330.796C215.213 333.362 214.502 335.911 213.955 338.495C212.659 344.609 211.406 350.732 210.21 356.866C209.763 359.161 209.494 361.492 209.208 363.815C209.149 364.3 209.253 364.884 209.484 365.313C210.839 367.831 212.176 370.365 213.669 372.802C215.488 375.774 216.475 379.027 217.4 382.343C218.418 385.995 219.611 389.6 220.765 393.214C222.091 397.363 223.416 401.513 224.82 405.635C225.943 408.929 227.184 412.183 228.373 415.454C228.409 415.552 228.447 415.652 228.502 415.739C229.408 417.151 229.336 418.331 228.287 419.278C229.355 422.998 230.226 426.641 231.464 430.155C232.47 433.01 230.757 435.27 228.198 436.417C227.728 436.628 227.223 436.77 226.726 436.915C224.671 437.511 223.469 438.662 222.572 440.816C221.756 442.776 219.947 444.65 218.096 445.771C215.657 447.247 212.791 448.077 210.036 448.957C205.357 450.451 200.527 451.407 195.807 449.45C193.889 448.655 192.142 447.088 190.773 445.484C190.112 444.71 190.247 442.991 190.465 441.779C191.371 436.724 193.87 432.8 198.81 430.737C201.061 429.797 203.272 428.759 205.252 427.877C205.537 425.788 205.801 423.906 206.042 422.02C206.073 421.779 206.074 421.45 205.939 421.283C203.227 417.933 202.249 413.848 200.907 409.882C199.062 404.432 197.052 399.053 194.41 393.889C191.832 388.849 189.837 383.508 187.635 378.279C186.553 375.71 185.511 373.119 184.581 370.493C183.4 367.157 183.845 363.702 184.12 360.287C184.492 355.665 184.926 351.047 185.394 346.434C186.217 338.308 187.357 330.229 189.195 322.261C189.553 320.707 189.891 319.148 190.281 317.398C187.921 317.616 185.542 317.858 183.159 318.046C181.97 318.141 180.764 318.248 179.581 318.151C178.249 318.042 177.613 318.208 177.37 319.827C176.926 322.796 175.95 325.681 175.371 328.635C174.127 334.974 171.207 340.726 169.173 346.787C167.938 350.468 166.708 354.151 165.463 357.829C165.167 358.705 164.929 359.625 164.48 360.42C163.313 362.484 163.763 364.369 164.616 366.434C166.125 370.087 166.994 373.912 167.571 377.858C168.177 382.001 169.337 386.073 170.414 390.133C171.955 395.946 173.595 401.735 175.287 407.506C176.046 410.098 177.021 412.627 177.921 415.177C178.441 416.65 178.195 417.799 176.774 418.662C176.498 418.829 176.281 419.574 176.421 419.872C178.146 423.552 178.732 427.508 179.29 431.466C179.733 434.613 177.261 435.989 173.822 436.901C172.075 437.365 170.313 437.776 168.573 438.264C168.259 438.352 167.993 438.675 167.747 438.931C165.812 440.938 164.165 443.371 161.901 444.883C157 448.157 151.442 449.396 145.649 447.75C143.258 447.071 140.991 445.744 138.871 444.393C137.557 443.556 137.838 441.788 138.244 440.536C139.121 437.837 140.048 435.092 141.44 432.641C142.916 430.04 145.581 428.635 148.442 427.87C149.985 427.457 151.615 427.31 153.217 427.192C155.377 427.034 158.262 423.319 157.662 421.219C157.491 420.621 156.82 420.185 156.518 419.603C153.667 414.094 151.48 408.344 149.821 402.353C148.786 398.616 147.071 395.071 145.92 391.36C144.6 387.105 143.423 382.794 142.445 378.448C141.291 373.319 140.197 368.157 139.507 362.952C139.133 360.134 139.297 357.127 139.841 354.327C141.393 346.329 143.046 338.336 145.081 330.451C146.574 324.668 148.724 319.055 150.609 313.377C150.827 312.721 150.863 312.293 150.455 311.604C149.989 310.819 149.745 309.666 149.924 308.777C150.687 304.973 149.86 302.073 146.957 299.125C143.801 295.921 143.591 291.297 143.822 286.88C144.15 280.606 144.472 274.332 144.86 268.063C145.422 258.976 146.131 249.898 146.604 240.807C146.925 234.617 147.083 228.411 147.068 222.212C147.056 217.148 146.861 212.067 146.402 207.026C146.091 203.607 144.87 200.562 141.558 198.576C138.684 196.851 136.083 194.65 133.454 192.543C129.854 189.659 126.312 186.7 122.799 183.71C118.093 179.704 114.18 174.975 110.487 170.046C107.047 165.457 104.553 160.387 102.221 155.16C99.5941 149.273 97.7507 143.143 96.0702 136.986C94.6787 131.888 94.0819 126.571 93.1822 121.342C93.0918 120.817 93.1925 120.148 93.4569 119.691C95.4083 116.325 94.7459 112.649 94.5023 109.127C94.3571 107.028 94.3877 105.348 96.0873 103.976C96.2825 103.818 96.4006 103.565 96.476 103.463C94.6556 101.795 92.8009 100.234 91.1141 98.5086C89.7133 97.0759 88.5939 95.4454 86.8117 94.312C84.7875 93.0247 84.5321 90.2453 86.5516 88.6218C85.624 86.5117 86.2029 84.9552 87.7073 84.8328C88.2016 83.455 88.6526 82.1978 89.2209 80.6136C88.168 79.7418 86.6441 78.7176 85.4282 77.4075C84.1675 76.0493 83.1094 74.4701 82.1688 72.8667C81.8731 72.3626 81.9834 71.0992 82.3641 70.8307C83.0871 70.3208 84.2179 69.9328 85.037 70.1194C86.3757 70.4244 87.7375 71.0433 88.8479 71.8591C92.3983 74.4675 96.1177 76.9269 98.3987 80.8443C101.969 79.5328 104.535 80.2776 107.01 83.0199C110.402 86.7782 111.149 92.5531 110.348 97.7648C110.42 97.8336 110.504 97.9695 110.564 97.9593C113.01 97.5447 114.55 98.7023 115.473 100.84C116.499 103.216 117.462 105.619 118.472 108.003C118.583 108.265 118.774 108.615 119.003 108.687C121.05 109.331 121.458 111.123 121.843 112.836C122.753 116.886 123.539 120.964 124.405 125.025C125.543 130.357 126.535 135.728 127.908 140.999C129.434 146.856 133.449 151.035 138.048 154.703C140.808 156.904 143.487 159.217 146.35 161.274C148.807 163.039 151.475 164.51 154.05 166.112L154.348 165.775C153.769 164.357 153.28 162.893 152.595 161.528C150.032 156.412 148.618 150.918 146.984 145.475C145.627 140.952 144.982 136.495 145.634 131.801C145.773 130.8 144.988 129.691 144.735 128.608C144.585 127.968 144.567 127.274 144.619 126.615C144.905 122.967 145.232 119.322 145.536 115.675C145.549 115.53 145.468 115.377 145.341 114.876C143.581 116.151 141.921 117.333 140.283 118.545C138.702 119.715 137.136 120.907 135.577 122.107C134.682 122.795 133.712 122.53 133.233 121.819C132.829 121.22 132.638 120.025 132.97 119.454C135.109 115.778 137.073 111.912 139.779 108.682C141.99 106.041 142.71 103.69 142.264 100.27C141.372 93.4298 143.869 87.5913 149.082 83.0348C152.986 79.6227 156.93 76.2528 160.955 72.9857C165.098 69.6235 170.011 68.629 175.188 69.1166C180.214 69.5902 185.259 70.1243 190.203 71.0977C192.905 71.6294 195.46 73.0331 197.999 74.2184C199.969 75.1381 201.985 76.1135 203.665 77.4583C205.418 78.8614 207.04 80.5718 208.287 82.437C211.615 87.416 213.01 93.1485 214.292 98.9202C214.625 100.418 215.348 101.988 216.331 103.155C220.406 107.997 222.01 113.608 222.534 119.811C222.928 124.461 223.918 129.077 224.877 133.66C225.677 137.484 225.805 141.279 225.404 145.139C225.239 146.733 225.368 148.357 225.239 149.957C224.721 156.405 222.141 162.005 217.979 166.874C216.944 168.085 217.001 168.789 218.013 170.014C221.15 173.813 224.134 177.737 225.607 182.574C225.905 183.553 226.557 184.425 227.048 185.344C229.054 189.095 231.1 192.824 233.057 196.601C235.034 200.418 237.116 204.199 238.792 208.148C240.285 211.669 241.383 215.37 242.48 219.043C243.911 223.833 245.329 228.638 246.456 233.506C247.501 238.022 248.196 242.621 248.968 247.196C249.495 250.322 250.284 253.475 250.247 256.607C250.194 261.01 249.609 265.421 249.021 269.798C248.369 274.65 247.716 279.528 246.589 284.283C245.335 289.579 243.569 294.754 241.967 299.964C241.76 300.635 241.342 301.501 240.783 301.76C237.882 303.105 238.213 305.979 237.479 308.343C237.063 309.683 236.867 311.113 236.294 312.376C235.937 313.164 235.176 313.989 234.396 314.314C233.169 314.825 232.825 315.377 232.778 316.776C232.652 320.573 232.098 324.354 231.84 328.149C231.625 331.309 230.624 334.172 228.894 336.774C228.498 337.369 227.719 337.711 227.111 338.162C226.828 338.372 226.4 338.5 226.263 338.776C225.082 341.162 222.602 341.277 220.546 342.145C219.916 342.41 219.293 342.749 218.761 343.172C217.832 343.909 216.965 344.595 215.706 343.85C214.564 343.175 214.512 342.275 214.726 341.053C215.316 337.675 215.737 334.268 216.225 330.872L215.85 330.796H215.85ZM155.199 173.34L154.717 173.093C153.371 175.129 151.654 177.019 150.778 179.241C149.838 181.627 149.311 184.317 149.265 186.885C149.13 194.372 149.125 201.874 149.454 209.353C149.716 215.322 150.646 221.242 150.212 227.266C149.619 235.498 149.344 243.752 148.885 251.993C148.588 257.308 148.174 262.617 147.869 267.931C147.445 275.318 146.918 282.704 146.753 290.097C146.684 293.168 147.599 296.342 149.976 298.471C155.14 303.097 161.495 305.301 168.258 305.976C173.429 306.491 178.683 306.608 183.874 306.357C188.642 306.127 193.38 305.206 198.121 304.519C204.828 303.548 210.883 300.83 216.691 297.466C218.049 296.68 219.078 295.88 217.69 294.25C217.514 294.043 217.491 293.646 217.507 293.343C217.687 289.971 217.623 286.56 218.142 283.239C219.12 276.971 220.642 270.785 221.535 264.507C222.051 260.877 221.983 257.126 221.81 253.447C221.616 249.3 220.065 245.477 218.269 241.749C216.824 238.75 215.62 235.636 214.246 232.603C213.503 230.963 212.513 229.43 211.835 227.767C210.806 225.241 209.44 223.071 206.991 221.678C206.187 221.221 205.479 220.553 204.835 219.879C204.58 219.611 204.424 218.953 204.58 218.675C204.731 218.409 205.361 218.268 205.753 218.313C206.557 218.407 207.342 218.663 208.371 218.909C207.262 212.347 209.047 206.552 212.24 201.163C215.51 195.644 220.978 192.775 226.52 189.69C222.802 183.503 219.829 176.64 214.91 170.575C214.218 171.981 213.529 173.096 213.097 174.304C211.112 179.849 210.41 185.666 209.935 191.473C209.549 196.19 209.129 200.786 206.491 204.907C205.517 206.428 204.273 207.147 202.616 206.471C200.833 205.744 199.59 204.32 199.252 202.463C198.806 200.014 198.695 197.503 198.441 195.02C198.364 194.269 198.289 193.518 198.213 192.768C197.422 194.226 197.115 195.694 196.608 197.089C196.028 198.684 195.072 198.973 193.51 198.328C191.934 197.677 191.04 196.378 190.452 194.931C187.908 188.663 187.849 182.168 188.902 175.599C189.227 173.569 189.594 171.545 190.022 169.051C187.823 171.597 186.008 173.923 183.958 176.019C180.825 179.225 178.517 182.942 176.64 186.96C176.163 187.98 175.668 189.368 174.505 189.056C173.658 188.829 173.107 187.468 172.454 186.589C172.346 186.444 172.425 186.174 172.364 185.978C171.876 184.4 171.375 182.826 170.877 181.251C170.513 181.581 170.421 181.868 170.407 182.158C170.241 185.531 170.111 188.906 169.921 192.277C169.72 195.846 168.934 196.613 165.492 196.751C165.199 198.182 164.93 199.617 164.609 201.041C164.012 203.699 161.943 204.525 159.917 202.75C158.897 201.857 158.037 200.614 157.502 199.36C155.137 193.81 154.44 187.952 154.694 181.965C154.817 179.088 155.028 176.215 155.199 173.34V173.34ZM247.613 257.24L247.483 257.215C247.379 256.128 247.343 255.029 247.16 253.956C246.262 248.684 245.475 243.387 244.356 238.161C243.367 233.542 242.011 229 240.783 224.433C239.81 220.817 238.893 217.18 237.747 213.618C236.972 211.209 235.903 208.887 234.855 206.576C233.701 204.029 232.457 201.52 231.182 199.031C230.497 197.694 229.623 196.456 228.913 195.131C228.383 194.143 227.717 193.66 226.543 193.859C221.675 194.682 217.696 197.221 215.135 201.231C213.164 204.319 211.897 207.985 210.963 211.563C210.262 214.247 209.763 217.096 211.601 219.967C213.845 223.473 215.502 227.366 217.286 231.152C218.882 234.542 220.179 238.075 221.837 241.432C224.008 245.828 225.224 250.523 225.063 255.301C224.865 261.207 224.005 267.11 223.12 272.967C222.36 278 221.128 282.96 220.174 287.965C219.679 290.561 219.902 293.01 221.893 295.076C222.929 296.152 223.698 297.481 224.7 298.595C225.287 299.248 226.021 299.998 226.815 300.193C228.879 300.699 231.001 301.056 233.12 301.231C237.213 301.569 239.299 299.999 240.444 296.006C240.817 294.705 241.242 293.42 241.651 292.13C242.321 290.018 243.22 287.95 243.624 285.789C244.492 281.134 245.163 276.44 245.811 271.747C246.476 266.921 247.018 262.077 247.613 257.24V257.24ZM145.611 197.977C145.799 197.064 146.009 196.362 146.08 195.645C146.424 192.179 146.517 188.673 147.096 185.248C148.063 179.53 149.991 174.19 154.88 170.065C154.02 169.34 153.352 168.629 152.551 168.133C150.957 167.144 149.144 166.46 147.681 165.317C142.725 161.447 137.571 157.836 132.982 153.484C129.166 149.865 126.174 145.755 125.037 140.655C123.472 133.63 122.315 126.513 121.046 119.425C120.4 115.813 119.633 112.368 116.024 110.368C114.349 109.44 112.656 108.768 110.807 109.284C105.556 110.751 100.505 112.692 97.1081 117.281C96.2998 118.374 95.5226 119.973 95.6842 121.214C96.3345 126.213 97.0271 131.251 98.3297 136.107C99.8871 141.912 101.602 147.69 103.925 153.287C105.891 158.024 107.879 162.69 110.918 166.852C117.773 176.236 126.107 184.072 135.642 190.681C138.885 192.929 142.017 195.339 145.611 197.977V197.977ZM167.302 140.766L167.663 140.353C167.064 139.727 166.389 139.156 165.891 138.459C165.548 137.978 165.452 137.322 165.245 136.744C165.803 136.583 166.381 136.235 166.915 136.293C168.823 136.498 170.294 138.59 170.18 140.766C170.066 142.951 169.433 143.57 166.807 143.577C165.445 143.58 164.478 143.902 163.582 145.006C162.502 146.338 160.596 146.512 159.58 145.32C158.674 144.259 157.712 144.26 156.549 144.297C155.103 144.343 154.024 143.314 154.351 142.108C154.724 140.731 155.085 139.203 155.941 138.133C158.349 135.121 157.956 131.975 156.984 128.348C155.583 130.753 153.392 130.665 151.342 130.894C150.674 130.968 149.989 130.875 149.313 130.897C148.376 130.927 147.676 131.32 147.684 132.354C147.703 135.044 147.474 137.785 147.906 140.412C148.452 143.729 149.593 146.944 150.404 150.221C150.852 152.033 150.946 153.906 153.494 154.234C154.421 154.353 154.876 154.308 155.191 153.534C155.364 153.11 155.371 152.619 155.464 152.161C155.913 149.939 157.221 148.552 158.776 148.625C162.783 148.813 166.756 148.695 170.644 147.512C172.2 147.039 173.716 147.291 174.67 148.728C175.921 150.613 177.106 152.556 178.149 154.562C178.942 156.089 179.561 156.714 181.161 156.024C182.51 155.442 183.807 154.404 184.742 153.254C187.378 150.01 192.022 148.764 195.464 150.655C195.608 150.381 195.777 150.117 195.891 149.832C196.983 147.083 198.07 144.331 199.149 141.577C199.671 140.247 200.503 139.701 201.969 140.195C203.059 140.562 204.157 140.482 204.83 139.334C205.696 137.857 206.902 136.447 207.282 134.847C208.021 131.736 208.429 128.524 208.656 125.331C208.721 124.408 207.932 123.039 207.123 122.53C205.906 121.765 204.245 121.548 203.106 122.893C202.257 123.893 201.719 125.151 200.934 126.214C200.479 126.831 199.862 127.615 199.219 127.72C198.673 127.81 197.718 127.18 197.411 126.614C196.527 124.985 195.701 123.28 195.175 121.508C194.055 117.732 192.934 113.995 189.67 111.427C188.931 110.846 187.748 109.861 187.265 110.094C185.257 111.059 183.438 112.418 181.726 113.52C182.858 114.204 184.044 114.742 184.996 115.555C185.694 116.15 185.547 116.977 184.425 116.999C183.422 117.018 182.411 116.706 181.408 116.733C177.832 116.829 174.204 116.579 170.828 118.221C170.233 118.51 169.483 118.481 168.787 118.602C168.149 115.314 170.975 115.42 172.482 114.37C170.658 113.901 168.916 113.282 167.123 113.028C164.1 112.601 161.044 112.164 158.005 112.187C155.366 112.207 152.729 112.84 150.096 113.237C147.194 113.675 147.038 113.919 147.52 116.811C149.682 116.811 151.891 116.503 153.956 116.916C155.428 117.21 157.267 117.442 157.743 119.781C158.927 125.606 160.242 131.383 159.936 137.393C159.829 139.478 159.604 139.709 157.602 138.746C157.246 139.734 156.898 140.699 156.38 142.137C158.69 140.959 160.242 141.453 161.368 143.145C163.017 141.73 164.995 140.937 167.302 140.766V140.766ZM144.487 103.108C145.594 102.194 146.274 101.558 147.026 101.023C151.159 98.0859 155.745 96.064 160.732 95.366C164.409 94.8512 168.235 94.6044 171.907 95.0191C178.185 95.7283 184.174 97.7763 190.031 100.184C192.031 101.006 194.177 101.648 196.315 101.923C200.787 102.499 205.106 101.175 209.447 100.347C210.849 100.079 211.499 98.7342 211.112 97.3759C210.826 96.3742 210.493 95.386 210.208 94.3842C209.438 91.6871 209.033 88.8206 207.853 86.319C204.979 80.225 199.572 76.9619 193.469 74.8828C186.943 72.6598 180.177 71.5263 173.27 71.3045C170.325 71.2099 167.539 71.4673 164.972 73.2297C158.809 77.4621 153.117 82.2298 148.006 87.682C146.464 89.3264 145.209 91.1694 145.069 93.5471C144.89 96.5952 144.699 99.6426 144.487 103.108V103.108ZM193.006 443.982C195.151 445.338 197.127 446.837 199.774 447.001C202.582 447.175 205.39 447.446 208.071 446.359C210.907 445.209 213.776 444.097 216.475 442.673C217.735 442.008 218.667 440.681 219.675 439.588C220.779 438.39 221.658 436.945 222.893 435.92C224.188 434.846 225.826 434.198 227.237 433.249C227.75 432.904 228.457 432.144 228.369 431.719C227.597 427.977 226.665 424.268 225.759 420.461C220.097 422.805 214.453 423.658 208.413 422.605C208.878 424.006 207.511 425.648 209.371 426.721C209.494 426.792 209.321 427.864 209.001 428.143C206.309 430.486 203.137 431.953 199.832 433.254C198.415 433.811 197.138 434.927 196.031 436.025C193.895 438.143 193.675 441.096 193.006 443.982V443.982ZM191.579 103.46C189.778 102.754 188.071 102.265 186.538 101.45C181.951 99.0133 176.94 97.977 171.92 97.2466C165.507 96.3135 159.194 97.3978 153.256 99.9226C150.474 101.106 147.458 102.533 145.509 104.711C141.885 108.761 138.958 113.436 135.761 117.867C135.456 118.289 135.299 118.817 135.074 119.296C135.698 119.16 136.086 118.905 136.455 118.624C136.66 118.468 136.829 118.266 137.018 118.09C141.243 114.149 146 111.194 151.777 110.136C155.728 109.413 159.681 109.058 163.686 109.8C167.104 110.433 170.53 111.115 173.984 111.446C177.206 111.755 180.413 111.458 183.2 109.407C185.865 107.447 188.594 105.573 191.579 103.46V103.46ZM158.251 427.388C158.815 428.086 159.895 428.87 159.781 429.395C159.53 430.557 158.317 430.469 157.294 430.254C156.784 430.147 156.256 430.083 155.773 429.901C153.601 429.082 151.448 429.35 149.341 430.065C147.292 430.762 145.167 431.708 144.205 433.664C142.955 436.204 142.235 439.005 141.304 441.7C140.977 442.645 141.26 443.33 142.286 443.567C144.754 444.136 147.202 444.93 149.703 445.19C154.497 445.686 158.657 443.881 162.297 440.877C164.091 439.396 165.532 437.395 167.49 436.23C169.629 434.957 172.164 434.33 174.56 433.518C175.753 433.114 176.696 432.72 176.381 431.165C176.198 430.263 176.262 429.313 176.106 428.403C175.63 425.624 175.1 422.854 174.544 419.824C169.709 422.29 164.873 421.36 160.403 421.52C159.626 423.641 158.872 425.696 158.251 427.388V427.388ZM152.928 156.771C154.209 161.329 156.893 166.205 160.058 169.557C160.574 170.104 161.376 170.587 162.104 170.693C168.378 171.608 174.373 170.744 180.241 168.202C183.846 166.64 187.195 165.011 189.36 161.552C191.054 158.846 193.317 156.466 194.112 152.789C193.134 152.633 192.007 152.085 191.255 152.408C189.541 153.145 187.958 154.237 186.421 155.325C185.337 156.092 184.526 157.275 183.4 157.95C180.357 159.773 177.244 158.566 175.838 155.335C175.097 153.631 174.15 151.993 173.101 150.458C172.776 149.983 171.696 149.594 171.156 149.768C167.624 150.906 164.011 151.109 160.358 150.962C157.872 150.862 157.766 150.905 157.506 153.338C157.226 155.957 155.627 157.194 152.928 156.771V156.771ZM152.801 304.276C152.801 305.59 152.71 307.182 152.847 308.754C152.899 309.359 153.33 310.185 153.831 310.446C155.012 311.062 156.353 311.362 157.603 311.857C163.721 314.28 170.114 315.142 176.642 315.234C185.04 315.354 193.2 313.613 201.34 311.885C205.66 310.968 209.906 309.675 214.138 308.396C215.403 308.014 217.062 307.381 217.564 306.375C218.456 304.585 218.603 302.424 219.152 300.024C218.301 300.362 217.861 300.476 217.483 300.696C213.435 303.052 209.263 305.131 204.722 306.363C197.861 308.225 190.838 309.132 183.771 309.592C181.044 309.77 178.278 309.353 175.53 309.203C172.006 309.01 168.378 309.269 164.984 308.499C160.881 307.569 156.975 305.767 152.801 304.276V304.276ZM221.609 337.638L221.85 337.767C222.157 337.21 222.571 336.686 222.748 336.091C223.225 334.495 223.541 332.849 224.046 331.263C224.259 330.593 224.788 330.024 225.308 329.193C227.31 331.353 225.504 333.319 225.825 335.282C226.973 332.944 227.168 330.154 229.355 328.131C229.653 328.804 229.857 329.263 230.061 329.723L230.49 329.709C230.789 324.891 231.087 320.073 231.396 315.088C226.965 314.744 222.593 315.203 219.234 311.492C217.207 316.387 214.158 320.542 214.022 325.84C215.492 324.043 216.796 322.149 218.128 320.275C218.393 319.901 218.761 319.599 219.082 319.264C219.34 319.738 219.681 320.189 219.831 320.695C219.958 321.128 219.922 321.633 219.859 322.092C219.364 325.707 218.894 329.327 218.317 332.93C217.887 335.623 217.31 338.293 216.798 340.972C217.322 340.802 217.598 340.547 217.709 340.233C218.551 337.842 219.41 335.455 220.164 333.036C220.644 331.495 220.914 329.889 221.368 328.339C221.48 327.955 221.94 327.673 222.24 327.345C222.577 327.706 223.152 328.036 223.203 328.434C223.326 329.394 223.345 330.413 223.152 331.357C222.72 333.467 222.133 335.546 221.61 337.638H221.609ZM93.3834 97.4664C94.8012 98.7877 96.2156 99.9357 97.4047 101.283C98.0375 102 98.385 102.02 99.1964 101.636C101.348 100.615 103.514 99.5643 105.778 98.8612C108.927 97.8835 109.022 98.0149 109.052 94.8006C109.091 90.6908 108.313 86.821 105.364 83.6859C103.94 82.1723 101.093 81.7032 99.6726 82.9215C98.4924 83.9339 97.4309 85.1061 96.4354 86.3059C95.5231 87.4054 95.7298 88.6829 96.0715 90.0332C97.0276 88.9007 97.7579 87.8028 98.7237 86.9825C99.2699 86.5186 100.362 86.1314 100.931 86.3704C102.448 87.0077 103.861 87.9383 105.209 88.9C105.555 89.1468 105.512 89.941 105.647 90.4836C105.089 90.558 104.423 90.8649 103.995 90.6637C102.651 90.0326 101.398 89.2104 99.9365 88.3617C99.3557 89.4254 98.7708 90.3949 98.2834 91.4113C97.377 93.3013 95.8164 94.2099 93.8037 93.9384C94.9498 95.7343 94.907 96.2223 93.3832 97.4664H93.3834ZM116.105 107.253C115.172 105.287 114.354 103.676 113.639 102.02C112.957 100.438 111.959 99.7941 110.142 100.023C105.043 100.664 100.502 102.506 96.6014 105.858C96.3065 106.111 96.112 106.681 96.1433 107.082C96.3155 109.293 96.5724 111.497 96.8112 113.811C98.0449 112.901 99.1144 111.989 100.297 111.261C104.991 108.372 109.667 105.343 116.105 107.253V107.253ZM220.079 308.489C223.111 312.218 227.399 312.341 231.708 312.235C232.408 312.217 233.455 311.697 233.717 311.123C234.662 309.059 235.34 306.873 236.157 304.626C233.847 304.423 231.644 304.29 229.458 304.022C226.335 303.64 223.29 303.026 221.608 299.757C221.071 302.821 220.584 305.602 220.079 308.489V308.489ZM185.778 169.138C181.28 171.037 176.739 172.916 171.752 173.254C171.523 173.27 171.094 173.945 171.168 174.189C171.508 175.312 172.007 176.387 172.425 177.488C173.21 179.553 173.979 181.625 174.707 183.569C178.376 178.786 182.046 174.003 185.778 169.138V169.138ZM97.8089 81.4463C93.4466 77.8128 89.235 74.2508 84.1149 71.9522C84.6715 73.0205 85.2289 74.0931 86.0602 74.8739C87.8689 76.5727 89.9005 78.0367 91.6813 79.7615C93.0178 81.0559 94.1054 82.6073 95.3623 84.1145C96.2828 83.1106 97.0102 82.3174 97.8089 81.4463ZM155.918 118.696C155.226 118.934 154.782 119.168 154.314 119.232C152.832 119.435 151.336 119.533 149.857 119.75C147.762 120.057 147.091 121.002 147.515 122.911C150.757 121.598 154.14 121.624 156.575 123.093L155.918 118.696V118.696ZM146.849 127.8L146.595 128.291C147.116 128.549 147.643 129.037 148.157 129.024C149.964 128.978 151.797 128.905 153.557 128.541C154.316 128.384 155.175 127.607 155.507 126.888C155.728 126.411 155.301 125.263 154.807 124.899C153.59 124.001 152.076 124.087 150.369 124.067C151.364 125.473 151.039 126.496 150.062 127.324C149.124 128.12 148.097 128.769 146.849 127.8V127.8ZM93.423 89.5327C94.0247 86.9725 94.514 84.9 92.0704 83.6925C91.4681 83.3949 90.8171 83.1957 90.1885 82.9514C90.1627 83.7783 90.0349 84.6198 90.1503 85.4265C90.2161 85.887 90.6426 86.3202 90.9691 86.7139C91.6952 87.5895 92.4604 88.4326 93.4229 89.5326L93.423 89.5327ZM87.4387 89.3857C86.6078 92.0498 88.619 94.1552 92.2465 94.5298C90.5426 92.7068 89.0876 91.1499 87.4387 89.3857ZM93.9664 91.5524L94.317 91.2081C94.0096 90.8707 93.7356 90.4937 93.3892 90.2029C91.9286 88.9771 90.4559 87.765 88.9635 86.5783C88.6913 86.3619 88.3064 86.2875 87.9735 86.1476C87.9687 86.5568 87.7883 87.1089 87.9866 87.3527C89.5831 89.315 91.6119 90.6832 93.9664 91.5524V91.5524Z" fill="black"/>
<path d="M193.897 277.34C187.079 275.067 182.025 271.118 178.332 265.405C177.516 264.143 176.781 262.828 175.927 261.593C175.735 261.316 175.17 261.091 174.832 261.151C169.924 262.031 164.981 261.999 160.039 261.685C158.403 261.581 156.79 261.123 154.92 260.782C154.492 265.008 153.733 269.369 153.691 273.736C153.641 278.856 154.267 283.98 154.499 289.107C154.632 292.034 156.471 293.458 158.871 294.361C162.899 295.876 167.043 296.714 171.401 296.541C174.676 296.41 177.975 296.806 181.24 296.599C183.649 296.446 186.01 295.641 188.412 295.251C189.13 295.135 190.411 295.223 190.573 295.594C190.977 296.519 190.669 297.671 189.492 297.968C186.934 298.615 184.358 299.441 181.754 299.596C177.678 299.84 173.571 299.551 169.478 299.558C164.711 299.565 160.245 298.325 155.976 296.337C153.024 294.962 151.518 292.529 151.454 289.258C151.334 283.069 150.992 276.872 151.218 270.695C151.349 267.1 152.332 263.525 153.08 259.971C153.324 258.815 154.444 258.295 155.564 258.655C159.938 260.063 164.391 259.477 168.808 259.209C171.114 259.069 173.394 258.441 175.674 257.974C176.906 257.722 177.684 258.128 178.14 259.287C180.049 264.137 183.419 267.878 187.296 271.21C189.229 272.87 191.377 274.005 194.068 273.987C196.044 273.974 196.272 274.396 196.336 276.481C196.493 281.608 196.688 286.734 196.831 291.861C196.851 292.58 196.864 293.43 196.514 293.991C196.162 294.555 195.352 294.834 194.743 295.239C194.41 294.705 193.801 294.177 193.79 293.637C193.736 291.084 193.868 288.528 193.891 285.973C193.917 283.023 193.897 280.072 193.897 277.34V277.34Z" fill="black"/>
<path d="M178.021 120.268C180.182 120.035 182.02 120.797 183.653 122.064C184.912 123.042 185.354 124.444 185.001 125.987C184.709 127.264 183.773 128.012 182.512 128.3C181.295 128.577 180.073 128.934 178.837 129.012C176.266 129.175 173.684 129.245 171.108 129.221C169.415 129.206 168.711 128.302 168.751 126.569C168.817 123.71 170.489 121.821 174.03 120.85C175.316 120.497 176.688 120.453 178.021 120.268V120.268ZM171.146 126.836C171.496 126.975 171.86 127.259 172.194 127.229C175.243 126.946 178.292 126.655 181.325 126.245C181.861 126.173 182.75 125.505 182.724 125.174C182.675 124.569 182.187 123.832 181.663 123.462C179.666 122.05 177.367 122.484 175.104 122.467C175.739 125.757 175.244 126.25 171.146 126.836Z" fill="black"/>
<path d="M163.313 160.945C161.53 160.931 157.779 158.087 157.318 156.473C157.237 156.187 157.11 155.84 157.2 155.592C157.65 154.361 161.333 152.776 162.611 153.217C162.857 153.302 163.189 153.509 163.344 153.421C165.14 152.394 166.684 153.572 168.352 153.851C169.573 154.056 170.888 153.757 172.155 153.623C173.544 153.477 173.579 154.298 173.149 155.152C172.822 155.802 172.259 156.467 171.629 156.806C169.047 158.192 166.4 159.456 163.776 160.761C163.595 160.851 163.398 160.911 163.313 160.945V160.945ZM159.844 156.726C161.707 156.688 162.566 159.07 164.575 158.196C166.104 157.531 167.591 156.77 169.097 156.052C167.04 155.891 165.208 154.193 163.209 155.516C163.044 155.624 162.653 155.562 162.465 155.434C161.156 154.541 160.478 155.204 159.844 156.726V156.726Z" fill="black"/>
</svg>
