<svg width="325" height="462" viewBox="0 0 325 462" fill="none" xmlns="http://www.w3.org/2000/svg">
<path d="M190.449 317.38C188.001 317.616 185.586 317.872 183.165 318.071C182.028 318.164 180.873 318.253 179.742 318.152C178.407 318.033 177.775 318.213 177.533 319.829C177.088 322.797 176.113 325.682 175.533 328.637C174.289 334.975 171.369 340.727 169.336 346.788C168.101 350.469 166.87 354.152 165.626 357.83C165.33 358.706 165.092 359.625 164.642 360.42C163.476 362.484 163.926 364.37 164.779 366.434C166.288 370.087 167.151 373.913 167.736 377.858C168.357 382.05 169.543 386.168 170.632 390.279C172.145 395.992 173.749 401.682 175.41 407.354C176.183 409.994 177.168 412.572 178.082 415.17C178.6 416.642 178.361 417.792 176.944 418.658C176.666 418.828 176.442 419.569 176.581 419.865C178.308 423.545 178.894 427.5 179.452 431.458C179.896 434.606 177.45 435.978 173.993 436.9C172.247 437.367 170.485 437.774 168.744 438.261C168.43 438.349 168.162 438.669 167.916 438.924C165.98 440.931 164.334 443.365 162.071 444.878C157.171 448.152 151.641 449.31 145.812 447.782C144.291 447.384 142.909 446.449 141.469 445.748C140.821 445.432 140.197 445.066 139.544 444.759C138.112 444.084 138.128 442.862 138.323 441.578C138.932 437.579 140.181 433.783 143.109 430.91C145.756 428.312 149.178 427.266 152.896 427.143C153.825 427.113 155.188 426.985 155.575 426.393C156.571 424.873 157.276 423.109 157.776 421.351C157.922 420.834 156.895 420.054 156.574 419.321C154.851 415.375 152.878 411.504 151.565 407.422C149.72 401.69 148.037 395.928 145.796 390.315C144.289 386.539 143.489 382.458 142.608 378.461C141.477 373.327 140.38 368.168 139.668 362.965C139.296 360.249 139.477 357.363 139.941 354.644C141.068 348.043 142.275 341.438 143.894 334.945C145.149 329.909 147.087 325.045 148.696 320.097C149.483 317.676 150.211 315.235 150.963 312.803C151.024 312.605 151.174 312.298 151.096 312.213C149.016 309.944 150.259 307.328 150.405 304.876C150.494 303.387 150.23 302.461 149.004 301.437C145.94 298.876 144.271 295.303 144.161 291.427C143.995 285.609 144.386 279.772 144.623 273.947C144.784 269.972 145.062 266.001 145.329 262.031C145.809 254.911 146.366 247.796 146.792 240.673C146.946 238.085 146.817 235.479 146.817 232.799C145.723 234.098 144.57 235.47 143.415 236.841C140.462 240.346 137.542 243.879 134.542 247.343C132.736 249.428 130.96 251.582 128.896 253.392C125.268 256.572 121.547 259.673 117.647 262.507C113.535 265.496 109.256 268.284 104.876 270.865C102.357 272.35 99.5518 273.981 96.7687 274.202C94.1689 274.409 92.7323 275.883 90.8029 276.903C89.5138 277.584 88.03 278.048 86.5856 278.23C85.6335 278.35 85.2542 278.711 84.8429 279.441C83.4396 281.931 82.1169 284.487 80.4686 286.809C79.6407 287.975 78.2398 288.791 76.9788 289.574C75.9755 290.196 70.9533 289.156 69.942 288.572C68.8362 287.933 67.5627 287.577 66.3426 287.155C66.1901 287.102 65.8768 287.354 65.7085 287.532C64.3201 288.998 62.889 290.43 61.5929 291.974C60.7495 292.98 59.875 293.686 58.5268 293.264C57.3061 292.882 56.6969 292.01 57.1493 290.743C58.3604 287.352 59.8115 284.084 62.3328 281.411C63.752 279.907 65.1799 278.408 66.5273 276.841C66.9473 276.352 67.2516 275.675 67.3772 275.038C67.967 272.047 69.5404 269.919 72.4439 268.821C73.1701 268.546 73.8315 268.103 74.5296 267.751C75.995 267.012 76.9435 266.316 76.7578 264.177C76.5603 261.902 77.7273 259.647 79.3056 257.812C80.3437 256.605 81.0776 255.316 81.1848 253.642C81.3317 251.348 82.5618 249.721 84.3146 248.152C89.0076 243.951 93.8873 240.031 99.1535 236.578C105.678 232.3 111.726 227.439 117.279 221.936C121.647 217.607 125.22 212.732 128.211 207.381C130.318 203.612 132.515 199.892 134.75 196.197C136.554 193.214 138.577 190.359 140.319 187.341C142.694 183.227 145.889 179.846 149.265 176.579C150.422 175.461 151.363 174.122 152.445 172.922C153.446 171.812 154.411 170.637 155.569 169.714C156.35 169.093 156.353 168.676 155.93 167.91C152.441 161.602 149.578 155.043 147.906 147.996C147.462 146.124 146.766 144.314 146.276 142.452C145.364 138.988 145.248 135.477 145.844 131.944C145.888 131.687 146.013 131.373 145.917 131.175C143.669 126.562 145.691 121.867 145.625 117.216C145.616 116.552 145.624 115.888 145.624 114.782C143.73 116.159 142.072 117.347 140.432 118.561C138.851 119.731 137.284 120.92 135.721 122.116C134.821 122.805 133.881 122.508 133.376 121.806C132.974 121.248 132.747 120.095 133.057 119.568C135.267 115.813 137.388 111.961 140.038 108.526C141.846 106.184 143.067 104.224 142.543 101.018C141.386 93.9428 143.767 87.8868 149.15 83.1345C153.075 79.669 157.07 76.277 161.134 72.9756C165.276 69.6107 170.194 68.6306 175.368 69.1172C180.394 69.5898 185.442 70.1164 190.383 71.104C193.131 71.6534 195.72 73.1085 198.308 74.3128C200.184 75.1863 202.115 76.1036 203.705 77.3917C205.491 78.8384 207.185 80.5481 208.455 82.4531C211.775 87.4322 213.19 93.159 214.457 98.9361C214.785 100.434 215.518 102.002 216.502 103.168C220.583 108.009 222.17 113.627 222.7 119.825C223.098 124.476 224.086 129.091 225.044 133.674C225.843 137.498 225.962 141.293 225.565 145.153C225.38 146.955 225.478 148.785 225.343 150.595C224.938 156.021 222.71 160.781 219.494 165.018C216.9 168.436 216.881 168.178 219.407 171.476C221.982 174.838 224.521 178.273 225.754 182.467C226.128 183.736 226.973 184.875 227.654 186.044C228.986 188.331 230.501 190.525 231.68 192.887C234.32 198.177 236.944 203.483 239.29 208.906C240.683 212.127 241.616 215.558 242.61 218.938C244.036 223.784 245.485 228.633 246.632 233.55C247.661 237.961 248.336 242.458 249.091 246.931C249.628 250.108 250.44 253.311 250.407 256.495C250.36 260.949 249.767 265.413 249.175 269.842C248.527 274.694 247.874 279.572 246.746 284.326C245.49 289.621 243.718 294.795 242.111 300.003C241.905 300.672 241.475 301.534 240.914 301.788C238.048 303.088 238.401 305.932 237.647 308.231C237.194 309.611 237.151 311.208 236.417 312.392C235.677 313.585 234.31 314.389 233.324 315.269C232.753 320.427 232.371 325.728 231.492 330.946C231.115 333.178 229.702 335.235 228.754 337.37C228.692 337.51 228.607 337.687 228.483 337.746C225.707 339.095 223.803 342.022 220.351 342.195C219.846 342.22 219.343 342.808 218.888 343.193C217.975 343.965 217.08 344.6 215.832 343.831C214.702 343.135 214.701 342.219 214.898 341.013C215.561 336.961 216.075 332.884 216.646 328.816C216.517 328.793 216.387 328.77 216.258 328.747C214.746 335.873 213.2 342.991 211.734 350.126C210.894 354.211 210.084 358.307 209.477 362.43C209.304 363.608 209.618 365.035 210.169 366.112C213.186 372.015 216.862 377.551 218.011 384.347C218.633 388.028 220.495 391.491 221.692 395.087C222.856 398.584 223.821 402.148 224.99 405.643C226.094 408.943 227.35 412.192 228.54 415.463C228.575 415.56 228.619 415.656 228.669 415.747C229.045 416.427 229.773 417.143 229.703 417.772C229.633 418.399 228.766 418.938 228.455 419.285C229.596 423.255 230.651 427.109 231.82 430.928C232.517 433.206 230.635 435.351 228.505 436.407C228.003 436.656 227.427 436.763 226.881 436.918C224.817 437.506 223.635 438.68 222.735 440.824C221.913 442.783 220.102 444.648 218.252 445.775C215.863 447.231 213.037 448.02 210.336 448.901C205.612 450.443 200.739 451.412 195.963 449.449C194.045 448.661 192.321 447.071 190.927 445.48C190.286 444.748 190.421 443.098 190.603 441.926C191.337 437.198 193.629 433.423 197.99 431.206C200.487 429.936 203.107 428.908 205.412 427.886C205.7 425.782 205.964 423.9 206.205 422.015C206.236 421.774 206.233 421.444 206.097 421.279C203.702 418.376 202.638 414.868 201.501 411.379C199.554 405.407 197.439 399.523 194.567 393.887C191.996 388.843 189.998 383.504 187.797 378.275C186.715 375.706 185.672 373.116 184.742 370.489C183.562 367.154 184.009 363.698 184.283 360.284C184.655 355.662 185.089 351.044 185.557 346.431C186.381 338.305 187.52 330.226 189.358 322.258C189.717 320.704 190.055 319.146 190.449 317.38H190.449ZM189.905 169.371C187.983 171.599 186.168 173.933 184.111 176.028C181.082 179.112 178.873 182.71 176.976 186.534C176.422 187.649 176.128 189.265 174.635 189.097C173.099 188.923 172.861 187.315 172.508 185.976C172.074 184.331 171.468 182.733 170.936 181.114L170.489 181.231C170.464 181.677 170.43 182.123 170.415 182.57C170.299 185.853 170.238 189.138 170.059 192.417C169.871 195.894 169.01 196.689 165.665 196.736C165.385 198.061 165.054 199.377 164.838 200.713C164.61 202.117 163.978 203.238 162.601 203.638C161.125 204.067 160.03 203.131 159.374 202.011C158.284 200.152 157.216 198.226 156.533 196.195C154.765 190.938 154.63 185.475 154.954 179.988C155.085 177.767 155.222 175.545 155.356 173.323L154.856 173.133C153.504 175.194 151.792 177.113 150.901 179.358C149.975 181.69 149.474 184.332 149.431 186.849C149.305 194.33 149.291 201.826 149.627 209.298C149.897 215.317 150.823 221.287 150.381 227.361C149.781 235.59 149.505 243.842 149.044 252.081C148.75 257.342 148.342 262.597 148.04 267.858C147.615 275.243 147.085 282.626 146.919 290.018C146.849 293.141 147.762 296.341 150.195 298.522C155.323 303.117 161.647 305.273 168.336 305.966C173.657 306.516 179.071 306.593 184.418 306.343C189.08 306.125 193.713 305.198 198.348 304.508C205.098 303.504 211.205 300.791 217.03 297.342C218.337 296.568 219.152 295.814 217.9 294.336C217.693 294.092 217.649 293.636 217.668 293.285C217.848 289.914 217.77 286.498 218.316 283.185C219.542 275.747 221.778 268.475 222.056 260.88C222.147 258.391 222.156 255.884 221.979 253.402C221.688 249.304 220.268 245.525 218.459 241.856C216.762 238.413 215.232 234.887 213.629 231.397C213.07 230.179 212.441 228.985 211.971 227.733C211.01 225.166 209.568 223.039 207.117 221.661C206.399 221.257 205.728 220.699 205.183 220.081C204.87 219.725 204.854 219.107 204.704 218.607C205.169 218.527 205.642 218.346 206.095 218.389C206.843 218.459 207.577 218.673 208.532 218.871C207.425 212.309 209.218 206.517 212.419 201.133C215.695 195.624 221.179 192.777 226.658 189.637C222.946 183.498 220.008 176.62 215.174 170.705C214.622 171.549 214.173 172.188 213.778 172.858C213.568 173.214 213.427 173.617 213.294 174.012C211.386 179.684 210.564 185.579 210.094 191.495C209.72 196.212 209.289 200.807 206.645 204.923C205.674 206.435 204.424 207.15 202.762 206.468C200.98 205.736 199.746 204.303 199.41 202.447C198.966 199.998 198.858 197.488 198.605 195.005C198.529 194.261 198.448 193.517 198.369 192.774L197.955 192.795C197.622 194.087 197.344 195.396 196.942 196.666C196.292 198.722 195.069 199.208 193.25 198.104C192.606 197.714 192.012 197.141 191.578 196.523C189.431 193.467 188.942 189.877 188.591 186.307C188.037 180.67 188.946 175.137 189.905 169.371H189.905ZM225.39 257.427C225.142 259.914 225.048 262.428 224.616 264.882C223.274 272.51 221.797 280.114 220.386 287.73C219.896 290.375 219.952 292.884 222.009 295.006C222.939 295.965 223.829 297.033 224.454 298.203C225.367 299.911 226.877 300.382 228.551 300.633C230.402 300.91 232.266 301.112 234.126 301.327C236.346 301.584 239.275 299.992 240.027 297.871C241.186 294.601 242.281 291.296 243.159 287.942C243.864 285.245 244.295 282.467 244.695 279.703C245.701 272.767 247.213 265.896 247.44 258.858C247.473 257.822 247.635 256.761 247.475 255.753C246.542 249.857 245.692 243.941 244.493 238.097C243.545 233.471 242.164 228.933 240.925 224.369C239.781 220.157 238.884 215.84 237.314 211.789C235.03 205.894 232.33 200.151 228.891 194.799C228.361 193.975 227.712 193.705 226.799 193.853C221.866 194.654 217.833 197.194 215.253 201.292C213.326 204.352 212.068 207.957 211.143 211.484C210.439 214.172 209.907 217.013 211.736 219.89C213.971 223.403 215.614 227.3 217.417 231.077C218.808 233.992 219.972 237.015 221.377 239.922C224.052 245.459 225.464 251.255 225.39 257.427H225.39ZM148.42 181.02L148.095 180.812C146.511 182.798 144.703 184.647 143.385 186.797C140.105 192.15 137.144 197.699 133.868 203.056C131.367 207.147 128.179 210.859 126.018 215.107C122.946 221.145 118.153 225.504 113.172 229.693C109.282 232.965 104.941 235.694 100.872 238.76C95.8131 242.574 90.8254 246.482 85.8138 250.359C84.6585 251.253 84.1317 252.389 83.8663 253.9C83.4237 256.418 83.9663 258.682 84.6025 261.062C85.5735 264.695 86.992 267.935 90.2822 270.058C92.1337 271.253 94.0936 272.578 96.3236 272.038C98.5067 271.51 100.688 270.586 102.599 269.399C106.825 266.771 110.877 263.865 115.006 261.081C117.501 259.4 120.254 258.007 122.456 256.005C126.616 252.222 130.588 248.209 134.402 244.073C137.656 240.545 140.66 236.776 143.607 232.983C144.796 231.452 146.013 229.671 146.382 227.835C147.014 224.688 147.248 221.404 147.185 218.186C147.073 212.494 146.567 206.81 146.311 201.119C146.006 194.325 145.942 187.543 148.42 181.021V181.02ZM157.509 128.703L157.033 128.551C155.754 130.746 153.566 130.666 151.515 130.893C150.847 130.967 150.161 130.863 149.487 130.901C148.581 130.952 147.84 131.307 147.848 132.35C147.867 135.04 147.635 137.781 148.068 140.408C148.613 143.725 149.752 146.94 150.567 150.217C151.017 152.023 151.099 153.906 153.654 154.232C154.578 154.349 155.035 154.313 155.353 153.539C155.526 153.115 155.534 152.624 155.627 152.165C156.074 149.943 157.382 148.552 158.934 148.625C162.941 148.812 166.914 148.696 170.802 147.513C172.358 147.04 173.875 147.287 174.83 148.724C176.082 150.609 177.267 152.551 178.309 154.558C179.103 156.086 179.722 156.714 181.319 156.026C182.669 155.445 183.968 154.409 184.902 153.259C187.538 150.012 192.216 148.756 195.625 150.659C195.769 150.385 195.939 150.122 196.052 149.837C197.123 147.136 198.202 144.437 199.242 141.724C199.805 140.255 200.675 139.675 202.28 140.23C203.304 140.583 204.402 140.444 204.982 139.335C206.012 137.366 207.284 135.445 207.865 133.341C208.532 130.924 208.618 128.334 208.841 125.81C208.959 124.478 208.729 123.079 207.333 122.477C205.847 121.836 204.223 121.593 203.044 123.102C202.296 124.059 201.817 125.223 201.099 126.207C200.647 126.827 200.031 127.611 199.388 127.719C198.843 127.811 197.884 127.184 197.578 126.62C196.693 124.991 195.866 123.286 195.34 121.515C194.22 117.74 193.109 113.993 189.833 111.438C189.073 110.844 187.83 109.909 187.293 110.161C185.324 111.086 183.558 112.445 181.893 113.526C183.015 114.202 184.201 114.739 185.155 115.549C185.838 116.129 185.739 116.974 184.596 116.997C183.592 117.018 182.581 116.706 181.579 116.733C178.003 116.83 174.375 116.577 170.998 118.218C170.402 118.507 169.653 118.482 168.946 118.607C168.325 115.324 171.127 115.407 172.655 114.372C170.829 113.902 169.087 113.284 167.293 113.03C164.271 112.603 161.215 112.163 158.176 112.186C155.537 112.206 152.9 112.839 150.268 113.236C147.384 113.672 147.218 113.929 147.676 116.81C149.837 116.81 152.049 116.494 154.11 116.917C155.572 117.217 157.431 117.424 157.906 119.772C159.084 125.598 160.405 131.375 160.098 137.385C159.99 139.481 159.759 139.718 157.772 138.739C157.412 139.728 157.06 140.694 156.576 142.024C158.814 141.076 160.419 141.375 161.83 143.672C162.755 140.131 165.39 140.997 168.142 140.732C167.258 139.785 166.627 139.241 166.171 138.577C165.805 138.045 165.653 137.367 165.406 136.753C166.062 136.616 166.757 136.269 167.367 136.382C169.329 136.743 170.527 138.834 170.289 141.224C170.11 143.025 169.466 143.575 166.979 143.577C165.621 143.577 164.647 143.891 163.752 145C162.676 146.334 160.771 146.512 159.75 145.327C158.845 144.276 157.89 144.253 156.722 144.296C155.275 144.349 154.189 143.321 154.512 142.118C154.883 140.74 155.463 139.408 156.063 138.107C156.597 136.948 157.688 135.899 157.808 134.728C158.01 132.75 157.639 130.714 157.509 128.703L157.509 128.703ZM144.66 103.081C145.747 102.202 146.469 101.552 147.255 100.993C151.298 98.1165 155.822 96.3878 160.647 95.3307C164.469 94.4932 168.321 94.4121 172.146 94.9752C178.461 95.9047 184.497 97.8547 190.406 100.27C192.451 101.106 194.722 101.975 196.852 101.891C201.144 101.722 205.42 100.974 209.681 100.326C211.044 100.119 211.662 98.6708 211.262 97.3049C210.969 96.3051 210.641 95.3153 210.354 94.3138C209.581 91.618 209.178 88.7479 207.986 86.254C205.083 80.1811 199.674 76.9311 193.564 74.8607C187.032 72.648 180.266 71.5147 173.361 71.3046C170.649 71.222 167.998 71.3356 165.604 72.9334C159.209 77.2025 153.374 82.1296 148.119 87.7345C146.577 89.3787 145.347 91.2436 145.21 93.6162C145.037 96.62 144.861 99.6235 144.66 103.081L144.66 103.081ZM208.767 422.738C208.444 424.64 208.595 425.076 209.472 426.626C209.671 426.976 209.437 427.878 209.096 428.178C206.416 430.539 203.237 431.991 199.919 433.264C198.545 433.792 197.303 434.885 196.24 435.958C194.091 438.127 193.8 441.097 193.184 444.007C195.244 445.186 197.068 446.79 199.708 446.956C202.678 447.143 205.623 447.453 208.455 446.286C211.236 445.139 214.012 443.969 216.724 442.67C217.572 442.264 218.308 441.491 218.912 440.739C220.289 439.022 221.104 436.842 223.168 435.695C224.57 434.917 225.998 434.173 227.324 433.279C227.866 432.913 228.603 432.103 228.51 431.646C227.758 427.938 226.829 424.266 226.006 420.803C223.039 421.47 220.249 422.35 217.396 422.668C214.56 422.985 211.661 422.738 208.767 422.738V422.738ZM191.743 103.46C189.94 102.753 188.234 102.264 186.701 101.45C182.113 99.0132 177.102 97.9768 172.082 97.2466C165.669 96.3138 159.356 97.3979 153.419 99.9228C150.637 101.106 147.621 102.534 145.672 104.711C142.048 108.761 139.12 113.437 135.924 117.867C135.619 118.289 135.463 118.817 135.237 119.296C135.862 119.16 136.25 118.905 136.619 118.624C136.823 118.468 136.993 118.266 137.182 118.089C141.407 114.148 146.164 111.194 151.941 110.136C155.892 109.413 159.844 109.058 163.849 109.8C167.268 110.433 170.693 111.115 174.147 111.446C177.37 111.755 180.577 111.458 183.364 109.407C186.029 107.446 188.757 105.573 191.743 103.46H191.743ZM158.401 427.402C159.015 428.125 160.051 428.828 159.968 429.356C159.795 430.458 158.631 430.489 157.66 430.296C156.588 430.082 155.539 429.753 154.467 429.538C151.153 428.874 146.088 430.676 144.494 433.503C143.041 436.078 142.413 439.12 141.432 441.96C141.16 442.75 141.46 443.293 142.26 443.483C144.774 444.081 147.267 444.899 149.818 445.175C154.67 445.701 158.869 443.878 162.532 440.8C164.275 439.336 165.693 437.394 167.606 436.248C169.699 434.993 172.166 434.325 174.522 433.561C175.837 433.135 176.89 432.775 176.534 431.059C176.357 430.209 176.425 429.311 176.278 428.452C175.801 425.667 175.276 422.891 174.807 420.324C172.163 420.773 169.85 421.326 167.506 421.518C165.099 421.716 162.662 421.562 160.576 421.562C159.781 423.696 159.035 425.7 158.401 427.402L158.401 427.402ZM194.459 152.809C193.286 152.628 192.158 152.086 191.405 152.411C189.692 153.152 188.112 154.246 186.575 155.335C185.491 156.104 184.679 157.286 183.551 157.957C180.504 159.772 177.407 158.56 175.997 155.322C175.255 153.618 174.306 151.981 173.255 150.448C172.932 149.976 171.85 149.598 171.307 149.773C167.722 150.923 164.058 151.115 160.351 150.951C158.064 150.849 157.928 150.926 157.693 153.197C157.408 155.939 155.842 157.193 153.005 156.769C153.737 158.515 154.302 160.244 155.157 161.816C156.465 164.223 157.915 166.561 159.429 168.845C159.916 169.579 160.759 170.504 161.503 170.566C164.658 170.827 167.86 171.065 171.002 170.805C175.119 170.465 179.041 169.121 182.706 167.183C184.248 166.367 185.922 165.57 187.103 164.346C190.173 161.162 192.7 157.552 194.459 152.809H194.459ZM152.966 304.279C152.966 305.577 152.876 307.167 153.011 308.737C153.063 309.345 153.481 310.179 153.978 310.44C155.158 311.057 156.501 311.353 157.75 311.85C163.866 314.286 170.261 315.136 176.788 315.233C185.186 315.358 193.346 313.615 201.487 311.89C205.807 310.975 210.055 309.689 214.283 308.395C215.581 307.997 217.242 307.297 217.782 306.245C218.669 304.516 218.778 302.387 219.214 300.426L218.842 300.128C217.985 300.548 217.073 300.885 216.281 301.404C212.272 304.028 207.839 305.664 203.239 306.768C199.753 307.605 196.18 308.114 192.623 308.6C189.284 309.057 185.92 309.427 182.556 309.58C180.284 309.683 177.993 309.333 175.71 309.202C172.186 309.001 168.558 309.271 165.164 308.503C161.06 307.575 157.154 305.773 152.965 304.279H152.966ZM230.201 329.71C230.353 329.698 230.506 329.685 230.658 329.673C230.955 324.86 231.252 320.046 231.558 315.084C227.124 314.754 222.789 315.193 219.441 311.527C217.346 316.32 214.354 320.516 214.193 325.827C215.673 324.023 216.976 322.12 218.312 320.24C218.572 319.875 218.956 319.598 219.282 319.28C219.525 319.711 219.85 320.117 219.986 320.579C220.114 321.016 220.11 321.52 220.048 321.979C219.559 325.596 219.095 329.217 218.517 332.82C218.079 335.548 217.485 338.251 216.961 340.965L217.357 341.063C219.048 338.704 219.59 335.887 220.328 333.155C220.75 331.595 221.035 329.997 221.486 328.446C221.609 328.024 222.113 327.713 222.443 327.35C222.772 327.775 223.321 328.169 223.385 328.63C223.51 329.534 223.493 330.502 223.306 331.396C222.868 333.496 222.295 335.569 221.776 337.653C222.335 337.199 222.746 336.661 222.926 336.053C223.428 334.356 223.762 332.605 224.323 330.929C224.502 330.394 225.187 330.029 225.64 329.586C225.932 330.189 226.483 330.801 226.462 331.392C226.416 332.658 226.073 333.913 225.852 335.172C227.145 332.935 227.326 330.133 229.526 328.125C229.818 328.81 230.01 329.26 230.201 329.71H230.201ZM221.803 299.837C221.272 302.582 220.751 305.1 220.329 307.634C220.257 308.063 220.478 308.683 220.783 309.012C223.968 312.452 228.19 312.328 232.362 312.212C232.902 312.196 233.691 311.623 233.908 311.113C234.797 309.022 235.509 306.856 236.297 304.688C234.658 304.498 233.128 304.306 231.595 304.147C227.892 303.766 224.017 303.808 221.803 299.837H221.803ZM75.3733 276.599C76.5918 276.52 77.4173 276.468 78.2425 276.413C80.6528 276.253 81.4042 276.895 80.9493 279.265C80.7176 280.473 79.7974 281.548 79.1936 282.673C82.1527 282.118 81.8324 278.819 83.7068 277.063C80.316 274.921 78.2021 271.993 77.2632 268.391C75.2591 269.493 73.4249 270.456 71.643 271.508C71.0948 271.832 70.399 272.33 70.2723 272.866C69.8469 274.669 69.4169 276.525 69.4232 278.36C69.4304 280.429 70.0645 280.846 72.1275 280.953C73.3249 281.015 74.525 281.051 75.7238 281.051C77.2464 281.052 77.9801 279.966 79.1351 278.64C77.8375 278.76 77.0285 278.882 76.2176 278.896C75.5098 278.907 74.2918 278.993 74.181 278.706C73.7565 277.605 73.4487 276.34 73.5804 275.192C73.6521 274.566 74.6691 274.02 75.3197 273.515C75.4517 273.412 75.975 273.576 76.0962 273.762C76.2258 273.961 76.1444 274.346 76.0642 274.623C75.8952 275.207 75.6669 275.773 75.3734 276.599L75.3733 276.599ZM185.907 169.192C185.994 169.244 185.935 169.184 185.906 169.195C181.386 171.008 176.91 172.963 171.94 173.25C171.705 173.264 171.256 173.929 171.327 174.164C171.666 175.287 172.164 176.362 172.581 177.463C173.367 179.537 174.135 181.617 174.865 183.571C178.543 178.78 182.231 173.979 185.907 169.192V169.192ZM80.7666 259.015C79.3812 260.699 78.4899 262.582 78.865 264.629C79.2158 266.544 79.8481 268.539 80.8828 270.163C82.1974 272.227 84.0115 273.981 85.6952 275.789C85.9257 276.036 86.7697 276.019 87.1172 275.795C88.3586 274.994 89.5083 274.052 90.9281 272.986C84.1615 270.586 82.7646 264.721 80.7665 259.015H80.7666ZM59.1733 290.915C59.7318 290.514 60.0009 290.367 60.212 290.162C62.7306 287.708 65.2476 285.253 67.7407 282.774C67.9591 282.556 68.1692 282.127 68.1048 281.865C67.8651 280.89 67.5092 279.943 67.1215 278.754C63.8605 282.43 60.5197 285.763 59.1733 290.915V290.915ZM148.031 125.569C148.88 126.128 150.245 126.535 150.489 127.3C150.892 128.56 151.467 128.909 152.556 128.671C153.463 128.474 154.55 128.325 155.169 127.742C156.381 126.6 155.893 124.925 154.251 124.523C151.939 123.957 149.642 123.959 148.031 125.569V125.569ZM156.073 118.727C155.421 118.932 154.934 119.159 154.425 119.231C152.945 119.439 151.448 119.537 149.971 119.767C147.781 120.107 147.187 120.985 147.721 122.892C150.682 121.721 153.633 121.477 156.741 123.014C156.499 121.462 156.273 120.009 156.073 118.727V118.727ZM68.3968 285.901C70.064 285.515 71.7515 285.355 72.6918 283.572C69.5331 283.046 68.9704 283.349 68.3968 285.901ZM71.4051 287.769C74.5271 288.212 75.4209 285.604 76.6303 283.404C74.9028 284.847 73.1754 286.29 71.4051 287.769ZM79.3974 284.455C79.2049 284.292 79.0123 284.129 78.8197 283.966C77.879 285.202 76.9383 286.438 75.9976 287.675C77.5716 286.978 79.1456 286.298 79.3974 284.455V284.455Z" fill="black"/>
<path d="M194.034 277.239C188.957 275.837 185.091 273.207 181.924 269.677C179.825 267.338 178.103 264.643 176.368 262.004C175.837 261.196 175.447 261.03 174.553 261.167C168.76 262.05 162.955 262.29 157.158 261.18C156.556 261.064 155.976 260.834 155.121 260.578C154.683 264.829 154.061 269.023 153.866 273.236C153.621 278.525 153.949 283.807 154.618 289.081C154.974 291.884 156.518 293.413 158.855 294.302C162.922 295.848 167.118 296.722 171.532 296.544C174.859 296.41 178.209 296.789 181.527 296.585C183.884 296.44 186.195 295.647 188.547 295.264C189.271 295.146 190.548 295.196 190.723 295.568C191.154 296.484 190.857 297.645 189.68 297.948C187.126 298.604 184.552 299.437 181.95 299.594C177.873 299.84 173.766 299.543 169.672 299.555C164.905 299.568 160.438 298.334 156.169 296.349C153.227 294.981 151.681 292.572 151.618 289.29C151.499 283.153 151.151 277.008 151.378 270.884C151.512 267.237 152.483 263.607 153.237 260.002C153.494 258.771 154.625 258.325 155.85 258.683C160.332 259.992 164.877 259.565 169.401 259.14C171.606 258.933 173.782 258.398 175.96 257.955C177.249 257.693 177.915 258.299 178.355 259.4C180.289 264.238 183.67 267.971 187.557 271.288C189.451 272.905 191.566 274.002 194.199 273.985C196.205 273.972 196.44 274.392 196.499 276.449C196.645 281.525 196.826 286.599 196.963 291.675C196.982 292.394 197.04 293.24 196.706 293.807C196.345 294.42 195.546 294.777 194.937 295.245C194.597 294.668 193.979 294.098 193.963 293.512C193.892 290.908 194.011 288.299 194.03 285.692C194.05 282.844 194.034 279.995 194.034 277.239L194.034 277.239Z" fill="black"/>
<path d="M178.028 120.283C180.185 119.992 182.034 120.752 183.693 121.969C184.96 122.898 185.509 124.243 185.195 125.834C184.938 127.14 184.07 127.937 182.824 128.253C181.513 128.586 180.184 128.949 178.845 129.041C176.379 129.211 173.899 129.256 171.426 129.23C169.578 129.211 168.814 128.259 168.915 126.411C169.069 123.603 170.704 121.808 174.192 120.848C175.429 120.507 176.747 120.463 178.028 120.283H178.028ZM172.818 124.005C173.494 124.457 174.556 124.779 174.822 125.427C175.338 126.687 176.162 126.901 177.262 126.789C178.703 126.641 180.152 126.501 181.567 126.208C182.082 126.102 182.888 125.568 182.889 125.226C182.891 124.666 182.481 123.914 182.007 123.573C179.533 121.791 175.213 122.072 172.818 124.005Z" fill="black"/>
<path d="M163.471 160.943C161.675 160.921 157.935 158.078 157.477 156.465C157.396 156.179 157.275 155.83 157.367 155.584C157.833 154.344 161.493 152.777 162.782 153.22C163.028 153.304 163.361 153.51 163.516 153.421C165.312 152.388 166.856 153.563 168.524 153.852C169.742 154.063 171.059 153.757 172.326 153.621C173.525 153.492 173.77 154.175 173.366 155.015C173.03 155.714 172.448 156.446 171.782 156.807C169.207 158.204 166.555 159.459 163.93 160.764C163.749 160.853 163.553 160.912 163.471 160.943V160.943ZM169.256 156.055C167.207 155.895 165.385 154.202 163.38 155.508C163.188 155.632 162.731 155.527 162.495 155.376C161.072 154.466 160.621 155.435 159.985 156.712C161.855 156.703 162.728 159.047 164.726 158.196C166.262 157.541 167.748 156.773 169.256 156.055H169.256Z" fill="black"/>
</svg>
