<svg width="325" height="462" viewBox="0 0 325 462" fill="none" xmlns="http://www.w3.org/2000/svg">
<path d="M216.276 331.574C215.627 334.239 214.91 336.89 214.344 339.573C213.064 345.637 211.844 351.713 210.631 357.791C210.243 359.731 209.901 361.684 209.636 363.644C209.461 364.946 209.789 366.104 210.46 367.34C213.572 373.073 217.102 378.576 218.243 385.26C218.871 388.943 220.705 392.411 221.904 396.007C223.054 399.454 224.031 402.959 225.186 406.405C226.309 409.753 227.561 413.058 228.756 416.381C228.791 416.479 228.822 416.582 228.874 416.671C229.272 417.35 230.06 418.079 229.975 418.687C229.879 419.373 228.998 419.949 228.707 420.286C229.876 424.362 231.001 428.255 232.107 432.153C232.735 434.369 230.813 436.296 228.832 437.405C228.351 437.675 227.757 437.751 227.209 437.896C225.064 438.464 223.759 439.612 223.01 441.921C222.241 444.287 220.263 446.053 217.893 447.073C215.472 448.116 213.023 449.127 210.515 449.926C205.839 451.414 201.02 452.433 196.29 450.456C194.369 449.653 192.6 448.137 191.211 446.552C190.542 445.787 190.662 444.068 190.859 442.852C191.642 438.008 194.038 434.205 198.572 432.01C200.722 430.969 202.926 430.034 205.13 429.108C205.817 428.82 206.193 428.526 205.9 427.726C205.798 427.449 205.846 427.104 205.874 426.794C206.008 425.267 206.836 423.17 206.144 422.349C205.097 421.107 204.685 419.723 204.143 418.401C202.607 414.647 201.4 410.758 199.899 406.988C198.291 402.951 196.496 398.988 194.784 394.992C192.509 389.681 190.221 384.375 187.971 379.053C187.068 376.918 186.304 374.723 185.385 372.595C183.806 368.939 184.23 365.14 184.525 361.363C184.89 356.689 185.351 352.021 185.817 347.355C186.624 339.279 187.775 331.255 189.583 323.335C189.949 321.731 190.307 320.124 190.699 318.389C188.348 318.606 185.999 318.86 183.643 319.025C182.303 319.12 180.952 319.052 179.607 319.092C178.639 319.12 178.02 319.219 177.815 320.595C177.366 323.616 176.389 326.554 175.8 329.56C174.558 335.899 171.645 341.654 169.608 347.713C168.355 351.443 167.112 355.177 165.848 358.904C165.634 359.534 165.363 360.15 165.069 360.748C163.844 363.241 164.3 365.507 165.254 368.094C166.552 371.613 167.048 375.425 167.92 379.104C169.033 383.803 170.098 388.516 171.332 393.183C172.684 398.291 174.16 403.368 175.67 408.432C176.426 410.968 177.375 413.448 178.242 415.951C178.895 417.836 178.666 418.417 177.128 419.694C176.847 419.927 176.832 420.776 177.007 421.216C178.577 425.158 179.472 429.235 179.655 433.473C179.711 434.773 179.119 435.746 178 436.248C176.556 436.895 175.038 437.387 173.531 437.883C172.053 438.369 170.54 438.748 169.063 439.239C168.703 439.359 168.396 439.701 168.115 439.99C166.173 441.991 164.539 444.47 162.253 445.924C156.152 449.807 149.567 450.701 142.785 447.513C141.624 446.967 140.539 446.255 139.43 445.6C138.533 445.07 138.057 443.08 138.643 441.456C139.591 438.831 140.444 436.123 141.799 433.709C143.267 431.094 145.931 429.713 148.766 428.873C150.05 428.492 151.426 428.425 152.756 428.193C153.757 428.018 155.132 428.146 155.667 427.542C156.696 426.379 157.294 424.815 157.985 423.376C158.669 421.952 157.159 421.302 156.735 420.266C155.127 416.327 153.112 412.528 151.825 408.492C149.995 402.755 148.295 396.997 146.077 391.376C144.566 387.545 143.72 383.426 142.825 379.381C141.689 374.247 140.594 369.086 139.9 363.88C139.531 361.113 139.694 358.159 140.23 355.409C141.799 347.361 143.46 339.317 145.502 331.379C146.977 325.646 149.104 320.079 150.983 314.453C151.223 313.734 151.292 313.285 150.826 312.54C150.348 311.779 150.167 310.606 150.336 309.703C151.029 305.979 150.294 303.087 147.415 300.195C144.275 297.04 144.02 292.478 144.21 288.12C144.517 281.063 144.816 274.005 145.257 266.956C145.786 258.495 146.574 250.05 147.032 241.586C147.368 235.397 147.399 229.19 147.47 222.99C147.501 220.276 147.165 217.556 147.239 214.846C147.287 213.063 146.144 212.474 144.933 211.928C139.502 209.477 133.786 209.801 128.054 210.268C124.787 210.535 121.512 210.708 118.242 210.94C115.913 211.106 113.581 211.489 111.258 211.439C106.697 211.339 101.982 211.672 97.6145 210.632C88.1813 208.383 79.4188 204.347 71.5409 198.548C68.7793 196.514 65.7965 194.768 63.1346 192.618C60.8972 190.81 59.0833 188.578 59.4864 185.306C59.5342 184.918 59.0273 184.352 58.6397 184.04C57.4675 183.096 56.1936 182.278 55.0339 181.32C54.679 181.027 54.5644 180.443 54.2365 179.784C51.9498 179.507 49.4691 179.326 47.0419 178.864C45.6421 178.598 44.2865 177.965 42.9897 177.335C41.9803 176.844 41.447 175.946 41.808 174.736C41.8521 174.588 41.9765 174.368 41.9202 174.3C40.763 172.887 40.95 171.322 40.9198 169.606C40.8941 168.144 40.5448 166.833 41.4423 165.425C40.9226 165.853 40.3831 166.259 39.8871 166.713C38.6697 167.827 37.5683 169.101 36.2275 170.034C35.5362 170.515 34.173 170.811 33.5938 170.44C33.0657 170.102 32.8828 168.68 33.0734 167.858C33.8955 164.31 36.3383 161.661 39.1659 159.814C40.7709 158.766 43.3668 159.172 45.5237 159.051C47.4 158.946 49.255 159.239 51.1798 159.084C53.0649 158.933 55.2186 159.895 56.9653 160.881C58.6822 161.85 60.0359 163.463 61.6926 164.92C63.2498 163.535 64.9269 164.353 66.5985 165.349C68.0268 166.2 69.4571 167.048 70.9058 167.863C71.1969 168.027 71.6046 168.168 71.9077 168.098C75.7623 167.21 79.2213 168.719 82.0926 170.734C87.4839 174.515 93.3594 177.038 99.602 178.729C103.852 179.88 108.236 180.58 112.596 181.256C115.33 181.681 117.888 180.569 120.435 179.66C125.639 177.801 130.806 175.808 136.094 174.222C141.21 172.689 146.443 171.535 151.656 170.351C153.195 170.002 154.839 170.116 156.663 170.004C155.968 168.747 155.255 167.622 154.7 166.424C151.721 159.991 149.2 153.413 147.38 146.524C146.178 141.973 145.308 137.53 146.099 132.856C146.142 132.601 146.251 132.281 146.147 132.089C143.868 127.861 145.953 123.504 145.762 119.217C145.718 118.218 145.896 117.208 145.972 116.202L145.488 115.892C143.191 117.713 140.908 119.552 138.592 121.348C137.778 121.979 136.858 122.471 136.033 123.089C135.138 123.759 134.177 123.563 133.677 122.849C133.261 122.254 133.029 121.055 133.355 120.494C135.488 116.815 137.466 112.965 140.15 109.711C142.317 107.083 143.153 104.762 142.688 101.314C141.768 94.4811 144.24 88.6286 149.455 84.0662C153.357 80.6522 157.306 77.288 161.327 74.0156C165.464 70.6486 170.367 69.6271 175.548 70.115C180.574 70.5883 185.616 71.1273 190.565 72.084C193.219 72.5971 195.74 73.9473 198.232 75.1104C200.296 76.0738 202.408 77.0935 204.172 78.4986C205.928 79.8972 207.522 81.6457 208.757 83.524C212.043 88.5239 213.466 94.2427 214.708 100.027C215.019 101.475 215.753 102.986 216.71 104.114C220.842 108.987 222.426 114.668 222.966 120.914C223.364 125.513 224.315 130.082 225.275 134.61C226.086 138.439 226.171 142.24 225.816 146.101C225.67 147.698 225.78 149.318 225.653 150.919C225.135 157.424 222.515 163.061 218.313 167.966C217.296 169.153 217.458 169.838 218.4 170.982C221.566 174.829 224.394 178.86 226.121 183.66C227.034 186.2 228.895 188.393 230.267 190.778C231.045 192.13 231.723 193.543 232.406 194.947C234.696 199.655 237.135 204.3 239.19 209.109C240.693 212.624 241.778 216.331 242.876 220.004C244.292 224.744 245.696 229.498 246.809 234.315C247.865 238.882 248.582 243.53 249.369 248.155C249.9 251.28 250.684 254.432 250.656 257.565C250.62 261.81 250.059 266.07 249.461 270.286C248.65 276.012 247.832 281.757 246.563 287.391C245.528 291.983 243.847 296.432 242.394 300.925C242.176 301.598 241.779 302.472 241.223 302.732C238.336 304.075 238.615 306.93 237.887 309.3C237.476 310.642 237.361 312.129 236.7 313.322C236.17 314.277 234.991 314.858 234.153 315.661C233.773 316.024 233.292 316.5 233.249 316.961C232.874 320.954 232.545 324.952 232.289 328.955C232.081 332.217 231.024 335.176 229.267 337.883C228.903 338.443 228.145 338.75 227.56 339.163C227.274 339.365 226.83 339.473 226.697 339.742C225.522 342.124 223.063 342.289 220.995 343.142C220.365 343.402 219.735 343.726 219.199 344.142C218.274 344.862 217.43 345.594 216.15 344.871C214.906 344.167 214.942 343.2 215.16 341.939C215.752 338.515 216.17 335.061 216.657 331.618L216.276 331.574V331.574ZM226.905 190.667C223.233 184.501 220.233 177.65 215.346 171.591C214.687 172.863 214.017 173.872 213.616 174.979C211.554 180.665 210.792 186.631 210.346 192.599C209.983 197.442 209.39 202.118 206.695 206.293C205.929 207.48 204.812 208.013 203.49 207.639C201.418 207.055 200.074 205.497 199.68 203.487C199.182 200.95 199.1 198.331 198.834 195.748C198.765 195.078 198.677 194.409 198.598 193.74C198.065 194.432 197.837 195.107 197.643 195.792C197.43 196.541 197.324 197.327 197.041 198.046C196.394 199.693 195.434 200.024 193.818 199.288C192.288 198.591 191.387 197.307 190.807 195.838C188.348 189.605 188.259 183.164 189.297 176.647C189.623 174.599 189.997 172.559 190.349 170.515C187.943 172.923 185.971 175.629 183.617 177.948C180.729 180.793 178.948 184.271 177.138 187.768C176.587 188.832 176.251 190.316 174.79 190.092C173.401 189.879 173.083 188.426 172.791 187.187C172.767 187.087 172.792 186.973 172.76 186.876C172.239 185.287 171.714 183.7 171.189 182.113C171.041 182.14 170.892 182.166 170.744 182.193C170.716 182.683 170.679 183.173 170.66 183.663C170.535 187.051 170.482 190.443 170.272 193.825C170.077 196.941 168.979 197.843 165.925 197.681C165.633 199.053 165.294 200.42 165.061 201.805C164.823 203.219 164.151 204.292 162.752 204.655C161.331 205.024 160.273 204.113 159.655 203.057C158.543 201.154 157.474 199.173 156.765 197.096C154.988 191.892 154.89 186.475 155.19 181.042C155.313 178.804 155.47 176.568 155.612 174.331C153.896 176.425 151.612 177.928 150.903 180.682C148.591 189.664 149.19 198.795 149.575 207.877C149.86 214.62 151.159 221.29 150.636 228.111C150.002 236.39 149.757 244.698 149.295 252.991C148.999 258.305 148.584 263.612 148.278 268.926C147.854 276.312 147.288 283.698 147.175 291.089C147.125 294.41 148.192 297.709 150.94 300.013C154.928 303.357 159.661 305.332 164.67 306.288C168.468 307.014 172.424 306.948 176.314 307.14C179.591 307.302 182.931 307.758 186.143 307.33C193.662 306.328 201.327 305.771 208.422 302.767C211.717 301.372 214.83 299.543 218.003 297.868C218.786 297.455 218.973 296.843 218.554 295.914C218.119 294.95 217.735 293.836 217.779 292.807C217.903 289.896 218.074 286.964 218.557 284.096C219.602 277.89 221.057 271.748 221.941 265.522C222.457 261.892 222.395 258.142 222.226 254.462C222.034 250.26 220.43 246.397 218.634 242.617C217.227 239.658 216.022 236.603 214.664 233.619C213.919 231.98 212.926 230.449 212.252 228.785C211.228 226.254 209.865 224.083 207.417 222.689C206.613 222.231 205.903 221.567 205.256 220.895C204.998 220.626 204.83 219.977 204.981 219.692C205.123 219.422 205.756 219.258 206.142 219.304C206.95 219.401 207.738 219.666 208.778 219.922C207.678 213.37 209.447 207.574 212.636 202.182C215.904 196.655 221.379 193.798 226.905 190.667L226.905 190.667ZM248.034 258.132L247.881 258.108C247.849 257.692 247.849 257.27 247.78 256.86C246.785 250.921 245.937 244.952 244.729 239.057C243.791 234.482 242.42 229.995 241.205 225.479C240.232 221.863 239.321 218.223 238.161 214.666C237.345 212.164 236.18 209.773 235.131 207.35C234.245 205.304 233.385 203.24 232.358 201.264C231.377 199.378 230.268 197.546 229.057 195.801C228.701 195.287 227.762 194.812 227.165 194.891C222.147 195.554 218.106 198.201 215.484 202.319C213.545 205.367 212.299 208.984 211.382 212.513C210.684 215.201 210.09 218.08 212.001 220.917C213.68 223.411 214.663 226.375 215.954 229.13C217.985 233.462 219.914 237.844 222.07 242.112C225.918 249.729 226.151 257.764 224.843 265.913C223.616 273.558 222.033 281.146 220.623 288.763C220.133 291.412 220.221 293.917 222.276 296.033C223.207 296.992 224.102 298.059 224.718 299.233C225.531 300.781 226.872 301.299 228.369 301.57C230.108 301.884 231.872 302.112 233.635 302.237C237.618 302.519 239.729 300.95 240.836 297.051C241.205 295.75 241.636 294.466 242.04 293.174C242.717 291.012 243.613 288.892 244.029 286.68C244.895 282.078 245.567 277.435 246.209 272.794C246.884 267.916 247.431 263.02 248.034 258.132V258.132ZM153.249 173.053L152.953 172.487C148.735 173.526 144.485 174.452 140.31 175.639C137.168 176.532 134.13 177.785 131.03 178.83C126.739 180.278 122.373 181.526 118.153 183.155C115.123 184.326 112.093 184.799 109.005 184.042C105.683 183.228 102.452 182.047 99.1752 181.045C96.3983 180.196 93.568 179.499 90.8417 178.512C86.5574 176.962 82.8893 174.28 79.1701 171.726C76.8626 170.141 74.3853 169.364 71.8528 170.805C70.0249 171.846 68.2188 173.167 66.8814 174.764C65.3091 176.641 64.395 179.056 62.9378 181.049C61.2339 183.379 62.179 185.424 63.3208 187.408C65.1667 190.616 68.1829 192.71 70.955 195.04C75.304 198.696 80.3028 201.239 85.3435 203.728C89.9776 206.016 94.7829 208.118 99.9126 208.541C105.976 209.04 112.109 208.807 118.209 208.711C120.594 208.673 122.968 207.925 125.354 207.877C132.474 207.735 139.651 207.153 146.562 209.634C146.603 209.649 146.662 209.612 146.751 209.59C146.751 208.304 146.833 207.001 146.738 205.712C146.092 196.916 146.109 188.183 149.255 179.766C149.77 178.387 150.496 177.073 151.244 175.799C151.814 174.826 152.574 173.964 153.25 173.053H153.249ZM151.561 154.4C152.552 154.731 153.259 155.109 153.991 155.164C154.508 155.202 155.166 154.92 155.558 154.56C155.835 154.306 155.775 153.682 155.863 153.222C156.283 151.036 157.623 149.531 159.123 149.612C163.239 149.834 167.286 149.584 171.309 148.511C172.324 148.241 174.049 148.62 174.691 149.359C176.194 151.089 177.544 153.096 178.391 155.217C179.43 157.819 181.057 157.494 182.801 156.574C183.606 156.15 184.196 155.335 184.932 154.759C186.47 153.555 187.904 152.102 189.633 151.291C191.58 150.379 193.812 149.965 195.771 151.784C195.995 151.374 196.2 151.076 196.331 150.749C197.424 148.001 198.499 145.245 199.592 142.497C200.091 141.241 200.912 140.729 202.311 141.168C203.384 141.505 204.541 141.539 205.183 140.344C206.211 138.433 207.489 136.57 208.055 134.519C208.737 132.051 208.841 129.414 209.084 126.839C209.21 125.508 208.988 124.098 207.607 123.489C206.133 122.84 204.494 122.569 203.314 124.08C202.536 125.076 202.044 126.292 201.306 127.325C200.888 127.909 200.263 128.661 199.673 128.716C199.082 128.771 198.144 128.204 197.839 127.647C196.949 126.021 196.135 124.314 195.59 122.546C194.433 118.796 193.439 114.987 190.099 112.463C189.323 111.876 188.097 110.897 187.57 111.145C185.586 112.077 183.805 113.441 181.894 114.679C182.752 114.992 183.591 115.115 184.184 115.563C184.814 116.04 185.211 116.826 185.71 117.477C184.931 117.682 184.116 118.148 183.377 118.049C179.73 117.558 176.145 117.561 172.613 118.736C171.521 119.099 170.402 119.38 169.218 119.722C168.561 116.326 171.361 116.406 173.061 115.278C169.69 114.583 166.521 113.731 163.296 113.315C159.073 112.771 154.874 113.417 150.706 114.197C147.581 114.782 147.519 114.803 147.883 117.787C149.991 117.787 152.146 117.485 154.163 117.883C155.757 118.197 157.647 118.43 158.166 120.885C159.408 126.758 160.637 132.599 160.359 138.653C160.278 140.424 159.866 140.698 158.05 139.701C157.672 140.699 157.304 141.667 156.775 143.061C159.088 141.995 160.704 142.438 162.042 144.509C163.128 141.299 165.61 141.899 167.967 141.565C167.425 140.675 166.688 140.039 166.106 139.284C165.808 138.898 165.591 138.245 165.709 137.814C165.787 137.528 166.6 137.171 166.945 137.281C167.781 137.548 168.626 137.96 169.307 138.511C170.868 139.774 170.914 141.523 170.308 143.227C169.718 144.885 168.101 144.515 166.802 144.573C165.756 144.619 164.949 144.814 164.255 145.747C163.178 147.193 161.214 147.594 160.16 146.446C159.118 145.31 158.038 145.242 156.702 145.281C155.453 145.318 154.459 144.245 154.75 143.164C155.122 141.786 155.468 140.255 156.318 139.18C158.702 136.166 158.402 133.004 157.399 129.358C156.033 131.704 153.874 131.766 151.811 131.88C148.266 132.074 148.261 132.016 147.813 135.46C147.78 135.716 147.814 135.98 147.807 136.24C147.63 142.685 150.585 148.448 151.561 154.4V154.4ZM144.882 103.687L145.296 103.779C146.011 103.189 146.693 102.552 147.446 102.017C151.536 99.1151 156.106 97.3659 160.987 96.3097C164.761 95.4933 168.564 95.4085 172.333 95.9622C178.593 96.8818 184.594 98.7808 190.451 101.188C192.451 102.009 194.598 102.65 196.736 102.923C201.208 103.494 205.528 102.178 209.868 101.344C211.269 101.075 211.911 99.7282 211.52 98.3624C211.233 97.3609 210.9 96.3727 210.614 95.371C209.844 92.6741 209.439 89.807 208.257 87.3067C205.377 81.2165 199.972 77.9538 193.866 75.8779C187.339 73.6586 180.574 72.5037 173.666 72.313C171.017 72.2398 168.397 72.2665 166.036 73.8207C159.524 78.109 153.588 83.0896 148.328 88.8305C147.114 90.1551 145.995 91.9254 145.686 93.6442C145.094 96.9337 145.115 100.333 144.882 103.687V103.687ZM226.175 421.46C220.489 423.81 214.846 424.644 208.828 423.612C209.24 425.035 208.004 426.658 209.79 427.736C209.933 427.822 209.807 428.828 209.521 429.069C208.458 429.962 207.35 430.858 206.123 431.487C204.055 432.547 201.873 433.384 199.759 434.359C199.061 434.68 198.359 435.057 197.775 435.547C194.848 438.005 193.996 441.426 193.483 444.992C195.56 446.39 197.566 447.835 200.206 448.003C203.014 448.182 205.823 448.427 208.501 447.349C211.34 446.206 214.208 445.089 216.905 443.662C218.164 442.996 219.09 441.662 220.095 440.566C221.162 439.404 222.001 437.99 223.201 437.006C224.543 435.906 226.226 435.232 227.663 434.234C228.186 433.872 228.836 433.027 228.737 432.542C227.993 428.884 227.077 425.262 226.175 421.46L226.175 421.46ZM192.001 104.467C190.222 103.771 188.516 103.291 186.991 102.474C182.411 100.018 177.398 98.9825 172.379 98.2515C165.971 97.3181 159.685 98.4511 153.697 100.868C150.811 102.033 147.775 103.245 145.773 105.718C142.565 109.678 139.646 113.873 136.647 118C136.153 118.68 135.876 119.518 135.499 120.282C137.761 118.774 139.822 117.14 141.909 115.54C146.751 111.828 152.462 110.519 158.325 110.438C162.205 110.384 166.098 111.459 169.991 111.988C174.275 112.57 178.664 113.341 182.625 110.987C185.81 109.094 188.734 106.763 192.001 104.467V104.467ZM158.641 428.416C159.244 429.111 160.316 429.837 160.219 430.335C159.988 431.521 158.792 431.484 157.768 431.266C156.75 431.05 155.755 430.68 154.728 430.553C150.76 430.059 147.06 431.223 144.878 434.399C143.154 436.908 142.643 440.261 141.678 443.266C141.588 443.545 142.024 444.22 142.366 444.374C146.202 446.093 150.199 446.76 154.372 445.968C159.531 444.989 163.213 441.643 166.845 438.193C167.651 437.427 168.566 436.663 169.574 436.247C171.341 435.517 173.214 435.04 175.052 434.489C176.191 434.148 177.052 433.727 176.792 432.231C176.233 429.027 175.795 425.802 175.272 422.591C175.186 422.063 174.921 421.565 174.854 421.376C172.289 421.796 169.965 422.329 167.612 422.52C165.254 422.711 162.868 422.562 160.812 422.562C160.027 424.677 159.283 426.683 158.641 428.416H158.641ZM153.269 157.794C154.048 159.673 154.659 161.56 155.586 163.277C156.813 165.55 158.228 167.731 159.689 169.866C160.186 170.593 161.031 171.512 161.775 171.568C164.981 171.805 168.223 171.976 171.423 171.753C175.509 171.468 179.346 170.044 182.975 168.168C184.523 167.368 186.194 166.554 187.366 165.325C190.416 162.127 192.983 158.543 194.657 153.89C193.633 153.682 192.654 153.23 191.75 153.35C189.725 153.619 188.15 154.808 186.771 156.315C185.872 157.296 184.906 158.304 183.775 158.97C180.731 160.764 177.648 159.538 176.234 156.297C175.491 154.593 174.538 152.958 173.483 151.427C173.162 150.961 172.08 150.607 171.528 150.78C167.94 151.905 164.28 152.129 160.571 151.948C158.321 151.839 158.172 151.936 157.934 154.221C157.652 156.932 156.095 158.172 153.269 157.794V157.794ZM219.446 301.346C219.025 301.312 218.91 301.27 218.82 301.301C218.529 301.402 218.227 301.497 217.963 301.652C213.93 304.038 209.744 306.094 205.212 307.342C198.357 309.23 191.329 310.178 184.262 310.584C180.08 310.824 175.858 310.345 171.653 310.231C167.888 310.128 164.186 309.744 160.685 308.211C158.273 307.155 155.85 306.128 153.253 305.011C153.253 306.374 153.396 307.81 153.213 309.203C153.026 310.637 153.601 311.435 154.835 311.807C158.7 312.97 162.542 314.253 166.471 315.142C169.498 315.827 172.652 316.372 175.735 316.305C182.121 316.166 188.51 315.787 194.778 314.262C198.618 313.327 202.551 312.777 206.399 311.868C209.18 311.211 211.959 310.419 214.6 309.344C215.876 308.825 217.791 308.937 218.252 307.086C218.713 305.23 219.038 303.339 219.446 301.346H219.446ZM222.033 338.572L222.277 338.767C222.582 338.197 222.993 337.657 223.172 337.05C223.675 335.352 224.008 333.602 224.57 331.926C224.749 331.392 225.434 331.027 225.887 330.585C226.178 331.189 226.729 331.801 226.707 332.393C226.661 333.658 226.319 334.912 226.098 336.17C227.408 333.943 227.561 331.126 229.783 329.128L230.455 330.705L230.904 330.672C231.201 325.858 231.497 321.046 231.803 316.083C227.373 315.751 223.036 316.196 219.688 312.525C217.594 317.319 214.599 321.513 214.429 326.816C215.909 325.009 217.225 323.113 218.556 321.229C218.801 320.883 219.106 320.581 219.383 320.259C219.674 320.698 220.058 321.105 220.228 321.588C220.377 322.01 220.354 322.526 220.292 322.985C219.803 326.601 219.338 330.222 218.761 333.824C218.323 336.55 217.731 339.251 217.207 341.964L217.613 342.095C217.985 341.426 218.463 340.795 218.709 340.083C219.386 338.124 220.006 336.143 220.57 334.149C220.995 332.644 221.243 331.09 221.687 329.592C221.827 329.12 222.346 328.761 222.691 328.35C223.019 328.827 223.534 329.27 223.632 329.791C223.78 330.583 223.767 331.457 223.597 332.247C223.14 334.369 222.563 336.466 222.033 338.572V338.572ZM222.018 300.789C221.475 303.845 220.975 306.662 220.475 309.48C223.577 313.29 227.968 313.349 232.379 313.229C232.959 313.214 233.838 312.783 234.043 312.312C234.982 310.153 235.731 307.91 236.545 305.705C234.364 305.432 232.375 305.069 230.373 304.957C227.035 304.77 223.974 304.139 222.018 300.789L222.018 300.789ZM54.0504 178.542C54.7356 175.865 55.2633 173.617 55.8922 171.397C56.5381 169.118 57.5777 167.064 59.8783 165.769C58.7951 164.856 57.8104 164.1 56.9098 163.253C53.5872 160.131 50.6213 159.866 47.019 162.528C46.6299 162.815 46.3992 163.622 46.4537 164.151C46.6498 166.053 46.9902 167.941 47.3046 169.83C47.3419 170.054 47.5142 170.377 47.6952 170.436C48.9369 170.844 50.1976 171.193 51.4522 171.561L51.7763 171.115C51.5201 170.603 51.2904 170.076 51.001 169.583C50.6598 169.003 50.0278 168.482 49.9546 167.883C49.8528 167.05 49.8936 165.98 50.3458 165.353C50.9479 164.517 52.8459 164.963 54.1622 166.192C53.2041 166.441 52.4225 166.644 51.7271 166.824C52.3465 168.243 53.5662 169.73 53.427 171.076C53.2806 172.492 51.8344 173.774 50.85 175.277C51.9234 176.372 52.9492 177.418 54.0504 178.542V178.542ZM59.2721 181.741C62.0935 177.4 63.7085 172.09 69.2709 169.63C67.3567 168.569 65.786 167.682 64.1943 166.834C63.9399 166.698 63.4936 166.594 63.301 166.723C61.7365 167.768 59.5906 168.15 58.8497 170.16C58.152 172.053 57.5994 174.008 57.1097 175.967C56.5321 178.277 56.7017 180.41 59.2721 181.741V181.741ZM175.214 184.425C178.781 179.784 182.472 174.98 186.143 170.204C186.03 170.25 185.809 170.339 185.589 170.428C181.552 172.059 177.513 173.692 173.136 174.191C171.347 174.395 171.056 174.721 171.733 176.385C172.862 179.158 174.107 181.883 175.214 184.425V184.425ZM45.5999 160.59C43.4923 160.872 41.0635 160.524 39.5877 161.549C37.2878 163.147 35.6468 165.685 34.6706 168.526C35.8586 167.821 37.0185 167.077 37.9812 166.133C39.7481 164.4 41.4356 162.674 44.0158 164.494C44.5312 163.223 44.981 162.115 45.5997 160.59H45.5999ZM150.377 129.601C151.421 129.601 152.775 129.694 154.11 129.577C155.731 129.434 156.481 127.741 155.622 126.374C154.678 124.873 150.739 124.755 149.377 126.01C149.713 127.219 150.021 128.322 150.377 129.601V129.601ZM156.321 119.719C155.674 119.926 155.19 120.159 154.683 120.23C153.202 120.438 151.705 120.536 150.228 120.762C148.124 121.083 147.465 122.045 147.902 123.685C149.44 123.436 150.949 123.003 152.458 123.003C153.923 123.002 155.388 123.446 156.935 123.709C156.744 122.469 156.521 121.016 156.321 119.719V119.719ZM43.0887 175.107C45.2187 176.914 47.429 176.998 49.7012 177.115C49.0137 175.359 46.4716 174.532 43.0887 175.107ZM48.8206 173.433L48.9908 172.927C46.8226 172.291 44.6544 171.656 42.4863 171.02L42.3336 171.534C43.9756 173.872 46.8228 172.26 48.8206 173.433V173.433ZM44.5012 166.16C43.6891 167.067 43.1767 167.64 42.6643 168.212C43.3782 168.633 44.0922 169.055 44.8061 169.476L45.1469 169.049C44.9731 168.272 44.7993 167.494 44.5012 166.16V166.16Z" fill="black"/>
<path d="M193.93 278.202C185.555 275.491 180.03 269.607 176.028 262.064C169.16 262.992 162.353 263.501 155.354 261.715C154.927 265.859 154.176 270.065 154.141 274.278C154.096 279.555 154.687 284.835 154.911 290.117C155.036 293.052 156.901 294.451 159.292 295.364C162.968 296.766 166.767 297.598 170.738 297.563C174.537 297.529 178.344 297.751 182.132 297.555C184.334 297.441 186.495 296.664 188.695 296.316C189.46 296.196 190.813 296.229 190.985 296.607C191.453 297.635 190.93 298.734 189.76 299.059C187.563 299.669 185.342 300.396 183.092 300.571C176.715 301.068 170.316 301.11 164.005 299.851C160.761 299.204 157.584 298.319 154.801 296.332C152.975 295.028 152.103 293.215 151.921 291.181C151.229 283.442 150.986 275.684 151.981 267.951C152.277 265.644 152.871 263.369 153.437 261.106C153.752 259.844 154.798 259.3 155.987 259.658C160.578 261.044 165.221 260.52 169.847 260.104C172 259.91 174.124 259.373 176.252 258.949C177.455 258.71 178.132 259.242 178.553 260.297C180.526 265.237 183.954 269.063 187.959 272.414C189.782 273.94 191.817 274.983 194.334 274.975C196.455 274.968 196.681 275.361 196.746 277.492C196.904 282.619 197.094 287.745 197.246 292.872C197.263 293.436 197.284 294.116 197.003 294.545C196.57 295.208 195.877 295.7 195.294 296.265C194.921 295.613 194.246 294.97 194.228 294.309C194.129 290.766 194.225 287.219 194.189 283.675C194.17 281.822 194.018 279.971 193.93 278.202H193.93Z" fill="black"/>
<path d="M177.562 121.309C180.362 121.034 182.858 121.593 184.712 123.836C186.356 125.826 185.6 128.43 183.147 129.219C181.866 129.631 180.512 129.93 179.173 130.022C176.656 130.196 174.124 130.248 171.6 130.225C169.831 130.208 169.092 129.279 169.161 127.493C169.268 124.673 170.88 122.874 174.356 121.856C175.389 121.553 176.491 121.485 177.562 121.309V121.309ZM175.227 127.927C177.205 127.736 179.463 127.579 181.699 127.26C182.246 127.182 183.185 126.474 183.133 126.23C182.989 125.562 182.554 124.713 181.986 124.422C179.099 122.944 176.194 122.947 173.533 124.561C174.061 125.61 174.532 126.547 175.227 127.927V127.927Z" fill="black"/>
<path d="M161.641 153.553C163.743 155.296 166.05 153.196 168.191 154.661C169.173 155.332 171.064 154.748 172.531 154.615C173.9 154.491 173.996 155.244 173.57 156.123C173.253 156.775 172.689 157.443 172.062 157.784C169.533 159.16 166.954 160.451 164.349 161.676C163.869 161.902 163.04 161.898 162.608 161.625C160.8 160.487 158.252 160.173 157.739 157.503C157.682 157.206 157.485 156.73 157.596 156.64C158.905 155.587 160.261 154.591 161.641 153.553ZM160.24 157.67C162.058 157.723 162.953 159.996 164.926 159.2C166.49 158.569 167.985 157.767 169.511 157.041C167.345 156.703 165.403 155.33 163.368 156.535C163.24 156.611 162.937 156.511 162.78 156.401C161.506 155.503 160.915 156.297 160.24 157.67Z" fill="black"/>
</svg>
