<svg width="325" height="462" viewBox="0 0 325 462" fill="none" xmlns="http://www.w3.org/2000/svg">
<path d="M220.952 413.515C224.51 418.18 225.518 423.601 226.685 428.962C226.933 430.102 226.761 431.073 225.614 431.767C224.161 432.646 222.74 433.598 221.398 434.638C220.194 435.57 219.093 436.521 218.411 438.07C216.728 441.899 213.877 444.765 210.228 446.865C205.206 449.756 199.959 450.622 194.448 448.619C192.93 448.067 191.534 447.101 190.203 446.155C189.745 445.829 189.409 444.973 189.439 444.381C189.588 441.45 189.526 438.439 190.215 435.621C190.942 432.643 193.122 430.43 195.859 428.931C196.945 428.337 198.109 427.885 199.226 427.343C199.586 427.168 199.984 426.98 200.237 426.687C202.395 424.185 203.841 421.358 203.6 417.97C203.545 417.191 202.833 416.441 202.364 415.716C202.032 415.204 201.453 414.815 201.237 414.272C200.095 411.403 199.024 408.506 197.946 405.612C196.086 400.622 194.369 395.575 192.352 390.65C190.105 385.161 187.661 379.749 185.168 374.366C183.425 370.603 182.542 366.626 182.105 362.58C181.34 355.502 180.899 348.39 180.214 341.303C179.852 337.554 179.076 333.839 178.824 330.086C178.581 326.48 178.771 322.845 178.771 318.873H166.931C166.78 320.958 166.741 323.33 166.409 325.66C165.82 329.797 165.168 333.933 164.334 338.027C162.858 345.273 161.215 352.484 159.681 359.718C159.573 360.227 159.665 360.86 159.876 361.343C162.392 367.077 164.364 372.978 165.691 379.105C166.467 382.686 167.242 386.286 168.346 389.773C169.79 394.339 171.576 398.796 173.181 403.312C173.769 404.969 173.943 406.868 174.87 408.288C176.29 410.463 175.598 412.117 174.487 413.99C174.237 414.413 174.537 415.24 174.73 415.833C175.62 418.564 176.846 421.222 177.402 424.015C177.891 426.478 177.71 429.129 175.811 431.17C175.209 431.817 174.365 432.374 173.525 432.645C169.87 433.826 167.225 436.344 164.447 438.846C157.274 445.307 148.244 447.42 138.742 443.017C137.079 442.246 136.348 440.57 136.777 438.751C137.192 436.988 137.67 435.241 138.106 433.483C139.3 428.657 141.996 427.388 146.3 427.125C149.626 426.922 151.825 425.218 153.758 422.998C154.8 421.802 155.351 420.155 155.99 418.655C156.122 418.345 155.764 417.491 155.457 417.382C153.024 416.517 152.242 414.369 151.599 412.283C149.132 404.288 146.76 396.263 144.433 388.227C142.885 382.882 141.526 377.483 139.97 372.141C139.484 370.472 138.713 368.869 137.928 367.309C136.614 364.697 136.455 361.892 136.7 359.119C137.271 352.635 138.08 346.171 138.759 339.695C139.33 334.247 139.815 328.789 140.415 323.344C140.748 320.32 141.28 317.318 141.621 314.295C141.683 313.754 141.397 313.025 141.02 312.614C140.046 311.556 138.932 310.628 137.845 309.622C135.263 310.66 135.014 311.266 135.686 314.078C136.15 316.019 136.528 317.993 136.759 319.974C136.947 321.583 136.342 323.005 135.192 324.208C134.265 325.179 132.947 326.138 132.693 327.298C132.358 328.822 132.788 330.558 133.091 332.165C133.403 333.819 134.138 335.403 134.357 337.062C134.591 338.827 133.345 339.675 131.583 339.258C129.503 338.765 128.118 337.306 126.645 335.907C126.08 335.371 125.187 335.179 124.439 334.84C124.352 334.801 124.198 334.867 124.138 334.813C122.497 333.347 120.042 333.061 118.742 331.091C118.56 330.815 118.3 330.446 118.025 330.396C115.989 330.026 115.595 328.438 115.133 326.792C114.222 323.544 114.5 320.32 115.222 317.112C115.822 314.443 116.568 311.807 117.199 309.144C117.293 308.748 117.275 308.109 117.03 307.883C115.211 306.203 115.74 303.932 115.581 301.913C115.437 300.084 115.86 298.212 116.005 296.357C116.037 295.951 116.102 295.434 115.901 295.141C114.022 292.401 114.267 289.105 113.448 286.092C111.441 278.71 113.105 271.389 113.703 264.044C113.955 260.959 113.962 257.851 114.286 254.776C114.837 249.536 115.452 244.3 116.225 239.089C116.984 233.974 117.852 228.869 118.888 223.803C120.399 216.42 121.75 208.976 123.826 201.746C125.801 194.866 128.406 188.14 131.157 181.522C132.507 178.275 134.721 175.361 136.746 172.436C137.414 171.471 137.651 170.673 137.434 169.61C135.727 161.222 134.449 152.754 135.283 144.203C135.576 141.199 134.452 139.059 133.307 136.638C131.933 133.733 130.798 130.709 131.709 127.375C131.749 127.226 131.718 127.029 131.805 126.925C133.503 124.902 132.272 122.75 132.118 120.636C131.765 115.816 131.769 111.03 133.181 106.32C133.627 104.833 133.885 103.191 133.767 101.655C133.457 97.6222 134.537 93.8478 135.615 90.0777C136.438 87.1967 137.474 84.3723 138.514 81.5589C139.402 79.1543 141.327 77.5185 143.435 76.3559C148.14 73.7606 152.991 71.4282 157.797 69.0165C159.038 68.3933 160.403 67.9918 161.587 67.2811C164.182 65.723 166.989 65.8736 169.753 66.25C176.516 67.1713 182.838 69.5557 188.414 73.4064C190.684 74.9739 192.359 77.6043 193.869 80.0226C196.078 83.558 198.056 87.2635 199.798 91.0504C200.486 92.546 200.202 94.4677 200.499 96.1714C200.715 97.416 200.997 98.6969 201.528 99.8307C203.319 103.65 203.991 107.704 204.372 111.847C204.58 114.103 204.888 116.35 205.17 118.599C205.199 118.827 205.305 119.099 205.468 119.247C208.677 122.153 209.06 126.009 207.419 129.419C205.723 132.944 206.434 136.179 207.112 139.419C208.035 143.832 208.193 148.236 208.174 152.685C208.158 156.36 207.893 160.052 208.177 163.702C208.293 165.188 209.47 166.645 210.331 168.01C212.484 171.419 214.877 174.683 216.887 178.171C218.086 180.253 218.757 182.641 219.643 184.901C221.995 190.904 224.533 196.844 226.606 202.942C227.891 206.724 228.5 210.741 229.344 214.666C230.268 218.964 231.349 223.247 231.937 227.593C232.795 233.942 233.507 240.33 233.852 246.725C234.193 253.071 234.015 259.445 234.041 265.807C234.06 270.458 234.293 275.127 233.962 279.755C233.661 283.962 233.111 288.235 231.945 292.269C231.094 295.211 229.049 297.804 227.57 300.571C227.267 301.138 227.05 301.77 226.906 302.399C226.353 304.812 226.036 307.299 225.25 309.63C224.8 310.962 223.609 312.041 222.764 313.243C222.544 313.555 222.254 313.882 222.197 314.235C221.572 318.113 220.992 321.999 220.388 325.88C220.065 327.962 219.927 330.103 219.324 332.102C218.734 334.056 217.37 335.637 215.481 336.577C214.918 336.857 214.065 337.102 213.572 336.873C212.164 336.219 211.283 336.973 210.188 337.604C209.165 338.193 207.965 338.616 206.796 338.777C205.162 339.003 204.388 339.524 204.35 341.138C204.197 347.623 203.999 354.11 204.021 360.596C204.026 361.969 204.751 363.403 205.376 364.697C207.032 368.13 208.975 371.433 210.508 374.918C212.475 379.391 214.194 383.975 215.94 388.541C217.099 391.573 218.129 394.655 219.199 397.721C220.269 400.79 221.243 403.895 222.396 406.932C223.34 409.419 223.173 411.583 220.952 413.515L220.952 413.515ZM138.192 174.732C136.833 176.906 135.24 179.079 134.05 181.453C132.596 184.354 131.418 187.401 130.245 190.433C129.698 191.846 129.053 193.399 129.153 194.84C129.274 196.589 130.123 198.291 130.678 200.006C132.232 204.81 133.812 209.605 135.349 214.415C135.755 215.687 136.282 216.986 136.337 218.291C136.465 221.329 136.423 224.381 136.296 227.421C136.137 231.189 135.814 234.949 135.578 238.713C135.207 244.649 134.775 250.582 134.509 256.523C134.273 261.794 133.843 267.1 134.199 272.343C134.614 278.467 135.727 284.548 136.651 290.631C137.402 295.582 140.331 299.307 143.863 302.612C144.37 303.086 145.082 303.441 145.76 303.616C149.953 304.695 154.201 305.577 158.358 306.777C162.577 307.996 166.922 308.336 171.22 308.507C176.995 308.737 182.75 308.146 188.394 306.544C193.875 304.989 199.327 303.464 204.286 300.547C205.25 299.979 205.577 299.395 204.924 298.472C203.258 296.117 203.382 293.369 203.241 290.706C203 286.168 202.76 281.624 202.747 277.082C202.722 268.183 202.709 259.28 202.969 250.387C203.149 244.2 203.956 238.032 204.18 231.844C204.379 226.364 204.63 220.803 203.149 215.456C202.121 211.747 202.585 208.212 203.255 204.595C204.066 200.214 205.884 196.288 208.055 192.405C209.978 188.965 212.193 185.898 215.172 183.347C215.449 183.11 215.686 182.504 215.581 182.189C213.927 177.232 210.575 173.248 207.871 168.891C207.858 168.871 207.774 168.895 207.723 168.899C207.255 170.937 206.759 172.969 206.324 175.014C205.153 180.522 204.199 186.086 202.781 191.529C201.942 194.75 200.546 197.861 199.097 200.875C198.073 203.002 196.03 203.949 194.218 203.35C192.335 202.727 191.799 200.975 191.58 199.159C191.486 198.376 191.411 197.59 191.297 196.53C190.639 197.122 190.216 197.482 189.815 197.866C187.928 199.669 185.715 199.117 185.245 196.553C184.903 194.695 184.755 192.72 184.985 190.855C185.525 186.492 186.373 182.168 187.04 177.819C187.38 175.605 187.6 173.371 187.913 170.827C185.662 172.372 183.751 173.665 181.858 174.984C177.797 177.815 174.835 181.647 172.111 185.698C170.074 188.728 167.218 188.555 165.488 185.313C164.855 184.126 164.18 182.959 163.589 181.751C163.026 180.598 162.546 179.404 162.03 178.228C161.806 178.765 161.782 179.233 161.89 179.667C162.798 183.323 163.682 186.985 164.668 190.62C165.494 193.666 165.987 196.705 164.97 199.786C164.212 202.079 162.199 202.55 160.377 200.917C160.022 200.599 159.66 200.289 159.141 199.835C159.021 200.42 158.93 200.709 158.906 201.004C158.711 203.325 158.659 205.668 158.284 207.959C158.121 208.959 157.519 210.124 156.74 210.732C155.607 211.615 154.183 211.211 153.193 210.234C151.948 209.004 150.552 207.764 149.784 206.244C147.437 201.601 145.028 196.941 143.265 192.064C141.242 186.464 139.884 180.623 138.192 174.732L138.192 174.732ZM216.843 184.945C216.207 185.631 215.741 186.034 215.396 186.523C213.796 188.789 212.089 190.998 210.685 193.382C208.878 196.45 207.004 199.531 206.39 203.138C205.84 206.378 204.715 209.524 205.351 212.935C206.031 216.579 206.737 220.264 206.875 223.952C207.069 229.149 206.867 234.37 206.624 239.571C206.325 245.959 205.681 252.332 205.433 258.721C205.267 263.005 205.486 267.307 205.611 271.599C205.825 278.945 206.184 286.288 206.315 293.636C206.372 296.903 210.136 300.606 213.068 300.626C215.846 300.644 218.631 300.701 221.4 300.528C223.286 300.41 225.177 299.794 226.221 298.079C227.48 296.011 228.789 293.883 229.522 291.603C231.325 285.993 231.637 280.13 231.625 274.28C231.612 268.121 231.215 261.96 231.308 255.805C231.453 246.1 230.622 236.482 229.14 226.917C228.357 221.867 227.316 216.852 226.241 211.854C225.569 208.729 224.725 205.629 223.759 202.581C222.685 199.195 221.449 195.856 220.161 192.545C219.194 190.059 218.032 187.649 216.843 184.945V184.945ZM187.051 110.092C186.78 109.838 186.627 109.599 186.412 109.508C182.806 107.982 179.283 106.181 175.557 105.044C171.646 103.851 167.497 103.537 163.511 104.908C160.2 106.047 157 107.509 153.742 108.807C150.304 110.177 147.124 111.906 144.605 114.727C143.48 115.987 142.12 117.036 140.886 118.201C140.717 118.361 140.602 118.63 140.559 118.866C139.542 124.449 139.727 129.992 141.346 135.436C142.342 138.783 143.463 142.098 144.654 145.381C145.515 147.755 146.524 150.081 147.6 152.365C147.843 152.88 148.604 153.384 149.184 153.462C150.633 153.655 152.142 153.441 153.578 153.682C155.615 154.025 157.318 153.677 158.513 151.935C159.359 150.701 159.985 149.317 160.839 148.09C161.4 147.283 162.068 146.304 162.908 145.989C164.808 145.276 166.821 144.774 168.831 144.467C171.99 143.983 175.185 143.741 178.363 143.377C181.394 143.03 182.31 143.165 183.624 145.661C184.189 146.734 184.553 147.933 184.862 149.114C185.242 150.565 185.95 151.056 187.327 150.505C187.941 150.26 188.485 149.84 189.064 149.505C190.537 148.652 191.928 147.538 193.513 147.03C194.958 146.566 195.303 145.699 195.483 144.485C195.551 144.027 195.584 143.56 195.689 143.11C197.383 135.836 198.158 128.441 198.563 121.001C198.603 120.263 198.461 119.426 198.13 118.774C196.981 116.515 195.711 114.317 194.526 112.165C193.496 112.165 192.528 112.133 191.564 112.183C191.251 112.2 190.754 112.358 190.674 112.574C190.101 114.119 189.087 113.862 187.894 113.437C187.134 113.167 186.291 112.997 185.487 113.004C182.76 113.029 180.022 112.91 177.365 113.864C176.872 114.041 176.088 113.412 175.438 113.156C175.833 112.625 176.123 111.8 176.641 111.617C178.426 110.988 180.267 110.426 182.133 110.141C183.684 109.904 185.3 110.092 187.051 110.092L187.051 110.092ZM138.837 106.389C146.348 98.4349 155.59 94.2211 166.288 93.2084C177.16 92.1791 186.657 95.7859 195.212 102.424C195.913 100.927 196.468 99.5349 197.193 98.2379C198.699 95.5452 198.272 92.9868 196.876 90.433C195.021 87.041 193.31 83.5617 191.286 80.2746C190.224 78.5484 188.854 76.8318 187.226 75.6651C182.038 71.9472 176.161 69.6509 169.889 68.5658C167.92 68.2252 165.562 68.0959 163.817 68.8616C157.2 71.7648 150.713 74.9816 144.292 78.3025C142.822 79.0626 141.257 80.4944 140.689 81.9811C139.002 86.3975 137.774 90.9908 136.395 95.5237C135.163 99.5762 136.415 103.075 138.837 106.389L138.837 106.389ZM127.506 198.454C125.414 204.502 124.035 210.454 122.938 216.473C121.538 224.155 120.18 231.845 118.855 239.54C118.216 243.252 117.52 246.968 117.158 250.712C116.47 257.817 116.034 264.945 115.432 272.058C115.113 275.825 114.676 279.572 115.551 283.331C116.125 285.799 116.346 288.365 117.098 290.77C118.367 294.824 120.3 298.561 125.04 299.346C128.295 299.885 131.648 300.541 134.589 297.947C135.726 296.944 135.927 296.229 135.193 294.962C134.741 294.182 134.528 293.227 134.365 292.322C132.868 284.046 131.124 275.801 131.474 267.306C131.693 261.994 131.68 256.669 132.007 251.365C132.567 242.28 133.382 233.211 133.931 224.125C134.075 221.747 134.031 219.222 133.39 216.958C131.655 210.829 129.553 204.803 127.506 198.454V198.454ZM219.885 415.262C217.344 416.029 215.082 416.993 212.728 417.342C210.381 417.689 207.943 417.418 205.489 417.418C205.446 417.825 205.355 418.183 205.381 418.533C205.579 421.207 205.069 423.666 203.338 425.804C203.066 426.14 202.765 426.664 202.838 427.029C203.073 428.219 202.32 428.578 201.49 428.967C199.857 429.731 198.159 430.395 196.621 431.321C194.498 432.598 192.742 434.338 192.287 436.885C191.99 438.55 192.026 440.286 192.02 441.99C192.012 444.423 192.461 444.86 194.731 445.844C202.361 449.151 210.769 444.288 214.269 439.279C216.299 436.373 217.835 433.061 221.198 431.364C223.311 430.297 223.804 428.82 223.317 426.492C222.491 422.546 221.749 418.612 219.885 415.262V415.262ZM195.41 149.105C194.667 149.218 194.167 149.167 193.818 149.371C192.619 150.073 191.393 150.766 190.323 151.641C187.784 153.717 182.85 153.993 182.629 148.875C182.615 148.57 182.518 148.261 182.417 147.969C181.805 146.203 180.879 145.551 179.386 145.721C175.343 146.182 171.294 146.59 167.254 147.071C165.074 147.33 163.285 147.953 162.35 150.406C161.719 152.06 160.371 153.555 159.044 154.803C156.966 156.757 154.413 156.459 151.87 155.715C151.392 155.575 150.496 155.568 150.368 155.807C150.116 156.278 150.057 157.071 150.294 157.541C150.94 158.824 151.582 160.212 152.582 161.196C156.474 165.025 161.179 167.593 166.38 169.131C170.712 170.412 175.141 170.01 179.356 168.619C182.002 167.746 184.594 166.45 186.907 164.893C189.815 162.935 191.134 159.614 192.618 156.578C193.737 154.291 194.425 151.794 195.41 149.105V149.105ZM157.95 418.518C157.869 420.867 157.305 422.981 155.541 424.567C154.662 425.358 153.774 426.142 152.93 426.97C152.679 427.217 152.328 427.712 152.42 427.905C153.06 429.248 152.089 429.356 151.259 429.408C150.022 429.487 148.766 429.31 147.536 429.431C144.798 429.7 141.898 429.884 140.808 433.083C140.146 435.027 139.774 437.069 139.273 439.068C139.045 439.979 139.414 440.471 140.278 440.85C148.146 444.299 156.681 442.353 162.788 436.537C165.751 433.714 168.806 431.19 172.776 429.967C174.049 429.575 174.475 428.595 174.598 427.354C174.944 423.857 173.831 420.705 172.308 417.667C172.164 417.38 171.312 417.158 170.964 417.309C166.829 419.1 162.619 419.963 157.95 418.518V418.518ZM138.958 115.692L139.524 115.931C140.181 115.298 140.806 114.627 141.502 114.04C143.424 112.417 145.199 110.514 147.358 109.3C150.992 107.257 154.852 105.605 158.663 103.891C164.319 101.346 170.175 101.245 176.109 102.739C181.359 104.061 186.273 106.178 190.899 108.998C191.426 109.319 192.424 109.487 192.875 109.203C194.44 108.219 194.477 104.912 193.02 103.739C189.747 101.106 186.187 99.0417 182.208 97.5558C178.431 96.145 174.627 95.1072 170.618 95.0091C165.552 94.8852 160.671 95.7567 155.888 97.5886C150.341 99.7135 145.306 102.535 141.066 106.71C140.742 107.029 140.35 107.418 140.275 107.827C139.791 110.441 139.388 113.069 138.958 115.692V115.692ZM138.995 302.272C138.332 304.759 138.006 306.851 140.418 308.743C142.114 310.074 143.77 311.311 145.797 311.988C148.532 312.903 151.247 314.228 154.056 314.504C161.308 315.214 168.606 315.475 175.889 315.856C180 316.071 184.091 316.389 188.198 315.355C193.599 313.996 198.372 311.401 203.045 308.53C204.625 307.56 205.021 306.444 204.521 304.277C199.669 306.684 194.494 308.04 189.305 309.44C183.13 311.106 176.875 311.755 170.555 311.418C163.327 311.033 156.224 309.691 149.213 307.829C145.463 306.834 141.743 305.957 139.425 302.436C139.381 302.369 139.244 302.363 138.995 302.272V302.272ZM124.661 321.017C124.825 320.969 124.989 320.92 125.153 320.872C125.302 321.348 125.53 321.815 125.586 322.302C125.83 324.409 125.976 326.527 126.248 328.63C126.638 331.652 127.677 334.35 130.402 336.079C130.808 336.337 131.282 336.488 131.922 336.779C131.815 336.112 131.819 335.788 131.709 335.509C131.166 334.121 130.345 332.792 130.077 331.357C129.245 326.896 129.499 322.419 130.475 317.997C130.589 317.483 131.153 317.069 131.509 316.609C131.72 317.131 132.089 317.645 132.112 318.174C132.188 319.956 132.141 321.742 132.141 323.676C134.11 321.956 134.536 321.37 134.381 319.178C134.208 316.727 133.732 314.297 133.393 311.895C128.182 312.652 123.612 310.582 118.739 309.151C118.052 311.749 117.331 314.327 116.693 316.925C115.84 320.402 115.738 323.884 116.915 327.319C117.117 327.907 117.504 328.431 117.805 328.985C117.941 328.916 118.077 328.847 118.212 328.778C118.037 327.616 117.786 326.459 117.709 325.291C117.632 324.129 117.437 322.885 118.598 321.63C119.348 325.16 119.401 328.569 121.06 331.555C120.922 328.253 120.048 324.969 121.475 321.771C121.818 322.352 121.916 322.937 122.003 323.524C122.371 326.026 122.668 328.542 123.141 331.025C123.291 331.81 123.905 332.508 124.307 333.245C124.522 333.169 124.736 333.093 124.951 333.017C124.114 329.014 123.359 325.011 124.661 321.017L124.661 321.017ZM216.184 329.815L216.632 330.151C216.242 331.154 215.851 332.156 215.461 333.159C215.651 333.231 215.84 333.302 216.03 333.374C216.535 332.12 217.277 330.906 217.5 329.603C218.162 325.738 218.624 321.838 219.154 317.951C219.297 316.899 219.402 315.842 219.475 315.213C216.637 314.958 213.992 314.805 211.375 314.446C210.112 314.273 208.919 313.627 207.658 313.373C207.24 313.289 206.422 313.645 206.279 313.999C205.234 316.578 204.303 319.203 203.361 321.822C202.975 322.897 203.041 323.896 204.097 324.798C204.29 324.36 204.46 324.051 204.564 323.721C204.982 322.389 205.33 321.031 205.815 319.724C205.967 319.315 206.468 319.036 206.81 318.697C206.97 319.117 207.303 319.555 207.26 319.954C207.091 321.542 206.852 323.127 206.552 324.697C205.97 327.734 205.426 330.784 204.669 333.778C204.332 335.11 203.516 336.32 202.769 337.898C205.106 337.096 206.276 335.553 207.131 333.791C208.054 331.89 208.735 329.871 209.642 327.961C209.876 327.468 210.559 327.187 211.036 326.809C211.216 327.344 211.605 327.91 211.532 328.408C211.383 329.412 211.054 330.408 210.672 331.356C210.103 332.766 209.425 334.132 208.793 335.516C209.395 335.185 209.767 334.751 210.037 334.26C210.684 333.086 211.161 331.8 211.929 330.717C212.968 329.253 213.511 329.341 214.341 330.784C214.956 330.46 215.57 330.137 216.184 329.814V329.815ZM168.939 185.336C173.102 179.384 177.551 174.055 183.569 170.221C176.242 172.646 169.014 173.628 161.564 170.679C163.503 175.737 165.293 180.7 168.939 185.336V185.336ZM224.096 303.054C223.696 302.929 223.598 302.866 223.507 302.875C218.59 303.38 213.661 304.245 208.867 302.097C208.609 301.982 207.671 302.571 207.646 302.882C207.474 304.992 207.423 307.116 207.432 309.236C207.433 309.654 207.772 310.336 208.105 310.448C211.485 311.586 214.902 312.931 218.509 311.579C219.847 311.077 221.515 310.388 222.135 309.281C223.163 307.446 223.464 305.204 224.096 303.054L224.096 303.054ZM118.495 299.661C118.608 301.645 118.63 303.242 118.83 304.816C118.891 305.296 119.345 305.93 119.784 306.126C123.579 307.829 127.536 309.064 131.728 308.946C132.86 308.914 134.599 308.194 134.954 307.334C135.781 305.327 135.936 303.044 136.391 300.738C130.116 304.236 124.42 302.889 118.495 299.661V299.661ZM140.211 139.986C140.115 139.226 140.168 138.713 139.981 138.311C138.331 134.752 138.262 130.896 137.773 127.113C137.702 126.561 137.235 125.644 136.906 125.624C136.124 125.576 134.85 125.733 134.608 126.221C133.973 127.499 133.258 129.11 133.53 130.385C134.049 132.813 135.057 135.19 136.205 137.412C136.914 138.785 138.324 139.719 140.211 139.986V139.986ZM199.928 134.439C200.982 133.725 201.732 133.27 202.423 132.738C205.68 130.238 206.699 126.46 205.22 122.819C204.831 121.86 204.305 121.216 203.285 121.558C202.206 121.92 200.779 121.876 200.727 123.703C200.658 126.119 200.338 128.528 200.142 130.942C200.056 131.996 200.011 133.054 199.928 134.439L199.928 134.439Z" fill="black"/>
<path d="M178.113 254.224C173.807 255.962 169.387 257.096 164.745 257.237C160.178 257.375 155.652 257.161 151.225 255.571C150.652 257.778 150.162 259.862 149.568 261.917C148.096 267.016 146.155 271.899 142.696 276.031C142.169 276.661 141.562 277.237 140.927 277.758C140.695 277.948 140.272 277.906 139.936 277.97C139.869 277.596 139.71 277.21 139.762 276.853C139.811 276.521 140.061 276.207 140.259 275.909C143.464 271.078 145.731 265.832 147.186 260.233C147.665 258.39 148.047 256.521 148.461 254.662C148.83 253.002 149.568 252.559 151.248 252.899C154.224 253.501 157.186 254.335 160.193 254.58C166.514 255.095 172.618 254.024 178.334 251.143C179.853 250.377 181.067 251.045 180.964 252.743C180.786 255.686 181.954 258.127 183.79 260.23C186.496 263.33 188.788 266.805 192.211 269.275C193.422 270.149 193.961 271.564 193.866 273.254C193.58 278.309 193.504 283.376 193.261 288.434C193.057 292.676 191.452 293.84 187.384 294.849C180.529 296.55 173.546 296.551 166.547 295.857C162.02 295.409 157.454 295.219 152.969 294.511C149.992 294.041 147.048 293.057 144.238 291.932C141.986 291.032 139.786 285.861 140.36 283.515C140.476 283.043 141.143 282.335 141.486 282.373C142.03 282.434 142.704 282.925 142.979 283.424C143.392 284.174 143.532 285.082 143.746 285.934C144.492 288.899 145.533 289.836 148.622 290.324C152.755 290.976 156.868 291.79 161.02 292.269C168.86 293.175 176.727 293.932 184.588 292.447C186.055 292.17 187.526 291.747 188.884 291.143C189.448 290.893 190.028 290.013 190.076 289.381C190.357 285.619 190.481 281.846 190.665 278.076C190.732 276.684 190.679 275.268 190.93 273.909C191.214 272.37 190.385 271.533 189.437 270.611C187.854 269.072 186.251 267.54 184.819 265.865C182.645 263.324 180.3 260.872 179.133 257.633C178.751 256.573 178.483 255.473 178.113 254.224V254.224Z" fill="black"/>
<path d="M156.203 126.918C154.643 127.292 152.724 127.649 150.877 128.235C149.766 128.587 148.798 128.81 147.832 128.011C146.809 127.165 146.741 126.065 147.072 124.908C147.724 122.63 149.52 121.278 151.448 120.335C153.924 119.123 156.661 118.7 159.447 119.076C161.328 119.33 163.362 121.502 163.218 123.358C163.155 124.165 162.617 125.233 161.96 125.636C160.361 126.615 158.699 127.77 156.203 126.918L156.203 126.918ZM157.3 124.807C158.175 124.645 159.139 124.513 160.077 124.278C161.1 124.022 161.185 123.41 160.636 122.567C159.855 121.368 158.26 120.715 157.054 121.029C157.134 122.254 157.211 123.442 157.3 124.807V124.807ZM152.338 125.099C152.107 124.603 151.859 124.197 151.731 123.756C151.591 123.274 151.561 122.76 151.483 122.252C150.027 122.72 148.787 124.122 148.689 125.454C148.665 125.779 148.746 126.243 148.961 126.416C149.154 126.571 149.641 126.506 149.924 126.376C150.716 126.013 151.471 125.566 152.337 125.099H152.338Z" fill="black"/>
<path d="M187.525 124.778C184.451 124.778 181.377 124.814 178.304 124.763C176.736 124.737 175.563 123.224 176.026 121.599C176.333 120.52 176.917 119.211 177.79 118.656C181.431 116.346 185.313 115.281 189.454 117.543C191.361 118.584 192.385 120.783 191.891 122.852C191.523 124.394 189.943 125.228 187.528 125.154L187.525 124.778V124.778ZM185.272 122.835C186.174 122.835 187.283 122.908 188.377 122.814C189.462 122.72 189.834 121.987 189.7 120.94C189.53 119.624 187.95 118.622 186.226 118.578C185.913 119.974 185.614 121.31 185.272 122.835L185.272 122.835ZM181.175 122.404C180.956 121.171 180.75 120.01 180.528 118.76C179.507 119.616 177.319 119.686 177.863 121.698C178.389 123.643 180.068 122.302 181.175 122.404Z" fill="black"/>
<path d="M178.759 137.101C177.691 136.52 177.002 136.153 176.321 135.772C175.842 135.504 175.225 135.323 174.934 134.915C174.386 134.147 174.673 133.418 175.649 133.416C177.544 133.412 179.221 134.048 180.308 135.717C181.103 136.937 180.719 138.061 179.664 138.859C178.985 139.373 178.117 139.834 177.294 139.916C175.814 140.064 174.726 140.686 173.663 141.681C172.099 143.145 171.07 143.009 169.212 141.995C168.353 141.527 167.188 141.587 166.154 141.492C165.824 141.461 165.475 141.725 165.125 141.813C163.886 142.126 162.381 142.423 161.749 141.193C161.353 140.422 161.745 139.013 162.202 138.099C162.74 137.024 163.676 136.12 164.553 135.258C164.868 134.949 165.516 134.979 166.011 134.854C165.909 135.312 165.908 135.827 165.686 136.216C165.128 137.196 164.458 138.111 163.862 139.07C163.744 139.261 163.753 139.532 163.656 139.987C164.468 139.745 165.093 139.562 165.717 139.372C167.488 138.835 169.217 138.779 170.69 140.087C171.51 140.814 172.104 140.25 172.556 139.79C173.708 138.62 175.002 137.981 176.669 137.963C177.217 137.958 177.761 137.53 178.758 137.101L178.759 137.101Z" fill="black"/>
<path d="M161.828 114.65C161.232 114.944 160.666 115.36 160.037 115.51C157.128 116.205 154.186 116.766 151.292 117.513C150.454 117.73 149.762 118.462 148.954 118.858C147.954 119.347 146.91 119.758 145.852 120.1C145.785 120.122 145.132 119.136 145.258 118.824C146.526 115.69 151.126 112.94 154.623 113.075C156.533 113.149 158.449 113.094 160.353 113.228C160.871 113.264 161.355 113.773 161.855 114.066C161.846 114.26 161.837 114.455 161.827 114.65L161.828 114.65Z" fill="black"/>
<path d="M166.513 114.641C166.682 115.024 166.946 115.394 167.006 115.794C167.633 119.981 168.269 124.167 168.81 128.366C169.041 130.152 169.148 131.969 169.115 133.768C169.103 134.426 168.521 135.072 168.199 135.724C167.764 135.107 167.023 134.526 166.947 133.868C166.594 130.791 166.42 127.694 166.191 124.603C165.985 121.823 165.762 119.042 165.615 116.258C165.587 115.732 165.88 115.189 166.026 114.653L166.513 114.641H166.513Z" fill="black"/>
<path d="M171.978 158.564C168.993 158.199 166.768 156.792 164.943 154.744C164.731 154.507 164.924 153.607 165.222 153.279C165.936 152.492 166.759 151.756 167.662 151.204C168.296 150.817 169.126 150.713 169.885 150.578C170.841 150.407 171.921 150.556 172.754 150.16C173.834 149.645 174.586 149.692 175.589 150.329C176.631 150.992 177.848 151.43 179.041 151.793C180.369 152.197 180.796 153.108 179.893 154.167C177.769 156.659 175.048 158.085 171.978 158.564V158.564ZM167.207 154.431C170.823 157.161 173.349 156.993 176.578 153.833C175.309 152.619 173.974 151.918 172.212 152.958C171.766 153.222 170.979 153.383 170.577 153.167C168.951 152.294 168.162 153.392 167.207 154.431Z" fill="black"/>
</svg>
