<svg width="325" height="462" viewBox="0 0 325 462" fill="none" xmlns="http://www.w3.org/2000/svg">
<path d="M216.16 330.62C215.437 333.596 214.642 336.556 214.005 339.55C212.705 345.663 211.456 351.787 210.259 357.921C209.822 360.164 209.558 362.444 209.288 364.716C209.225 365.25 209.326 365.891 209.577 366.362C210.924 368.884 212.265 371.416 213.756 373.854C215.743 377.103 216.721 380.685 217.694 384.313C218.607 387.721 219.821 391.048 220.933 394.401C221.878 397.253 222.866 400.091 223.833 402.936C225.32 407.313 226.804 411.691 228.291 416.068C228.358 416.266 228.415 416.473 228.519 416.651C229.398 418.138 229.344 419.352 228.359 420.292C229.523 424.345 230.629 428.242 231.763 432.13C232.374 434.225 230.505 436.424 228.356 437.406C227.842 437.641 227.28 437.776 226.732 437.929C224.646 438.511 223.4 439.659 222.669 441.901C221.898 444.268 219.943 446.051 217.568 447.071C215.146 448.111 212.697 449.119 210.188 449.918C205.513 451.407 200.697 452.436 195.965 450.458C194.041 449.655 192.267 448.151 190.873 446.57C190.202 445.808 190.32 444.09 190.51 442.872C191.257 438.078 193.623 434.298 198.073 432.099C200.536 430.882 203.097 429.863 205.313 428.887C205.598 426.783 205.857 424.95 206.084 423.114C206.119 422.828 206.119 422.43 205.954 422.244C203.771 419.77 202.827 416.68 201.815 413.668C199.665 407.267 197.542 400.893 194.44 394.837C191.836 389.752 189.855 384.347 187.629 379.071C186.728 376.935 185.959 374.742 185.041 372.613C183.464 368.958 183.882 365.158 184.177 361.381C184.543 356.706 185 352.038 185.467 347.372C186.275 339.296 187.429 331.272 189.233 323.351C189.598 321.746 189.955 320.14 190.345 318.408C188.062 318.606 185.768 318.838 183.468 318.993C182.075 319.087 180.674 319.044 179.278 319.097C178.327 319.133 177.681 319.188 177.471 320.578C177.008 323.65 176.297 326.715 175.358 329.679C173.443 335.722 171.305 341.694 169.27 347.699C168.007 351.426 166.771 355.162 165.506 358.889C165.292 359.519 165.014 360.131 164.726 360.733C163.536 363.223 163.935 365.483 164.899 368.082C166.222 371.645 166.706 375.516 167.59 379.245C168.692 383.894 169.757 388.553 170.982 393.17C172.349 398.328 173.831 403.457 175.355 408.571C176.112 411.108 177.061 413.588 177.952 416.084C178.494 417.604 178.294 418.796 176.791 419.7C176.527 419.858 176.473 420.778 176.655 421.203C178.25 424.926 178.895 428.864 179.365 432.838C179.564 434.523 178.854 435.894 177.269 436.488C174.861 437.39 172.393 438.145 169.917 438.844C168.747 439.174 168.081 439.833 167.291 440.761C165.551 442.802 163.666 444.913 161.407 446.275C156.732 449.094 151.556 450.263 146.103 448.862C144.624 448.482 143.248 447.684 141.848 447.027C141.335 446.786 140.887 446.403 140.415 446.075C139.73 445.599 138.613 445.224 138.461 444.611C138.169 443.432 138.149 442.031 138.51 440.877C139.247 438.518 140.006 436.061 141.335 434.023C142.441 432.328 144.207 430.884 145.984 429.854C148.229 428.552 150.826 428.097 153.497 428.152C155.518 428.193 158.368 424.081 157.716 422.159C157.513 421.56 156.867 421.126 156.564 420.543C153.727 415.086 151.559 409.382 149.9 403.446C148.828 399.61 147.106 395.96 145.923 392.149C144.618 387.945 143.45 383.685 142.486 379.389C141.334 374.26 140.251 369.095 139.556 363.89C139.187 361.122 139.347 358.168 139.883 355.418C141.451 347.369 143.113 339.326 145.155 331.387C146.63 325.654 148.756 320.087 150.634 314.46C150.872 313.746 150.939 313.299 150.489 312.547C150 311.73 149.792 310.494 149.996 309.557C150.806 305.826 149.84 303.054 147.071 300.206C143.923 296.969 143.673 292.387 143.876 287.971C144.199 280.967 144.475 273.96 144.912 266.963C145.44 258.502 146.228 250.056 146.686 241.592C147.022 235.403 147.07 229.195 147.121 222.995C147.147 219.758 146.971 216.514 146.737 213.285C146.676 212.447 146.095 211.625 145.675 210.839C144.419 208.489 142.087 207.905 139.767 207.373C133.981 206.046 128.234 204.449 122.38 203.565C118.455 202.972 114.573 202.326 110.746 201.309C106.167 200.092 102.043 198.034 98.1307 195.3C93.3537 191.963 89.2771 187.915 85.3662 183.7C81.0557 179.054 77.6185 173.729 74.8432 168.035C73.0918 164.441 71.5305 160.733 70.2125 156.961C69.7247 155.565 70.1773 153.841 70.1994 152.266C70.2076 151.687 70.3651 151.055 70.1897 150.537C69.5575 148.669 68.6651 146.878 68.1651 144.981C67.8647 143.841 68.11 142.557 68.11 141.452C66.3862 140.191 64.6699 138.86 62.8693 137.655C62.1139 137.149 61.1737 136.925 60.3291 136.546C59.7172 136.272 59.0711 136.03 58.5329 135.644C56.6198 134.272 56.6279 132.593 58.5244 131.022C57.3512 129.306 57.169 127.588 58.5481 125.87C58.6921 125.69 58.8365 125.372 58.7749 125.188C58.0626 123.053 59.2183 121.949 60.9419 121.127C61.1149 121.044 61.2402 120.862 61.6348 120.498C59.2691 119.608 57.0731 118.839 54.9259 117.953C53.794 117.485 52.5928 116.986 51.6987 116.191C50.4574 115.087 50.9428 113.497 52.5803 113.334C56.8648 112.907 61.1059 113.177 64.9617 115.358C66.9124 116.462 68.7314 117.798 70.6151 119.021C71.932 119.876 73.2515 120.492 74.9542 120.381C77.6485 120.206 78.4119 121.046 79.3118 123.63C80.2438 126.305 80.5906 128.975 80.0601 131.724C80.2132 131.814 80.3106 131.921 80.387 131.908C83.1088 131.434 84.5144 132.965 85.5058 135.202C85.8416 135.96 86.3654 136.633 86.7185 137.385C87.3918 138.818 88.4435 139.635 90.0441 139.83C90.513 139.887 91.0763 140.208 91.3582 140.585C92.6686 142.341 94.1477 144.033 95.1074 145.976C98.8797 153.61 103.824 160.444 109.257 166.925C110.765 168.725 112.747 170.304 114.822 171.391C116.331 172.181 118.356 172.241 120.14 172.194C124.301 172.086 128.467 171.833 132.61 171.421C136.645 171.021 140.641 170.215 144.677 169.843C147.702 169.564 150.764 169.679 153.81 169.644C154.533 169.635 155.256 169.727 156.067 169.778C155.057 167.689 154.133 165.69 153.134 163.728C149.963 157.504 148.286 150.759 146.329 144.118C145.307 140.65 145.108 137.078 145.666 133.467C145.781 132.724 145.526 131.867 145.25 131.134C144.704 129.686 144.415 128.319 144.882 126.735C145.218 125.596 145.015 124.303 145.099 123.082C145.255 120.809 145.446 118.539 145.666 115.699C143.658 117.144 142.001 118.312 140.372 119.516C138.79 120.686 137.228 121.882 135.675 123.089C134.789 123.776 133.819 123.556 133.324 122.843C132.91 122.248 132.688 121.049 133.014 120.486C135.149 116.807 137.126 112.956 139.812 109.704C141.984 107.074 142.803 104.75 142.341 101.304C141.425 94.4717 143.899 88.6192 149.118 84.0586C153.021 80.6466 156.968 77.2789 160.99 74.0083C165.129 70.6431 170.035 69.6273 175.214 70.1154C180.241 70.5891 185.283 71.1291 190.232 72.087C192.886 72.6007 195.406 73.9531 197.898 75.1166C199.962 76.0804 202.076 77.0979 203.839 78.5038C205.594 79.9035 207.185 81.656 208.418 83.5357C211.701 88.5377 213.125 94.2559 214.363 100.041C214.673 101.489 215.414 102.998 216.372 104.127C220.508 108.999 222.08 114.685 222.624 120.928C223.024 125.528 223.979 130.095 224.932 134.625C225.736 138.45 225.862 142.244 225.473 146.104C225.312 147.699 225.434 149.321 225.307 150.922C224.79 157.428 222.165 163.062 217.965 167.969C216.947 169.158 217.117 169.843 218.057 170.985C221.222 174.832 224.051 178.863 225.777 183.664C226.69 186.204 228.551 188.397 229.924 190.782C230.702 192.134 231.379 193.547 232.062 194.952C234.352 199.66 236.791 204.305 238.846 209.114C240.349 212.63 241.434 216.336 242.532 220.01C243.949 224.75 245.352 229.505 246.465 234.322C247.521 238.889 248.238 243.537 249.025 248.163C249.556 251.288 250.338 254.439 250.311 257.573C250.274 261.818 249.713 266.078 249.115 270.294C248.304 276.02 247.487 281.765 246.217 287.399C245.181 291.992 243.499 296.44 242.045 300.934C241.827 301.606 241.428 302.48 240.871 302.737C237.974 304.078 238.275 306.943 237.542 309.31C237.128 310.65 237.014 312.139 236.351 313.33C235.82 314.284 234.638 314.863 233.799 315.665C233.421 316.027 232.948 316.507 232.905 316.97C232.529 320.963 232.195 324.962 231.941 328.964C231.734 332.228 230.672 335.185 228.917 337.892C228.554 338.451 227.79 338.751 227.206 339.162C226.918 339.364 226.479 339.479 226.345 339.75C225.169 342.132 222.705 342.287 220.64 343.143C220.009 343.404 219.381 343.732 218.846 344.149C217.92 344.872 217.072 345.594 215.796 344.866C214.553 344.158 214.604 343.187 214.816 341.93C215.447 338.188 215.915 334.418 216.446 330.659L216.16 330.62V330.62ZM226.669 190.788C222.82 184.48 219.892 177.62 215.035 171.637C214.431 172.717 213.806 173.569 213.445 174.52C211.224 180.383 210.446 186.557 209.996 192.737C209.643 197.59 208.977 202.261 206.275 206.414C205.567 207.501 204.424 208.027 203.155 207.647C201.106 207.035 199.74 205.515 199.335 203.499C198.845 201.062 198.756 198.544 198.501 196.06C198.421 195.29 198.364 194.519 198.296 193.748L197.871 193.75C197.52 195.088 197.235 196.448 196.804 197.759C196.154 199.731 194.881 200.302 193.223 199.097C192.102 198.282 191.04 197.073 190.513 195.807C187.936 189.614 187.921 183.154 188.954 176.639C189.278 174.594 189.651 172.558 190.002 170.517C187.592 172.93 185.617 175.635 183.264 177.957C180.378 180.803 178.592 184.278 176.79 187.781C176.26 188.81 175.918 190.21 174.582 190.116C173.123 190.013 172.826 188.533 172.459 187.331C172.43 187.234 172.465 187.117 172.434 187.02C171.913 185.383 171.386 183.747 170.861 182.111L170.397 182.208C170.369 182.698 170.333 183.187 170.315 183.677C170.189 187.064 170.135 190.456 169.924 193.838C169.731 196.929 168.656 197.81 165.577 197.695C165.286 199.068 164.949 200.436 164.714 201.821C164.486 203.172 163.841 204.229 162.543 204.628C161.07 205.082 159.952 204.157 159.301 203.044C158.188 201.141 157.126 199.158 156.416 197.08C154.637 191.876 154.548 186.457 154.848 181.025C154.971 178.801 155.126 176.578 155.266 174.355L154.789 174.164C153.443 176.168 151.721 178.024 150.852 180.217C149.909 182.6 149.379 185.29 149.333 187.858C149.199 195.34 149.198 202.837 149.527 210.311C149.789 216.28 150.721 222.198 150.283 228.222C149.684 236.452 149.411 244.706 148.951 252.947C148.654 258.262 148.242 263.57 147.937 268.884C147.512 276.271 146.939 283.657 146.833 291.049C146.785 294.42 147.872 297.742 150.676 300.098C154.462 303.279 158.973 305.151 163.675 306.157C167.601 306.998 171.729 306.943 175.775 307.156C179.154 307.334 182.601 307.757 185.916 307.311C193.225 306.327 200.693 305.847 207.593 302.912C211.076 301.431 214.391 299.547 217.757 297.798C218.501 297.412 218.572 296.79 218.225 295.946C217.803 294.916 217.394 293.765 217.436 292.684C217.548 289.825 217.715 286.943 218.205 284.129C219.49 276.751 221.677 269.525 221.937 261.977C222.023 259.484 222.087 256.975 221.915 254.491C221.621 250.23 220.039 246.332 218.236 242.503C216.883 239.632 215.726 236.67 214.411 233.781C213.601 232 212.548 230.324 211.801 228.52C210.795 226.091 209.432 224.041 207.094 222.707C206.376 222.298 205.703 221.752 205.145 221.144C204.815 220.784 204.75 220.181 204.566 219.687C205.065 219.587 205.571 219.378 206.061 219.412C206.775 219.461 207.477 219.685 208.286 219.856C207.116 205.612 214.108 196.597 226.669 190.788L226.669 190.788ZM219.789 290.794C219.908 292.536 220.307 294.018 221.419 295.339C222.453 296.566 223.541 297.791 224.329 299.173C225.275 300.83 226.731 301.382 228.412 301.632C230.264 301.907 232.127 302.105 233.988 302.319C236.217 302.576 239.164 301.004 239.913 298.906C241.079 295.638 242.177 292.333 243.057 288.978C243.763 286.283 244.188 283.503 244.588 280.739C245.593 273.803 247.111 266.933 247.336 259.894C247.369 258.857 247.546 257.795 247.386 256.787C246.454 250.891 245.602 244.974 244.403 239.13C243.455 234.504 242.064 229.968 240.837 225.401C239.865 221.785 238.956 218.145 237.802 214.586C237.006 212.13 235.866 209.784 234.831 207.409C233.899 205.271 232.979 203.12 231.907 201.051C231.168 199.626 230.105 198.373 229.321 196.968C228.104 194.786 227.392 194.251 225.191 195.022C221.005 196.49 217.107 198.676 214.9 202.63C213.175 205.722 211.865 209.152 211.016 212.591C210.365 215.232 209.803 218.017 211.613 220.853C213.881 224.406 215.557 228.347 217.363 232.181C218.937 235.523 220.188 239.022 221.848 242.318C224.058 246.706 225.015 251.382 225.188 256.182C225.419 262.564 224.106 268.819 222.921 275.059C221.924 280.313 220.837 285.55 219.789 290.794H219.789ZM153.256 172.364C149.838 172.364 146.465 172.146 143.133 172.425C139.791 172.704 136.51 173.681 133.169 173.987C129.077 174.361 124.943 174.263 120.838 174.536C115.559 174.887 111.316 172.957 107.785 169.134C102.946 163.896 98.8687 158.115 95.2377 151.99C93.5433 149.131 91.7058 146.351 89.7979 143.63C89.2427 142.838 88.3086 142.094 87.3974 141.807C82.9169 140.396 78.2193 143.165 76.0962 146.651C75.0726 148.331 74.3753 150.214 73.3203 151.871C72.3714 153.362 72.0872 154.889 72.6195 156.475C73.2285 158.29 74.0884 160.02 74.8247 161.793C77.2525 167.638 80.6844 172.928 84.41 177.965C88.4325 183.404 93.3472 188.067 98.7057 192.24C102.339 195.07 106.25 197.369 110.757 198.378C118.584 200.131 126.464 201.647 134.291 203.399C138.408 204.321 142.857 204.376 146.165 207.522C146.165 202.564 146.043 197.657 146.198 192.758C146.366 187.459 147.783 182.378 149.791 177.513C150.542 175.692 152.013 174.169 153.256 172.363V172.364ZM147.529 117.787C149.637 117.787 151.792 117.485 153.808 117.883C155.401 118.198 157.302 118.42 157.819 120.878C159.043 126.7 160.323 132.489 159.976 138.489C159.943 139.064 159.852 139.815 159.484 140.131C159.21 140.365 158.446 140.028 157.63 139.905C157.329 140.693 156.959 141.662 156.427 143.053C158.732 142.009 160.357 142.423 161.686 144.505C162.783 141.32 165.249 141.878 167.758 141.805C167.354 141.119 167.141 140.62 166.806 140.225C166.474 139.834 165.918 139.612 165.646 139.195C165.399 138.816 165.23 138.223 165.351 137.822C165.435 137.541 166.134 137.188 166.437 137.278C167.28 137.527 168.159 137.864 168.845 138.396C170.475 139.66 170.614 141.449 169.964 143.22C169.331 144.945 167.63 144.337 166.316 144.62C165.482 144.799 164.576 145.211 163.975 145.798C162.635 147.108 160.802 147.575 159.688 146.359C158.733 145.318 157.762 145.233 156.518 145.287C154.959 145.354 154.127 144.264 154.559 142.73C154.918 141.456 155.256 140.043 156.05 139.049C158.422 136.076 157.992 132.942 157.067 129.337C155.688 131.702 153.531 131.767 151.467 131.88C147.921 132.075 147.916 132.017 147.467 135.459C147.434 135.715 147.468 135.979 147.461 136.24C147.284 142.686 150.239 148.449 151.215 154.4C152.208 154.732 152.915 155.111 153.646 155.165C154.164 155.204 154.821 154.919 155.213 154.559C155.49 154.304 155.429 153.68 155.517 153.221C155.939 151.032 157.277 149.534 158.78 149.613C162.842 149.828 166.839 149.588 170.816 148.555C171.887 148.276 173.672 148.614 174.344 149.369C175.864 151.079 177.204 153.101 178.046 155.223C179.091 157.857 180.787 157.47 182.46 156.572C183.263 156.141 183.858 155.335 184.59 154.754C186.082 153.572 187.466 152.137 189.148 151.344C191.143 150.405 193.411 149.954 195.434 151.777C195.655 151.369 195.858 151.07 195.988 150.741C197.082 147.993 198.155 145.236 199.25 142.488C199.75 141.231 200.58 140.719 201.974 141.176C203.051 141.529 204.045 141.451 204.868 140.387C208.223 136.051 209.021 131.038 208.624 125.793C208.423 123.138 205.471 122.134 203.291 123.708C201.969 124.663 201.455 126.037 200.927 127.466C200.379 128.95 198.741 129.362 197.86 128.17C197.006 127.015 196.22 125.724 195.774 124.37C194.364 120.09 193.691 115.455 189.76 112.483C188.964 111.881 187.682 110.948 187.101 111.213C185.152 112.102 183.42 113.465 181.745 114.555C182.824 115.157 183.994 115.625 184.925 116.386C185.736 117.049 185.773 117.889 184.392 118.033C183.897 118.084 183.384 118.104 182.895 118.033C179.412 117.524 175.968 117.596 172.576 118.627C171.374 118.992 170.174 119.364 168.883 119.761C168.206 116.331 171.004 116.409 172.749 115.279C169.347 114.58 166.182 113.736 162.962 113.315C158.738 112.763 154.539 113.42 150.37 114.197C147.234 114.781 147.188 114.785 147.529 117.787V117.787ZM144.569 104.068C145.661 103.19 146.39 102.546 147.177 101.982C151.258 99.0567 155.806 97.0789 160.738 96.3827C164.416 95.8635 168.244 95.5851 171.913 96.005C178.08 96.7108 183.985 98.6731 189.748 101.045C191.891 101.927 194.238 102.922 196.465 102.861C200.805 102.742 205.136 101.979 209.45 101.343C210.922 101.126 211.576 99.702 211.156 98.2803C210.861 97.2811 210.534 96.2909 210.249 95.289C209.495 92.6417 209.094 89.8314 207.943 87.3715C205.085 81.2634 199.687 77.9864 193.589 75.8998C187.017 73.651 180.196 72.4959 173.236 72.3077C170.586 72.236 167.973 72.3054 165.618 73.8645C159.161 78.1394 153.297 83.1123 148.001 88.7509C146.458 90.3944 145.24 92.2691 145.104 94.6385C144.931 97.6421 144.763 100.646 144.569 104.068V104.068ZM208.464 423.511C208.919 425.008 207.595 426.638 209.435 427.713C209.583 427.799 209.47 428.889 209.202 429.049C206.278 430.792 203.383 432.621 200.305 434.049C198.562 434.856 197.071 435.683 195.853 437.223C194.026 439.534 193.743 442.289 193.08 444.99C195.214 446.334 197.187 447.836 199.835 448C202.643 448.173 205.45 448.447 208.131 447.359C210.967 446.209 213.837 445.097 216.536 443.673C217.796 443.008 218.729 441.683 219.737 440.589C220.84 439.391 221.719 437.946 222.955 436.921C224.249 435.847 225.887 435.198 227.298 434.249C227.812 433.904 228.52 433.145 228.433 432.721C227.66 428.978 226.728 425.268 225.843 421.546C215.307 424.307 212.913 424.587 208.464 423.511H208.464ZM135.027 120.158L135.343 120.391C137.406 118.785 139.466 117.176 141.532 115.573C146.359 111.827 152.078 110.541 157.934 110.432C161.812 110.36 165.713 111.407 169.599 111.985C172.9 112.475 176.225 112.934 179.501 112.076C184.244 110.835 187.307 106.861 191.891 104.524C187.12 102.925 183.094 100.872 178.65 99.6102C171.727 97.6441 164.981 97.579 158.144 99.2988C153.991 100.344 149.814 101.734 146.664 104.695C143.883 107.309 141.596 110.478 139.274 113.54C137.695 115.622 136.431 117.944 135.027 120.158V120.158ZM158.283 428.449C158.864 429.081 159.971 429.782 159.889 430.294C159.7 431.49 158.499 431.489 157.469 431.277C156.45 431.066 155.455 430.701 154.428 430.565C150.457 430.038 146.756 431.205 144.561 434.362C142.825 436.859 142.312 440.217 141.339 443.219C141.246 443.508 141.648 444.196 141.981 444.349C145.807 446.105 149.813 446.755 153.981 445.98C159.199 445.01 162.912 441.608 166.573 438.113C167.341 437.38 168.216 436.643 169.181 436.259C171.056 435.513 173.034 435.03 174.96 434.411C175.896 434.11 176.672 433.722 176.456 432.436C176.062 430.1 175.816 427.739 175.445 425.399C175.214 423.944 174.867 422.508 174.529 420.847C169.746 423.295 164.908 422.366 160.462 422.519C159.687 424.629 158.949 426.638 158.283 428.449H158.283ZM152.781 157.72C155.082 162.286 156.145 167.236 160.101 170.546C160.728 171.071 161.527 171.589 162.306 171.702C168.528 172.606 174.47 171.722 180.286 169.207C183.891 167.648 187.245 166.028 189.412 162.566C191.107 159.858 193.361 157.471 194.187 153.801C193.211 153.639 192.22 153.235 191.31 153.372C189.292 153.675 187.605 154.76 186.406 156.425C185.321 157.931 183.929 159.115 182.183 159.447C178.945 160.062 177.17 159.68 175.987 156.657C175.274 154.836 174.251 153.113 173.176 151.471C172.863 150.994 171.774 150.59 171.239 150.763C167.655 151.919 163.991 152.112 160.285 151.953C157.945 151.852 157.83 151.911 157.572 154.318C157.291 156.949 155.678 158.202 152.781 157.721V157.72ZM219.097 301.341C218.666 301.311 218.551 301.271 218.462 301.303C218.171 301.406 217.871 301.504 217.606 301.659C213.562 304.019 209.393 306.109 204.854 307.348C197.996 309.222 190.971 310.182 183.904 310.583C179.721 310.821 175.5 310.341 171.295 310.23C167.528 310.131 163.829 309.731 160.327 308.208C157.915 307.159 155.495 306.127 152.873 304.999C152.873 306.798 152.814 308.638 152.922 310.467C152.943 310.839 153.528 311.316 153.958 311.501C155.192 312.03 156.493 312.4 157.744 312.891C163.818 315.277 170.158 316.128 176.635 316.231C185.035 316.364 193.194 314.619 201.337 312.907C205.657 311.999 209.921 310.749 214.12 309.376C215.458 308.939 217.415 308.961 217.908 307.074C218.39 305.225 218.693 303.329 219.097 301.341L219.097 301.341ZM216.891 341.939C217.012 341.993 217.134 342.047 217.256 342.101C217.629 341.437 218.113 340.81 218.354 340.101C219.038 338.092 219.655 336.058 220.236 334.016C220.677 332.463 220.983 330.87 221.44 329.322C221.551 328.943 222.017 328.669 222.32 328.346C222.652 328.712 223.219 329.048 223.269 329.449C223.389 330.408 223.405 331.427 223.211 332.37C222.78 334.477 222.195 336.554 221.672 338.642C222.222 338.209 222.636 337.681 222.814 337.082C223.291 335.487 223.605 333.842 224.11 332.258C224.324 331.589 224.853 331.021 225.374 330.193C227.37 332.353 225.569 334.317 225.889 336.283C227.033 333.942 227.245 331.163 229.404 329.108L230.13 330.723L230.552 330.716C230.851 325.901 231.151 321.086 231.464 316.053C227.023 315.798 222.67 316.175 219.322 312.54C217.226 317.336 214.277 321.52 214.09 326.796C215.594 324.955 216.926 323.017 218.275 321.091C218.488 320.786 218.778 320.535 219.033 320.259C219.312 320.593 219.726 320.888 219.839 321.271C219.996 321.806 220.008 322.416 219.945 322.979C219.676 325.36 219.434 327.749 219.039 330.111C218.38 334.063 217.613 337.997 216.891 341.939H216.891ZM236.222 305.621C233.9 305.42 231.66 305.427 229.513 304.982C227.422 304.548 225.377 303.763 223.413 302.902C222.666 302.574 222.199 301.607 221.67 301.005C221.173 303.578 220.652 306.095 220.23 308.628C220.158 309.059 220.375 309.68 220.68 310.008C223.864 313.447 228.085 313.331 232.257 313.211C232.799 313.196 233.59 312.625 233.806 312.117C234.696 310.025 235.408 307.858 236.221 305.621L236.222 305.621ZM69.3365 139.367C71.0264 137.255 75.0466 134.257 77.7185 133.006C78.0452 132.853 78.3441 132.363 78.4144 131.984C78.9766 128.952 78.318 126.082 77.0356 123.349C76.8486 122.95 76.1881 122.674 75.6927 122.538C73.8867 122.04 69.1554 125.469 69.2214 127.518C69.2612 128.751 69.1201 129.99 69.0384 131.679C69.5697 130.695 69.8933 130.074 70.2367 129.464C71.0957 127.939 72.5585 127.278 74.1542 127.927C74.7374 128.164 75.0963 128.953 75.5576 129.49C74.9553 129.776 74.3241 130.345 73.757 130.287C72.6707 130.176 72.1265 130.661 71.8798 131.517C71.3177 133.466 70.0705 134.267 68.0779 134.232C67.6336 134.225 66.9945 134.71 66.771 135.139C66.4022 135.846 66.2987 136.692 66.0319 137.668C66.9707 138.151 68.1569 138.76 69.3363 139.367H69.3365ZM71.9217 149.262C74.3712 143.116 78.4128 139.229 85.1088 138.811C84.5414 137.784 83.9279 136.713 83.3522 135.622C82.4409 133.895 81.814 133.775 79.9948 134.263C76.7931 135.122 74.4541 137.323 72.1192 139.373C70.7583 140.568 69.3762 142.336 70.246 144.62C70.793 146.056 71.2919 147.511 71.9217 149.262V149.262ZM185.835 170.155C181.345 171.994 176.827 173.952 171.831 174.251C171.599 174.265 171.156 174.934 171.228 175.172C171.568 176.295 172.066 177.369 172.484 178.471C173.269 180.541 174.037 182.618 174.767 184.57C178.446 179.777 182.131 174.978 185.835 170.155H185.835ZM67.7071 124.564C69.088 123.375 70.1648 122.447 71.2506 121.512C70.1285 120.957 69.1557 120.508 68.2133 120.003C65.7216 118.666 63.6198 116.58 60.6752 116.116C58.2866 115.739 55.9012 115.342 53.5143 114.954L53.4001 115.565C54.1273 115.773 54.8475 116.011 55.5827 116.186C58.3886 116.852 61.0374 117.729 63.0479 120.03C64.4322 121.614 66.0636 122.982 67.7071 124.564V124.564ZM155.984 119.727C155.298 119.937 154.809 120.157 154.3 120.229C152.819 120.439 151.322 120.54 149.846 120.775C147.699 121.116 147.074 122.059 147.64 123.878C150.601 122.724 153.548 122.482 156.636 124.024C156.402 122.483 156.188 121.068 155.984 119.727V119.727ZM149.002 129.604C150.599 129.604 152.155 129.64 153.709 129.592C154.979 129.553 155.68 128.526 155.669 127.561C155.66 126.864 154.808 125.769 154.126 125.574C152.808 125.197 151.343 125.33 149.613 125.233C150.851 127.285 149.774 128.457 149.002 129.604ZM59.7609 126.589L59.2004 126.671C59.2937 127.476 59.0997 128.514 59.5306 129.046C61.2645 131.187 63.7334 131.872 66.3381 132.118L66.6384 131.68C64.3459 129.983 62.0534 128.286 59.7609 126.589ZM66.6859 128.685C66.7702 127.701 67.174 126.635 66.8354 126.283C65.624 125.02 64.2225 123.903 62.7496 122.954C62.3841 122.719 61.4792 123.321 60.8223 123.538C61.0508 123.996 61.1635 124.603 61.5276 124.888C63.1491 126.161 64.8424 127.342 66.6859 128.685V128.685ZM64.6854 135.469L65.0172 134.669C63.1407 133.811 61.2642 132.952 59.294 132.051C58.5237 132.903 58.4932 133.768 59.8146 134.199C61.4069 134.719 63.0591 135.054 64.6854 135.469V135.469Z" fill="black"/>
<path d="M155.298 261.788C153.782 268.063 153.421 274.524 153.777 281.024C153.958 284.332 154.3 287.635 154.67 290.929C154.954 293.459 156.894 294.583 158.978 295.371C163.005 296.893 167.152 297.713 171.51 297.537C174.836 297.402 178.186 297.772 181.505 297.576C183.812 297.44 186.074 296.661 188.377 296.302C189.135 296.184 190.487 296.258 190.647 296.635C191.086 297.669 190.562 298.777 189.385 299.073C186.924 299.692 184.437 300.457 181.93 300.594C177.851 300.817 173.746 300.536 169.652 300.558C164.883 300.583 160.419 299.346 156.141 297.383C153.123 295.999 151.571 293.561 151.512 290.211C151.405 284.074 151.049 277.929 151.279 271.805C151.416 268.158 152.394 264.529 153.161 260.927C153.402 259.797 154.527 259.322 155.674 259.659C160.368 261.041 165.113 260.542 169.843 260.057C171.892 259.847 173.912 259.35 175.938 258.945C177.153 258.703 177.801 259.286 178.22 260.327C180.203 265.261 183.624 269.091 187.638 272.435C189.467 273.958 191.503 274.989 194.02 274.978C196.117 274.969 196.334 275.361 196.401 277.525C196.56 282.651 196.754 287.777 196.9 292.904C196.919 293.571 196.925 294.36 196.601 294.883C196.24 295.467 195.494 295.812 194.916 296.26C194.547 295.704 193.876 295.155 193.861 294.589C193.789 291.881 193.912 289.168 193.932 286.457C193.954 283.668 193.937 280.879 193.937 278.314C185.186 275.47 179.666 269.58 175.674 262.055C168.785 262.998 161.98 263.505 155.298 261.789L155.298 261.788Z" fill="black"/>
<path d="M177.397 130.251C175.03 130.251 173.181 130.299 171.336 130.238C169.48 130.176 168.729 129.269 168.813 127.419C168.955 124.3 170.959 122.711 173.643 122.01C176.852 121.172 180.106 120.606 183.19 122.739C184.711 123.791 185.373 125.073 185.086 126.824C184.848 128.281 183.808 129.052 182.43 129.333C180.599 129.706 178.753 130.007 177.397 130.251V130.251ZM174.152 127.977C176.597 127.72 179.135 127.494 181.656 127.148C182.098 127.088 182.745 126.571 182.806 126.187C182.877 125.738 182.529 125.071 182.152 124.731C180.525 123.264 176.176 122.963 174.551 123.925C174.423 125.234 174.314 126.34 174.152 127.977V127.977Z" fill="black"/>
<path d="M163.385 161.946C161.62 161.948 157.858 159.105 157.389 157.488C157.306 157.201 157.17 156.856 157.256 156.606C157.678 155.392 161.399 153.776 162.661 154.21C162.954 154.311 163.315 154.523 163.552 154.435C166.47 153.34 169.272 155.631 172.215 154.671C173.524 154.244 173.643 155.275 173.218 156.138C172.897 156.789 172.333 157.457 171.704 157.795C169.124 159.183 166.478 160.449 163.854 161.756C163.673 161.846 163.478 161.909 163.385 161.946L163.385 161.946ZM169.15 157.072C166.989 156.684 165.047 155.34 163.007 156.531C162.853 156.621 162.517 156.429 162.276 156.339C160.887 155.822 160.566 156.014 160.136 157.795C161.837 157.639 162.642 160.069 164.596 159.209C166.13 158.534 167.633 157.787 169.15 157.072V157.072Z" fill="black"/>
</svg>
