<svg width="325" height="462" viewBox="0 0 325 462" fill="none" xmlns="http://www.w3.org/2000/svg">
<path d="M189.797 318.449C185.562 318.762 181.35 319.074 177.201 319.381C175.536 327.474 173.786 335.435 170.453 342.98C169.029 346.205 168.139 349.667 166.98 353.012C165.762 356.527 164.505 360.029 163.291 363.545C163.151 363.951 163.01 364.485 163.156 364.841C165.062 369.476 166.417 374.21 167.132 379.218C167.804 383.927 169.206 388.541 170.43 393.158C171.798 398.317 173.283 403.446 174.806 408.561C175.547 411.049 176.488 413.476 177.34 415.93C177.99 417.805 177.757 418.391 176.231 419.679C175.949 419.916 175.931 420.773 176.114 421.206C177.693 424.934 178.436 428.861 178.792 432.847C179.007 435.253 176.299 437.519 173.418 437.92C171.638 438.168 169.898 438.738 168.16 439.229C167.802 439.33 167.499 439.697 167.219 439.987C165.315 441.953 163.711 444.376 161.474 445.822C155.338 449.787 148.718 450.703 141.879 447.48C140.717 446.932 139.565 446.309 138.538 445.545C137.147 444.511 137.355 442.854 137.771 441.562C138.655 438.813 139.618 436.024 141.043 433.533C142.499 430.99 145.141 429.621 147.948 428.875C149.54 428.451 151.226 428.328 152.879 428.194C154.993 428.024 157.912 424.004 157.172 422.085C156.96 421.536 156.338 421.156 156.06 420.617C153.221 415.104 151.018 409.358 149.358 403.366C148.308 399.577 146.584 395.98 145.416 392.218C144.11 388.012 142.949 383.749 141.983 379.453C140.83 374.323 139.732 369.161 139.041 363.956C138.666 361.137 138.828 358.129 139.372 355.328C140.925 347.326 142.581 339.33 144.617 331.441C146.11 325.658 148.259 320.043 150.142 314.363C150.359 313.709 150.403 313.279 149.988 312.588C149.519 311.807 149.277 310.65 149.456 309.761C150.223 305.956 149.389 303.059 146.488 300.109C143.336 296.904 143.122 292.278 143.354 287.857C143.684 281.581 144.004 275.305 144.392 269.032C144.953 259.944 145.664 250.865 146.134 241.773C146.455 235.582 146.487 229.376 146.619 223.176C146.666 220.945 146.626 218.713 146.626 215.989C145.22 216.845 144.155 217.355 143.251 218.07C140.969 219.877 138.875 221.943 136.488 223.588C134.274 225.113 131.813 226.298 129.397 227.506C125.717 229.347 122.022 231.169 118.262 232.836C112.904 235.211 107.302 236.734 101.477 237.545C96.8912 238.182 92.3699 239.276 87.7881 239.949C83.9642 240.511 80.0986 240.823 76.2407 241.089C75.3908 241.148 74.4121 240.685 73.6361 240.222C70.9555 238.623 68.1586 237.567 64.9784 237.567C62.4458 237.567 60.0491 237.121 59.0689 234.121C56.3761 235.843 53.9575 237.478 51.444 238.951C50.5333 239.484 49.412 239.717 48.3548 239.918C47.7896 240.026 46.9838 239.981 46.5847 239.648C45.2007 238.493 43.9334 237.195 42.6507 235.922C42.0952 235.371 41.5505 234.79 41.109 234.148C40.5425 233.324 40.0849 232.425 39.4116 231.269C38.888 231.423 37.9839 231.508 37.2825 231.931C35.1944 233.188 32.9417 233.343 30.6443 233.051C30.0357 232.974 29.1295 232.395 29.0262 231.905C28.8973 231.294 29.2602 230.308 29.7539 229.883C31.8806 228.051 34.0743 226.283 36.3652 224.663C37.4465 223.899 38.845 223.601 40.0241 222.954C42.2462 221.734 44.3124 220.177 46.6268 219.192C50.2176 217.662 54.1092 218.366 57.8831 218.25C58.2832 218.238 58.814 218.398 59.0637 218.2C61.5765 216.206 64.7256 216.452 67.5827 215.683C68.2391 215.507 68.8539 215.173 69.4849 214.905C72.0548 213.813 74.532 212.179 77.2098 211.723C85.5923 210.296 93.8645 208.426 102.033 206.132C105.211 205.24 108.092 203.6 110.677 201.325C115.33 197.231 120.2 193.374 125.09 189.56C130.878 185.046 136.738 180.622 142.658 176.285C145.006 174.564 147.53 173.047 150.109 171.695C151.441 170.997 153.049 170.736 154.567 170.515C155.789 170.338 155.842 169.892 155.342 168.983C151.789 162.529 148.827 155.845 147.212 148.61C146.805 146.786 146.118 145.026 145.619 143.219C144.688 139.853 144.657 136.44 145.208 133.009C145.25 132.752 145.376 132.444 145.284 132.239C143.124 127.403 144.992 122.513 145.066 117.651C145.073 117.159 145.067 116.667 145.067 116.176L144.607 115.872C142.31 117.693 140.026 119.531 137.709 121.326C136.895 121.957 135.978 122.454 135.151 123.069C134.259 123.732 133.293 123.552 132.793 122.831C132.38 122.236 132.158 121.038 132.485 120.475C134.62 116.796 136.591 112.936 139.287 109.695C141.477 107.061 142.262 104.721 141.807 101.29C140.902 94.4501 143.375 88.6041 148.594 84.0445C152.5 80.6325 156.447 77.2635 160.471 73.9926C164.614 70.6248 169.528 69.6284 174.707 70.1168C179.733 70.5909 184.78 71.1167 189.722 72.1025C192.471 72.6508 195.063 74.0998 197.651 75.3024C199.529 76.1748 201.458 77.0954 203.05 78.3833C204.837 79.8289 206.535 81.5349 207.805 83.4393C211.127 88.4187 212.535 94.1496 213.809 99.9251C214.14 101.423 214.87 102.991 215.852 104.16C219.925 109.004 221.531 114.618 222.051 120.82C222.437 125.419 223.386 129.99 224.354 134.516C225.173 138.343 225.307 142.139 224.941 146.002C224.794 147.548 224.798 149.113 224.817 150.668C224.853 153.776 223.736 156.561 222.606 159.379C221.311 162.609 219.759 165.654 217.285 168.141C216.332 169.099 216.53 169.797 217.347 170.787C220.554 174.674 223.639 178.653 225.121 183.603C225.328 184.294 225.663 184.985 226.087 185.567C228.96 189.505 231.031 193.861 233.006 198.294C234.669 202.028 236.79 205.562 238.369 209.327C239.809 212.759 240.889 216.355 241.955 219.93C243.399 224.772 244.84 229.626 245.982 234.544C247.031 239.06 247.709 243.663 248.496 248.236C248.99 251.105 249.785 253.998 249.733 256.867C249.648 261.533 249.12 266.206 248.52 270.843C247.893 275.698 247.22 280.576 246.092 285.33C244.834 290.626 243.058 295.8 241.456 301.011C241.264 301.636 240.882 302.452 240.365 302.686C237.53 303.968 237.738 306.766 237.009 309.087C236.573 310.473 236.542 312.07 235.813 313.257C235.054 314.495 233.676 315.353 232.678 316.275C232.095 321.493 231.698 326.848 230.812 332.121C230.445 334.301 229.034 336.306 228.091 338.388C228.028 338.527 227.938 338.701 227.813 338.76C225.029 340.095 223.12 343.03 219.665 343.181C219.204 343.201 218.739 343.736 218.325 344.09C217.433 344.854 216.579 345.576 215.289 344.863C214.037 344.171 214.069 343.207 214.28 341.942C214.93 338.05 215.417 334.132 215.683 330.174C214.934 333.302 214.118 336.415 213.451 339.56C212.165 345.624 210.95 351.702 209.736 357.781C209.349 359.722 208.916 361.672 208.782 363.637C208.705 364.758 208.945 366.044 209.462 367.038C212.543 372.97 216.228 378.558 217.371 385.412C217.977 389.043 219.829 392.457 221.01 396.004C222.19 399.551 223.17 403.165 224.357 406.71C225.462 410.01 226.723 413.257 227.917 416.527C227.953 416.625 227.998 416.722 228.056 416.807C228.971 418.154 228.882 419.301 227.787 420.248C228.865 423.988 229.789 427.662 230.998 431.24C231.99 434.179 230.214 436.08 227.904 437.378C227.462 437.626 226.929 437.719 226.429 437.852C224.244 438.435 222.867 439.55 222.095 441.943C221.34 444.287 219.365 446.072 216.96 447.068C214.522 448.077 212.091 449.137 209.578 449.926C204.953 451.379 200.186 452.422 195.501 450.462C193.572 449.654 191.758 448.198 190.374 446.614C189.677 445.817 189.78 444.027 190.001 442.771C190.893 437.712 193.406 433.792 198.347 431.73C200.598 430.79 202.808 429.752 204.786 428.871C205.07 426.776 205.332 424.894 205.571 423.008C205.602 422.766 205.606 422.435 205.47 422.271C202.727 418.933 201.794 414.825 200.441 410.866C198.579 405.42 196.578 400.039 193.942 394.871C191.346 389.781 189.345 384.386 187.12 379.11C186.198 376.926 185.43 374.676 184.49 372.5C182.931 368.892 183.356 365.145 183.645 361.42C184.008 356.743 184.465 352.073 184.933 347.406C185.748 339.278 186.896 331.2 188.732 323.231C189.091 321.677 189.426 320.118 189.797 318.449L189.797 318.449ZM207.758 219.87C206.581 205.547 213.626 196.507 226.148 190.784C222.3 184.506 219.388 177.646 214.528 171.657C213.818 172.972 213.084 174.009 212.665 175.161C210.616 180.797 209.893 186.717 209.45 192.632C209.087 197.476 208.492 202.158 205.777 206.319C205.017 207.484 203.881 208.025 202.552 207.597C200.527 206.945 199.172 205.432 198.777 203.405C198.311 201.014 198.21 198.551 197.965 196.117C197.886 195.329 197.852 194.535 197.797 193.744L197.349 193.719C197.046 194.889 196.736 196.058 196.442 197.23C195.812 199.737 194.212 200.4 192.204 198.784C191.271 198.034 190.438 196.955 189.982 195.85C187.423 189.645 187.4 183.191 188.412 176.676C188.733 174.609 189.125 172.552 189.559 170.057C186.701 173.295 183.928 176.052 181.625 179.157C179.476 182.054 177.862 185.343 175.93 188.408C175.493 189.101 174.719 190.015 174.088 190.025C173.499 190.033 172.653 189.079 172.347 188.365C171.736 186.941 171.444 185.383 170.966 183.897C170.766 183.277 170.428 182.701 170.152 182.106L169.765 182.232C169.765 182.741 169.78 183.25 169.762 183.757C169.637 187.197 169.589 190.643 169.348 194.075C169.145 196.972 167.922 197.895 165.02 197.625C164.718 199.145 164.462 200.684 164.101 202.197C163.532 204.582 161.503 205.439 159.691 203.895C158.582 202.95 157.588 201.666 157.018 200.331C154.648 194.787 153.976 188.923 154.227 182.94C154.348 180.065 154.557 177.195 154.726 174.322L154.237 174.076C152.89 176.113 151.173 178.004 150.297 180.226C149.357 182.61 148.832 185.3 148.786 187.869C148.653 195.353 148.652 202.853 148.979 210.33C149.24 216.297 150.179 222.214 149.739 228.237C149.137 236.466 148.866 244.719 148.405 252.959C148.108 258.273 147.691 263.58 147.386 268.894C146.962 276.281 146.443 283.667 146.269 291.06C146.196 294.139 147.102 297.319 149.47 299.448C154.625 304.081 160.988 306.23 167.747 306.983C171.924 307.448 176.176 307.451 180.386 307.343C184.171 307.246 187.946 306.734 191.722 306.371C197.616 305.806 203.392 304.633 208.841 302.297C211.698 301.072 214.362 299.39 217.098 297.887C217.976 297.404 218.064 296.771 217.62 295.805C217.178 294.847 216.854 293.714 216.901 292.676C217.029 289.817 217.189 286.935 217.677 284.122C218.96 276.742 221.145 269.515 221.409 261.967C221.496 259.473 221.554 256.964 221.384 254.479C221.094 250.217 219.506 246.321 217.707 242.492C216.357 239.62 215.199 236.659 213.884 233.77C213.073 231.989 212.019 230.314 211.271 228.51C210.264 226.082 208.902 224.032 206.566 222.691C205.806 222.255 205.108 221.659 204.503 221.022C204.205 220.708 204.184 220.132 204.037 219.674C204.488 219.562 204.951 219.327 205.389 219.367C206.153 219.437 206.901 219.678 207.758 219.87L207.758 219.87ZM247.15 258.167L247.01 258.143C246.965 257.676 246.945 257.206 246.87 256.744C246.261 252.953 245.684 249.156 245.012 245.375C244.394 241.895 243.811 238.399 242.96 234.972C241.793 230.279 240.428 225.633 239.069 220.99C238.021 217.407 237.168 213.719 235.66 210.33C233.622 205.748 231.826 201.022 228.809 196.89C227.37 194.918 226.844 194.226 224.626 195.01C220.44 196.488 216.542 198.675 214.339 202.636C212.618 205.73 211.319 209.163 210.462 212.602C209.804 215.248 209.278 218.033 211.073 220.861C213.332 224.423 215.001 228.368 216.828 232.193C218.198 235.061 219.323 238.046 220.722 240.898C223.071 245.692 224.468 250.735 224.659 256.047C224.878 262.175 223.616 268.173 222.586 274.172C221.873 278.32 220.82 282.41 220.086 286.555C219.493 289.906 218.595 293.362 221.518 296.26C222.393 297.128 223.22 298.114 223.804 299.19C224.621 300.694 225.918 301.291 227.432 301.561C229.123 301.861 230.83 302.111 232.541 302.245C236.709 302.569 238.812 301.035 239.995 296.957C240.372 295.657 240.796 294.371 241.201 293.079C241.865 290.965 242.749 288.893 243.152 286.73C244.022 282.073 244.704 277.377 245.353 272.682C246.02 267.853 246.557 263.006 247.15 258.167V258.167ZM146.031 213.448C145.871 207.302 145.711 201.401 145.567 195.5C145.416 189.306 147.013 183.442 149.117 177.709C149.597 176.4 150.696 175.317 151.658 173.915C151.243 174.021 151.03 174.021 150.882 174.12C147.257 176.541 143.54 178.838 140.044 181.433C134.473 185.569 129.03 189.879 123.572 194.165C120.377 196.675 116.952 198.991 114.182 201.916C110.678 205.616 106.372 207.573 101.731 208.958C98.0512 210.056 94.2477 210.757 90.4772 211.526C85.1694 212.607 79.8323 213.545 74.526 214.634C72.4102 215.068 70.6306 216.058 69.9375 218.365C68.8372 222.028 68.4227 225.747 68.5763 229.576C68.7685 234.369 71.4502 238.105 75.5647 238.117C80.0174 238.129 84.4915 237.647 88.9195 237.088C92.5751 236.627 96.1777 235.743 99.8024 235.04C103.985 234.228 108.275 233.908 112.199 231.979C114.806 230.698 117.457 229.467 120.184 228.479C125.955 226.389 131.514 223.903 136.179 219.85C139.219 217.209 142.346 214.798 146.031 213.448V213.448ZM172.072 115.369C170.18 114.882 168.398 114.248 166.564 113.991C163.542 113.568 160.483 113.149 157.445 113.178C154.805 113.204 152.168 113.832 149.536 114.232C146.734 114.657 146.456 115.103 147.009 117.432C149.392 117.607 151.67 117.553 153.839 118.012C155.272 118.315 156.828 118.677 157.277 120.842C158.497 126.719 159.741 132.561 159.469 138.616C159.389 140.412 158.986 140.684 157.171 139.675L155.865 143.061C158.155 142.023 159.789 142.399 161.125 144.483C162.246 141.36 164.689 141.87 167.071 141.591C166.627 140.786 165.968 140.216 165.497 139.519C165.139 138.988 165.018 138.297 164.791 137.677C165.416 137.558 166.073 137.254 166.66 137.355C168.568 137.681 169.851 139.753 169.672 142.006C169.516 143.964 168.896 144.526 166.375 144.556C165.038 144.572 164.03 144.819 163.136 145.954C162.083 147.291 160.147 147.488 159.133 146.328C158.235 145.302 157.314 145.217 156.126 145.277C154.46 145.36 153.59 144.304 154.035 142.698C154.389 141.423 154.735 140.009 155.534 139.02C157.937 136.047 157.425 132.91 156.538 129.271C154.97 131.911 152.576 131.724 150.303 131.863C149.784 131.895 149.258 131.833 148.743 131.888C147.916 131.976 147.206 132.275 147.214 133.275C147.235 135.967 146.964 138.711 147.396 141.339C147.949 144.707 149.162 147.961 149.921 151.303C150.353 153.206 150.703 155.019 153.093 155.169C153.618 155.202 154.305 154.943 154.665 154.573C154.968 154.261 154.897 153.591 155.005 153.083C155.456 150.969 156.769 149.531 158.229 149.61C162.347 149.833 166.396 149.583 170.422 148.513C171.438 148.243 173.163 148.626 173.806 149.366C175.308 151.097 176.625 153.113 177.51 155.226C178.54 157.686 179.841 157.555 181.8 156.654C182.66 156.258 183.278 155.358 184.056 154.75C185.594 153.547 187.033 152.101 188.762 151.284C190.713 150.363 192.94 150.002 194.903 151.77C195.12 151.367 195.323 151.067 195.454 150.738C196.548 147.989 197.622 145.232 198.718 142.484C199.22 141.225 200.053 140.739 201.449 141.176C202.438 141.486 203.396 141.522 204.226 140.484C207.7 136.138 208.485 131.076 208.089 125.779C207.891 123.122 204.942 122.118 202.758 123.682C201.431 124.633 200.914 126.006 200.386 127.434C199.835 128.92 198.203 129.34 197.324 128.15C196.471 126.995 195.685 125.702 195.241 124.348C193.837 120.065 193.148 115.437 189.223 112.463C188.427 111.86 187.145 110.925 186.565 111.19C184.615 112.081 182.881 113.445 181.014 114.661C181.978 115.027 182.93 115.228 183.679 115.73C184.204 116.083 184.453 116.847 184.826 117.427C184.253 117.692 183.694 117.996 183.101 118.202C182.899 118.272 182.616 118.073 182.364 118.034C178.883 117.505 175.434 117.578 172.04 118.608C170.839 118.973 169.639 119.345 168.347 119.742C167.69 116.321 170.477 116.393 172.072 115.369L172.072 115.369ZM143.991 104.075C145.128 103.173 145.861 102.525 146.659 101.971C150.417 99.3585 154.548 97.6778 159.007 96.5732C163.092 95.5613 167.191 95.3562 171.257 95.9351C177.301 96.7955 183.145 98.5277 188.808 100.886C191.046 101.817 193.434 102.577 195.824 102.909C200.29 103.528 204.618 102.189 208.957 101.344C210.413 101.06 211.048 99.6697 210.616 98.2351C210.331 97.2872 210.021 96.3468 209.749 95.3952C208.979 92.6971 208.569 89.8317 207.392 87.3268C204.524 81.226 199.121 77.9527 193.016 75.8726C186.489 73.6485 179.72 72.5008 172.809 72.2933C170.094 72.2117 167.437 72.2784 165.037 73.871C158.582 78.1534 152.713 83.1265 147.423 88.7739C145.921 90.3774 144.719 92.2024 144.583 94.5252C144.405 97.5793 144.205 100.632 143.991 104.075H143.991ZM192.541 444.962C194.617 446.391 196.667 447.865 199.366 448.012C202.171 448.165 204.983 448.445 207.665 447.337C210.11 446.326 212.564 445.316 214.921 444.124C216.177 443.49 217.415 442.628 218.345 441.586C219.772 439.987 220.522 437.808 222.536 436.689C223.938 435.91 225.37 435.169 226.696 434.275C227.239 433.909 227.974 433.095 227.881 432.636C227.128 428.925 226.198 425.25 225.298 421.464C219.668 423.731 214.02 424.664 207.928 423.574C208.431 424.913 206.966 426.52 208.818 427.64C208.965 427.729 208.789 428.864 208.452 429.161C205.771 431.524 202.588 432.973 199.269 434.249C197.894 434.778 196.651 435.872 195.59 436.947C193.445 439.12 193.144 442.088 192.54 444.962H192.541ZM134.556 120.151L134.885 120.495C135.655 119.823 136.372 119.075 137.206 118.495C139.885 116.631 142.496 114.624 145.345 113.059C148.48 111.337 152.061 110.916 155.59 110.509C160.159 109.982 164.541 111.05 168.976 111.903C173.226 112.72 177.638 113.363 181.611 111.037C184.851 109.141 187.822 106.784 191.002 104.568C190.762 104.411 190.612 104.267 190.433 104.204C186.336 102.748 182.45 100.839 178.208 99.627C171.344 97.666 164.635 97.4761 157.85 99.248C152.155 100.735 146.813 102.905 142.979 107.816C139.899 111.761 136.998 115.795 134.556 120.151V120.151ZM157.619 428.781C157.619 428.781 157.855 428.767 157.983 428.877C158.495 429.315 158.974 429.793 159.464 430.256C158.836 430.619 158.238 431.198 157.573 431.289C156.842 431.389 156.031 431.101 155.287 430.877C151.435 429.716 147.996 430.691 145.097 433.228C142.061 435.883 141.623 439.824 140.739 443.484C140.684 443.709 141.097 444.197 141.397 444.335C145.226 446.098 149.235 446.76 153.403 445.993C158.564 445.043 162.267 441.701 165.908 438.252C166.752 437.453 167.715 436.668 168.769 436.228C170.533 435.491 172.415 435.034 174.248 434.465C175.31 434.134 176.175 433.738 175.925 432.304C175.668 430.834 175.673 429.317 175.421 427.845C175.033 425.575 174.523 423.325 174.022 420.856C169.225 423.224 164.395 422.373 159.923 422.491C159.144 424.618 158.391 426.675 157.619 428.781H157.619ZM152.242 157.77C153.693 160.902 154.961 163.971 156.506 166.894C158.477 170.626 161.561 172.278 165.945 172.102C170.797 171.906 175.359 171.024 179.859 169.166C183.508 167.659 186.803 165.931 188.942 162.476C190.595 159.806 192.288 157.16 194.259 154.034C192.779 153.679 191.85 153.201 190.988 153.301C188.956 153.538 187.362 154.71 185.97 156.197C185.094 157.133 184.19 158.103 183.125 158.79C180.03 160.788 176.811 159.625 175.344 156.256C174.603 154.553 173.645 152.92 172.587 151.393C172.268 150.931 171.183 150.598 170.623 150.771C166.983 151.898 163.274 152.12 159.513 151.916C157.521 151.808 157.266 152.014 157.05 154.059C156.747 156.928 155.28 158.14 152.242 157.77L152.242 157.77ZM152.364 304.985C152.364 306.378 152.494 307.863 152.325 309.313C152.175 310.604 152.63 311.359 153.768 311.705C157.681 312.894 161.566 314.219 165.543 315.136C168.569 315.833 171.727 316.367 174.813 316.308C181.257 316.185 187.699 315.767 194.021 314.243C197.816 313.328 201.698 312.779 205.497 311.878C208.28 311.218 211.017 310.331 213.72 309.389C214.942 308.964 216.599 308.433 217.06 307.471C217.949 305.619 218.128 303.425 218.693 300.974C217.8 301.343 217.354 301.467 216.969 301.695C212.977 304.054 208.832 306.087 204.349 307.319C197.492 309.201 190.463 310.168 183.392 310.566C179.206 310.802 174.982 310.327 170.774 310.214C167.005 310.113 163.301 309.723 159.798 308.192C157.378 307.135 154.95 306.099 152.364 304.985V304.985ZM213.357 326.742L213.755 326.889C215.073 324.977 216.382 323.059 217.715 321.158C217.952 320.821 218.292 320.556 218.584 320.258C218.836 320.625 219.193 320.961 219.312 321.367C219.454 321.855 219.472 322.412 219.408 322.923C219.029 325.976 218.687 329.038 218.187 332.072C217.64 335.391 216.936 338.684 216.3 341.988L216.798 342.168C217.36 340.923 218.068 339.721 218.453 338.423C219.297 335.583 219.939 332.684 220.756 329.835C220.915 329.282 221.492 328.849 221.876 328.361C222.182 328.912 222.661 329.436 222.752 330.021C222.875 330.815 222.806 331.679 222.634 332.472C222.188 334.542 221.64 336.59 221.133 338.646C221.703 338.222 222.089 337.719 222.257 337.151C222.731 335.554 223.051 333.909 223.564 332.325C223.79 331.626 224.334 331.03 224.727 330.399C226.214 331.245 225.873 332.249 225.697 333.226C225.52 334.211 225.373 335.201 225.213 336.189C226.523 333.954 226.677 331.137 228.902 329.132C229.189 329.825 229.376 330.277 229.563 330.729L230.02 330.701C230.319 325.882 230.618 321.063 230.927 316.069C226.492 315.728 222.117 316.187 218.777 312.489C216.684 317.356 213.692 321.541 213.357 326.742H213.357ZM221.159 300.812C220.628 303.553 220.11 306.023 219.703 308.511C219.625 308.987 219.837 309.673 220.167 310.028C223.359 313.473 227.595 313.312 231.769 313.212C232.278 313.199 233.033 312.684 233.23 312.216C234.126 310.078 234.864 307.873 235.672 305.656C234.043 305.472 232.56 305.298 231.075 305.139C227.329 304.739 223.38 304.837 221.159 300.812V300.812ZM58.0871 220.353C55.5805 220.353 53.2966 220.335 51.0132 220.358C48.4231 220.384 46.1358 221.739 45.6065 223.943C44.3935 228.992 45.0827 230.581 50.0723 231.701C50.3526 231.764 50.8695 231.623 50.9676 231.424C51.0799 231.196 50.9147 230.756 50.7446 230.487C50.5882 230.24 50.2805 230.073 50.013 229.915C48.4835 229.015 48.0338 227.805 48.6799 226.094C49.2513 224.58 50.4118 224.065 51.8239 224.063C52.4422 224.062 53.0611 224.526 53.6797 224.779C53.2426 225.26 52.8539 225.8 52.3548 226.205C51.8681 226.599 51.2687 226.855 50.9063 227.063C51.9582 228.402 53.3274 229.397 53.4918 230.561C53.6626 231.771 52.668 233.145 52.0635 234.769C53.0331 234.52 54.0997 234.398 55.0254 233.97C56.0911 233.477 57.0323 232.715 57.9931 232.092C57.0864 228.12 57.1053 224.17 58.0871 220.353H58.0871ZM66.5901 234.378C64.9352 228.674 65.5737 223.107 67.9018 217.405C67.0173 217.565 66.365 217.641 65.7359 217.806C64.6813 218.082 63.6527 218.616 62.5929 218.675C61.0769 218.76 60.3468 219.554 60.2136 220.862C59.9684 223.269 60.0151 225.71 59.7065 228.106C59.4348 230.216 61.3048 231.317 61.6958 233.008C62.4315 236.19 64.8292 233.762 66.2342 234.542C66.2603 234.557 66.3241 234.503 66.5902 234.378L66.5901 234.378ZM174.331 184.434C177.923 179.758 181.606 174.964 185.286 170.174C185.151 170.227 184.969 170.296 184.789 170.369C180.75 172.011 176.703 173.637 172.328 174.175C170.444 174.407 170.163 174.749 170.864 176.444C171.992 179.171 173.209 181.862 174.331 184.434H174.331ZM42.9642 223.553C39.2106 225.696 34.9168 226.997 32.1852 230.798C33.3536 230.701 34.4753 230.456 35.5713 230.125C36.9459 229.71 38.2824 229.161 39.6683 228.794C40.5972 228.548 41.5834 228.519 42.5458 228.393L42.9642 223.553V223.553ZM147.454 126.558C148.025 127.174 148.817 127.637 148.954 128.247C149.375 130.115 150.696 129.731 151.929 129.687C152.294 129.674 152.657 129.625 153.021 129.617C154.379 129.586 155.088 128.605 155.167 127.543C155.244 126.515 154.532 125.511 153.325 125.371C151.266 125.133 149.172 124.915 147.454 126.558V126.558ZM155.438 119.696C154.772 119.91 154.289 120.143 153.782 120.215C152.296 120.426 150.791 120.519 149.31 120.758C147.153 121.107 146.544 122.025 147.004 123.693C148.553 123.442 150.069 123.007 151.586 123.005C153.052 123.003 154.518 123.446 156.064 123.707L155.438 119.696V119.696ZM41.4713 230.958C41.8777 232.972 44.0388 233.992 46.3298 233.363C44.5487 231.415 43.5795 230.924 41.4713 230.958Z" fill="black"/>
<path d="M193.4 278.168C188.846 277.092 185.497 274.642 182.382 271.835C179.528 269.263 177.334 266.16 175.605 262.747C175.167 261.882 174.641 262.052 173.961 262.153C168.163 263.016 162.361 263.263 156.561 262.171C155.955 262.056 155.371 261.818 154.726 261.621C154.297 264.015 153.603 266.416 153.485 268.846C153.243 273.832 153.203 278.835 153.293 283.827C153.338 286.307 153.766 288.793 154.179 291.25C154.573 293.602 156.476 294.623 158.446 295.375C162.123 296.778 165.924 297.605 169.896 297.57C173.645 297.537 177.403 297.762 181.139 297.559C183.393 297.436 185.605 296.658 187.855 296.288C188.59 296.167 189.877 296.16 190.055 296.521C190.553 297.539 190.127 298.664 188.933 299.003C186.741 299.625 184.523 300.359 182.274 300.541C175.89 301.059 169.485 301.095 163.164 299.836C159.865 299.179 156.634 298.29 153.822 296.245C152.056 294.96 151.226 293.173 151.048 291.194C150.348 283.453 150.121 275.692 151.106 267.956C151.399 265.648 151.993 263.372 152.556 261.107C152.87 259.843 153.91 259.304 155.105 259.657C159.806 261.048 164.553 260.527 169.286 260.062C171.336 259.861 173.357 259.355 175.384 258.95C176.591 258.709 177.251 259.268 177.673 260.318C179.656 265.252 183.074 269.086 187.091 272.428C188.921 273.95 190.954 274.992 193.474 274.979C195.556 274.967 195.79 275.375 195.857 277.53C196.015 282.659 196.208 287.786 196.352 292.915C196.371 293.582 196.378 294.375 196.048 294.893C195.682 295.469 194.926 295.796 194.339 296.232C193.987 295.664 193.348 295.104 193.332 294.527C193.258 291.923 193.377 289.314 193.395 286.707C193.415 283.858 193.4 281.009 193.4 278.168H193.4Z" fill="black"/>
<path d="M177.393 121.282C179.545 121.012 181.397 121.753 183.056 122.973C184.321 123.904 184.864 125.252 184.547 126.836C184.287 128.137 183.412 128.93 182.168 129.243C180.859 129.573 179.532 129.934 178.196 130.025C175.733 130.194 173.256 130.241 170.786 130.215C168.953 130.195 168.182 129.229 168.287 127.393C168.447 124.587 170.064 122.814 173.563 121.845C174.797 121.503 176.114 121.461 177.393 121.282L177.393 121.282ZM174.441 127.353L174.36 127.999C176.613 127.729 178.872 127.503 181.111 127.151C181.561 127.08 182.21 126.573 182.273 126.186C182.347 125.737 181.994 125.075 181.622 124.719C179.898 123.066 174.023 122.69 172.497 124.732C173.185 125.66 173.813 126.506 174.441 127.353H174.441Z" fill="black"/>
<path d="M160.752 153.572C162.885 155.294 165.21 153.151 167.347 154.67C168.273 155.329 170.121 154.639 171.549 154.655C172.923 154.671 173.389 155.384 172.527 156.462C171.678 157.523 170.506 158.428 169.301 159.077C167.399 160.102 165.365 160.888 163.355 161.697C162.935 161.866 162.274 161.877 161.902 161.657C160.011 160.542 157.439 160.213 156.865 157.5C156.802 157.205 156.608 156.727 156.719 156.638C158.033 155.585 159.393 154.591 160.752 153.572V153.572ZM168.628 157.049C166.573 156.879 164.75 155.189 162.74 156.49C162.548 156.614 162.093 156.507 161.853 156.357C160.429 155.463 159.967 156.41 159.354 157.706C161.211 157.703 162.084 160.052 164.09 159.195C165.627 158.538 167.117 157.768 168.628 157.049V157.049Z" fill="black"/>
</svg>
