<svg width="107" height="31" viewBox="0 0 107 31" fill="none" xmlns="http://www.w3.org/2000/svg">
<path d="M31.8125 22.5797C30.6949 22.5797 29.7978 22.2268 29.1508 21.5356V22.3886H27.1361V9.68268L29.1508 9.05033V14.0944C29.8125 13.4033 30.6949 13.065 31.8125 13.065C33.1361 13.065 34.239 13.5356 35.0919 14.4621C36.8125 16.3739 36.8125 19.2709 35.0919 21.1974C34.239 22.1092 33.1361 22.565 31.8125 22.5797ZM31.5919 20.7415C32.3419 20.7562 33.0478 20.4474 33.5478 19.8886C34.5772 18.6974 34.5772 16.9327 33.5478 15.7415C33.0478 15.1827 32.3419 14.8739 31.5919 14.8886C30.6066 14.8592 29.6802 15.3297 29.1361 16.1533V19.4621C29.7096 20.315 30.5331 20.7415 31.5919 20.7415ZM39.2684 11.6239C38.9155 11.6239 38.5772 11.4915 38.3272 11.2268C38.0625 10.9768 37.9302 10.6239 37.9302 10.2709C37.9302 9.53563 38.5331 8.94739 39.2684 8.93268C39.6361 8.93268 39.9743 9.06504 40.2243 9.32974C40.4743 9.57974 40.6213 9.91798 40.6213 10.2709C40.6213 11.0062 40.0331 11.6239 39.2978 11.6239C39.2831 11.6239 39.2831 11.6239 39.2684 11.6239ZM38.2684 22.3886H40.2831V13.2415H38.2684V22.3886ZM47.1361 22.4915C46.1949 22.4915 45.4302 22.2268 44.8419 21.7121C44.2537 21.1974 43.9596 20.4474 43.9596 19.4474V15.0356H41.6949V13.2415H43.9596V11.2268L45.9596 10.5797V13.2268H48.7537V15.0209H45.9596V19.1239C45.9596 20.1533 46.4302 20.6827 47.3861 20.6827C47.8419 20.6974 48.2831 20.5797 48.6802 20.3592L49.2831 22.0356C48.6213 22.3444 47.8714 22.5062 47.1361 22.4915ZM50.6213 26.5797V13.2562H52.6361V14.0944C53.2978 13.4033 54.1802 13.065 55.2978 13.065C56.6214 13.065 57.7243 13.5209 58.5772 14.4621C60.2978 16.3739 60.2978 19.2709 58.5772 21.1974C57.7096 22.1239 56.6214 22.5944 55.2978 22.5944C54.1802 22.5944 53.2831 22.2415 52.6213 21.5503V25.9621L50.6213 26.5797ZM55.0919 20.7415C55.8419 20.7562 56.5478 20.4474 57.0478 19.8886C58.0772 18.6974 58.0772 16.9327 57.0478 15.7415C56.5478 15.1827 55.8419 14.8739 55.0919 14.8886C54.1066 14.8592 53.1802 15.3297 52.6361 16.1533V19.4621C53.2096 20.315 54.0184 20.7415 55.0919 20.7415ZM65.6802 22.565C64.3566 22.565 63.2537 22.1092 62.4008 21.168C60.6949 19.2562 60.6949 16.3592 62.4008 14.4327C63.2537 13.5062 64.3419 13.0503 65.6802 13.0356C66.7978 13.0356 67.6949 13.3739 68.3419 14.065V13.2268H70.3566V22.3739H68.3419V21.5062C67.6802 22.2268 66.7978 22.5797 65.6802 22.565ZM65.9008 20.7415C66.8861 20.7709 67.8125 20.2856 68.3272 19.4621V16.1533C67.7978 15.3444 66.8713 14.8592 65.9008 14.8886C65.1508 14.8739 64.4449 15.1827 63.9596 15.7415C62.9302 16.9327 62.9302 18.6974 63.9596 19.8886C64.4596 20.4474 65.1655 20.7562 65.9008 20.7415ZM72.5331 22.3886V13.2562H74.5478V14.2268C75.1655 13.4621 76.0625 13.0797 77.239 13.0797C78.3272 13.0797 79.1949 13.4327 79.8419 14.1239C80.489 14.815 80.8125 15.7562 80.8125 16.918V22.3886H78.7978V17.2562C78.7978 16.5062 78.6214 15.9327 78.2831 15.5209C77.9302 15.1092 77.4449 14.9033 76.7978 14.9033C75.7243 14.9033 74.9743 15.3886 74.5478 16.3445V22.3886H72.5331ZM87.1213 22.565C85.7978 22.565 84.6949 22.1092 83.8566 21.168C82.1508 19.2562 82.1508 16.3592 83.8566 14.4327C84.7096 13.5062 85.7978 13.0503 87.1213 13.0356C88.239 13.0356 89.1361 13.3739 89.7978 14.065V9.65327L91.8125 9.02092V22.3739H89.7978V21.5062C89.1213 22.2268 88.239 22.5797 87.1213 22.565ZM87.3566 20.7415C88.3419 20.7709 89.2684 20.2856 89.7831 19.4621V16.1533C89.2537 15.3444 88.3272 14.8592 87.3566 14.8886C86.6066 14.8739 85.9008 15.1827 85.4008 15.7415C84.3713 16.9327 84.3713 18.6974 85.4008 19.8886C85.886 20.4474 86.6066 20.7562 87.3566 20.7415ZM98.2537 22.565C96.9302 22.565 95.8419 22.1092 94.989 21.168C93.2831 19.2562 93.2831 16.3592 94.989 14.4327C95.8419 13.5062 96.9302 13.0503 98.2537 13.0356C99.3713 13.0356 100.268 13.3739 100.93 14.065V13.2268H102.93V22.3739H100.915V21.5062C100.268 22.2268 99.3713 22.5797 98.2537 22.565ZM98.489 20.7415C99.4743 20.7709 100.401 20.2856 100.915 19.4621V16.1533C100.386 15.3444 99.4596 14.8592 98.489 14.8886C97.739 14.8739 97.0331 15.1827 96.5331 15.7415C95.5037 16.9327 95.5037 18.6974 96.5331 19.8886C97.0184 20.4474 97.739 20.7562 98.489 20.7415ZM15.0331 7.78562L14.6361 7.91798V9.40327C14.6361 10.1533 14.1508 10.815 13.4449 11.0503L9.37135 12.3297V14.5356L14.7096 12.8444C15.9743 12.4474 16.739 11.3592 16.739 9.91798V8.93268C16.739 8.27092 15.9596 7.49151 15.0331 7.78562ZM6.51841 7.16798L14.0772 4.78562C14.6802 4.57974 15.3272 4.52092 15.9596 4.57974L15.0184 3.88856C14.0184 3.19739 12.7684 2.99151 11.6066 3.35915L4.43018 5.62386L6.51841 7.16798Z" fill="white" fill-opacity="0.7"/>
<path d="M18.0332 13.6995C18.0332 13.6995 19.3714 12.4936 19.3714 9.89067V8.78773C19.3714 7.06714 17.4008 4.28773 14.2391 5.28773L6.73906 7.65537V21.5524L8.842 20.8907V17.4642L15.6067 15.3318C16.5332 15.023 17.5332 15.5377 17.8273 16.4642C17.8861 16.6407 17.9155 16.8318 17.9155 17.023V18.376C17.9155 19.7583 16.6949 21.7142 14.7832 22.3171L4.41553 25.5966L6.51847 27.1407L15.8567 24.1995C17.8273 23.5671 20.0185 21.876 20.0185 18.2877V16.9054C20.0185 14.7289 18.0332 13.7142 18.0332 13.6995ZM14.8714 13.376L8.842 15.273V9.19949L14.8714 7.30243C16.1361 6.90538 17.2685 7.92008 17.2685 8.94949V9.93479C17.2685 11.6554 16.3273 12.9054 14.8714 13.376Z" fill="white" fill-opacity="0.7"/>
<path d="M17.402 18.3937V17.0407C17.402 16.3495 16.8432 15.7907 16.152 15.7907C16.0197 15.7907 15.8873 15.8054 15.7697 15.8495L15.2991 15.9966V17.8642C15.2991 18.7907 14.7109 19.5995 13.8285 19.8642L6.22556 22.2613V7.58483L4.10791 6.04071V25.1289L14.6373 21.8054C16.2844 21.3054 17.402 19.6289 17.402 18.3937Z" fill="white" fill-opacity="0.7"/>
</svg>
