<svg width="98" height="25" viewBox="0 0 98 25" fill="none" xmlns="http://www.w3.org/2000/svg">
<path fill-rule="evenodd" clip-rule="evenodd" d="M20.05 4.54804L20.1732 5.31802C20.2656 6.02639 20.3118 6.73476 20.2964 7.45854C20.2964 9.04468 20.1116 10.6154 19.7421 12.1554C19.2493 14.2343 18.3869 16.2208 17.2012 18.0071C15.8306 20.0399 13.8441 22.0264 10.9644 23.6587L10.6102 23.8589L10.256 23.6587C7.37632 22.0572 5.3898 20.0553 4.01925 18.0071C2.81809 16.2208 1.97113 14.2497 1.47834 12.1554C1.10876 10.6154 0.923965 9.04468 0.923965 7.45854C0.923965 6.75016 0.954765 6.02639 1.04716 5.31802L1.15496 4.54804C1.17036 4.48645 1.17036 4.42485 1.15496 4.36325C1.13956 4.30165 1.12416 4.24006 1.07796 4.19386C1.04716 4.14766 1.00096 4.10146 0.954764 4.07066C0.908566 4.03986 0.846968 4.02446 0.80077 4.00906C0.739172 3.99366 0.677575 3.99366 0.615977 4.00906C0.554379 4.02446 0.492782 4.05526 0.446584 4.08606C0.400385 4.11686 0.354187 4.16306 0.323388 4.20926C0.292589 4.27085 0.277189 4.33245 0.26179 4.39405L0.138595 5.16402C0.0461985 5.91859 0 6.68857 0 7.45854C0 9.12167 0.200193 10.7694 0.585179 12.3864C0.846969 13.4797 1.20115 14.5577 1.64774 15.5894C2.09432 16.6212 2.6333 17.6068 3.26468 18.5461C4.71222 20.702 6.80655 22.8118 9.82483 24.4749L10.3946 24.7983C10.4716 24.8291 10.5486 24.8445 10.6256 24.8445C10.7026 24.8445 10.7796 24.8291 10.8566 24.7983L11.4264 24.4749C14.4293 22.7964 16.539 20.6866 17.9865 18.5461C19.2493 16.6674 20.1578 14.5731 20.666 12.3864C21.051 10.7694 21.2358 9.12167 21.2358 7.45854C21.2358 6.68857 21.1896 5.91859 21.0972 5.14862L20.974 4.37865C20.9586 4.31705 20.9432 4.25545 20.9124 4.19386C20.8816 4.14766 20.8354 4.10146 20.7892 4.07066C20.743 4.03986 20.6814 4.00907 20.6198 3.99367C20.5582 3.97827 20.4966 3.97827 20.435 3.99367C20.3734 4.00907 20.3118 4.02446 20.2502 4.05526C20.204 4.08606 20.1578 4.13226 20.127 4.17846C20.0962 4.22466 20.0654 4.28625 20.05 4.34785V4.54804Z" fill="white"/>
<path fill-rule="evenodd" clip-rule="evenodd" d="M3.74205 4.02446L10.641 1.85314L17.6785 4.07066C17.7401 4.08606 17.8017 4.08606 17.8633 4.08606C17.9249 4.08606 17.9865 4.07066 18.0481 4.03986C18.1097 4.00906 18.1559 3.97827 18.2021 3.91667C18.2483 3.87047 18.2791 3.80887 18.2791 3.74727C18.2945 3.68568 18.2945 3.62408 18.2945 3.56248C18.2945 3.50088 18.2791 3.43929 18.2483 3.37769C18.2175 3.31609 18.1867 3.26989 18.1405 3.22369C18.0943 3.1775 18.0327 3.1467 17.9711 3.1467L10.7796 0.867582C10.6872 0.836783 10.5948 0.836783 10.5024 0.867582L3.48026 3.0851C3.41867 3.1005 3.37247 3.1313 3.31087 3.16209C3.26467 3.20829 3.21847 3.25449 3.20307 3.31609C3.17228 3.37769 3.15688 3.43928 3.15688 3.50088C3.15688 3.56248 3.15688 3.62408 3.17227 3.68568C3.18767 3.74727 3.21847 3.80887 3.24927 3.85507C3.28007 3.90127 3.34167 3.94747 3.40327 3.97826C3.44946 4.00906 3.51106 4.02446 3.58806 4.02446C3.61886 4.03986 3.68046 4.03986 3.74205 4.02446Z" fill="white"/>
<path fill-rule="evenodd" clip-rule="evenodd" d="M0.338819 4.68653L10.2099 24.5826C10.2406 24.6596 10.3022 24.7212 10.3638 24.7674C10.5178 24.8598 10.7026 24.8598 10.8566 24.7674C10.9336 24.7212 10.9952 24.6596 11.0414 24.5826L17.0626 12.956L17.078 12.9406L20.9278 4.67113C20.9586 4.60953 20.974 4.54793 20.974 4.48633C20.974 4.42474 20.974 4.36314 20.9432 4.30154C20.9278 4.23994 20.897 4.17834 20.8509 4.13215C20.8201 4.08595 20.7585 4.03975 20.7123 4.00895C20.6661 3.97815 20.6045 3.96275 20.5275 3.96275C20.4659 3.96275 20.4043 3.96275 20.3427 3.97815C20.2811 3.99355 20.2195 4.02435 20.1733 4.07055C20.1271 4.11675 20.0809 4.16295 20.0655 4.22454L16.2156 12.494L10.6102 23.3198L1.15499 4.22454C1.12419 4.17835 1.07799 4.11675 1.04719 4.07055C1.001 4.02435 0.939396 3.99355 0.877799 3.97815C0.816201 3.94735 0.754604 3.94735 0.693006 3.96275C0.631408 3.96275 0.569811 3.97815 0.508214 4.00895C0.462015 4.03975 0.400417 4.08595 0.369619 4.13215C0.33882 4.17834 0.308021 4.23994 0.292621 4.30154C0.277222 4.36314 0.261823 4.42474 0.277222 4.48633C0.292622 4.56333 0.30802 4.62493 0.338819 4.68653Z" fill="white"/>
<path fill-rule="evenodd" clip-rule="evenodd" d="M5.06642 13.5567H16.0616C16.1232 13.5567 16.1848 13.5413 16.2464 13.5259C16.308 13.5105 16.3542 13.4643 16.385 13.4181C16.4312 13.3719 16.462 13.3257 16.4774 13.2641C16.5236 13.141 16.5236 13.0178 16.4774 12.8946C16.462 12.833 16.4158 12.7868 16.385 12.7406C16.3388 12.6944 16.2926 12.6636 16.2464 12.6328C16.1848 12.6174 16.1232 12.602 16.0616 12.602H5.06642C5.00483 12.602 4.94323 12.6174 4.88163 12.6328C4.82003 12.6482 4.77383 12.6944 4.74304 12.7406C4.69684 12.7868 4.66604 12.833 4.65064 12.8946C4.60444 13.0178 4.60444 13.141 4.65064 13.2641C4.66604 13.3257 4.69684 13.3719 4.74304 13.4181C4.78923 13.4643 4.83543 13.4951 4.88163 13.5259C4.94323 13.5413 5.00483 13.5413 5.06642 13.5567ZM35.7113 9.41429H28.5659C28.5043 9.41429 28.4427 9.42969 28.3811 9.44509C28.3196 9.46049 28.2734 9.50669 28.2426 9.55289C28.1964 9.59909 28.1656 9.64529 28.1502 9.70689C28.1348 9.76848 28.1194 9.83008 28.1194 9.89168V15.8205C28.1194 15.8821 28.1348 15.9437 28.1502 16.0052C28.1656 16.0668 28.1964 16.113 28.2426 16.1592C28.2888 16.2054 28.335 16.2362 28.3811 16.267C28.4427 16.2824 28.5043 16.2978 28.5659 16.2978H35.7113V17.2988H28.5659C28.4735 17.2988 28.3812 17.2834 28.2888 17.268C28.1964 17.2526 28.104 17.2218 28.0116 17.191C27.9192 17.1602 27.8422 17.114 27.7652 17.0678C27.6882 17.0062 27.6266 16.9446 27.5496 16.883C27.411 16.7444 27.3186 16.5904 27.2416 16.421C27.2108 16.3286 27.18 16.2362 27.1646 16.1438C27.1492 16.0514 27.1338 15.9591 27.1338 15.8667V9.90708C27.1338 9.81468 27.1492 9.72228 27.1646 9.62989C27.18 9.53749 27.2108 9.44509 27.2416 9.3527C27.2724 9.2603 27.3186 9.16791 27.3648 9.09091C27.411 9.01391 27.4726 8.93691 27.5496 8.87531C27.6112 8.81372 27.6882 8.75212 27.7652 8.69052C27.8422 8.64432 27.9192 8.59812 28.0116 8.56732C28.104 8.53653 28.1964 8.50573 28.2888 8.49033C28.3812 8.47493 28.4735 8.45953 28.5659 8.45953H35.7113V9.41429ZM49.1242 8.41333V9.41429H42.2406V12.3556H47.769V13.3719H42.2406V16.3132H49.1242V17.3142H41.2859V8.41333H49.1242Z" fill="white"/>
<path d="M63.307 9.92246V12.525C63.307 12.6174 63.2916 12.7097 63.2762 12.8021C63.2608 12.8945 63.23 12.9869 63.1992 13.0793C63.1684 13.1717 63.1222 13.2641 63.076 13.3411C63.0144 13.4181 62.9682 13.4951 62.8912 13.5567C62.8296 13.6183 62.7526 13.6799 62.6756 13.7415C62.5986 13.7877 62.5216 13.8339 62.4292 13.8647C62.3368 13.8955 62.2444 13.9263 62.152 13.9571C62.0596 13.9725 61.9672 13.9879 61.8748 13.9879H60.5659L63.2608 17.2988H61.9672L59.2877 13.9879H56.1463C55.9923 13.9879 55.8383 13.9725 55.6843 13.9417V17.2988H54.7141V8.42871H61.8902C61.9826 8.42871 62.075 8.44411 62.1674 8.45951C62.2598 8.47491 62.3522 8.50571 62.4446 8.53651C62.537 8.56731 62.614 8.6135 62.691 8.6751C62.845 8.7829 62.9682 8.92149 63.076 9.07549C63.1222 9.15249 63.1684 9.24488 63.1992 9.33728C63.23 9.42967 63.2608 9.52207 63.2762 9.61447C63.2916 9.72226 63.307 9.83006 63.307 9.92246ZM56.1309 13.0023H61.8748C61.9364 13.0023 61.998 12.9869 62.0596 12.9715C62.1212 12.9561 62.1674 12.9253 62.1982 12.8637C62.2444 12.8175 62.2752 12.7714 62.2906 12.7098C62.306 12.6482 62.3214 12.5866 62.3214 12.525V9.92246C62.3214 9.79926 62.2752 9.67606 62.1982 9.58367C62.1212 9.49127 61.998 9.42967 61.8748 9.42967H56.1309C56.0693 9.42967 56.0077 9.44507 55.9461 9.46047C55.8845 9.47587 55.8383 9.52207 55.8075 9.56827C55.7613 9.61447 55.7305 9.66066 55.7151 9.72226C55.6997 9.78386 55.6843 9.84546 55.6843 9.90706V12.5096C55.6843 12.6328 55.7305 12.756 55.8383 12.8483C55.8999 12.9407 56.0231 13.0023 56.1309 13.0023Z" fill="white"/>
<path fill-rule="evenodd" clip-rule="evenodd" d="M68.4504 8.41333H77.0433V9.41429H73.2397V17.2988H72.2695V9.41429H68.4504V8.41333ZM82.2791 17.3142V8.42873H83.2493V17.3142H82.2791ZM96.1694 8.41333H97.4167L93.8287 12.8638L97.4322 17.3142H96.1694L92.9663 13.3719H90.1944V17.3142H89.2243V8.42873H90.2098V12.371H92.9817L96.1694 8.41333Z" fill="white"/>
</svg>
