<svg width="205" height="40" viewBox="0 0 205 40" fill="none" xmlns="http://www.w3.org/2000/svg">
<path d="M17.9916 20.0018C17.9916 21.0922 18.8435 21.9441 19.9339 21.9441C21.0243 21.9441 21.8762 21.0922 21.8762 20.0018C21.8762 18.9114 21.0243 18.0596 19.9339 18.0596C18.8435 18.0936 17.9916 18.9455 17.9916 20.0018ZM34.2796 18.0936C33.1892 18.0936 32.3373 18.9455 32.3373 20.0359C32.3373 21.1263 33.1892 21.9781 34.2796 21.9781C35.37 21.9781 36.2219 21.1263 36.2219 20.0359C36.2219 18.9455 35.37 18.0936 34.2796 18.0936ZM34.2796 32.6775C33.1892 32.6775 32.3373 33.5294 32.3373 34.6198C32.3373 35.7101 33.1892 36.562 34.2796 36.562C35.37 36.562 36.2219 35.7101 36.2219 34.6198C36.2219 33.5294 35.37 32.6775 34.2796 32.6775Z" fill="#978ABF"/>
<path d="M38.4028 2.04516C36.4605 -0.374125 32.9849 -0.476344 30.9404 1.43183L30.7018 1.67035L30.2248 2.04516C28.2825 3.61259 25.3861 3.4763 23.5801 1.67035V1.53405C22.9667 0.920705 22.1489 0.443665 21.2971 0.205143C21.1607 0.205143 20.9222 0.0688477 20.82 0.0688477H18.8777C18.7414 0.0688477 18.6392 0.0688456 18.5029 0.205143H18.2643C18.128 0.205143 18.0258 0.341439 17.8895 0.341439C17.8895 0.341439 17.7532 0.341448 17.7532 0.477746C17.6169 0.477746 17.5147 0.614041 17.3784 0.614041C17.3784 0.614041 17.2421 0.614039 17.2421 0.750337C17.1058 0.886635 17.0036 0.886639 16.8673 0.988863C16.8673 0.988863 16.731 0.98886 16.731 1.12516C16.5947 1.26146 16.4924 1.26145 16.3561 1.36367L16.2198 1.49998L15.9813 1.73849L15.5043 2.11332C13.562 3.68074 10.6656 3.54444 8.99587 1.73849C8.99587 1.73849 8.85957 1.7385 8.85957 1.6022L8.62105 1.36367C7.90546 0.750333 7.05358 0.27329 6.09948 0.171067H3.91866C3.91866 0.307365 3.78236 0.307369 3.68013 0.409592H3.64605C3.0327 0.648114 2.45342 0.886631 1.94229 1.36367L1.80599 1.49998L1.43116 1.87479C0.954108 2.35183 0.715581 2.96518 0.477054 3.44222C0.477054 3.57852 0.340753 3.68074 0.340753 3.81704C0.340753 3.95334 0.204452 4.05556 0.204452 4.29408C0.0681507 5.14594 0.0681506 5.9978 0.340753 6.81559C0.340753 6.95189 0.477054 7.05411 0.477054 7.19041V7.32671C0.477054 7.463 0.613355 7.56523 0.613355 7.70153C0.749656 7.83783 0.749656 7.94005 0.851882 8.17857C1.09041 8.31487 1.32894 8.5534 1.46524 8.65562L1.70376 8.89413L1.94229 9.13266C3.74828 10.9386 3.74828 14.0735 1.80599 16.0157C1.56746 16.2542 1.19263 16.629 1.09041 16.8676C0.954108 17.0039 0.954108 17.1061 0.851882 17.3446V17.4809C0.715581 17.6172 0.715581 17.7194 0.613355 17.8557V17.992C0.613355 18.1283 0.477054 18.2305 0.477054 18.3668V18.5031C0.477054 18.6394 0.477054 18.7417 0.340753 18.878V20.6839C0.340753 20.8202 0.340753 20.9224 0.477054 21.0587V21.195C0.715581 22.0469 1.19263 22.8987 1.90822 23.6143C3.85051 25.5566 3.85051 28.6914 1.90822 30.5996L1.77191 30.7359L1.53339 30.9744V31.1107C1.39709 31.247 1.29486 31.3492 1.29486 31.4855C1.29486 31.4855 1.29486 31.6218 1.15856 31.6218C1.02226 31.7581 1.02226 31.8603 0.920033 31.9966L0.783732 32.1329C0.783732 32.2692 0.647431 32.2692 0.647431 32.3714C0.647431 32.4737 0.511129 32.5077 0.511129 32.61C0.511129 32.7463 0.511129 32.7463 0.374828 32.8485C0.136301 33.3255 0 33.9389 0 34.4159V35.37C0.136301 35.7448 0.136301 36.0856 0.374828 36.3241C0.374828 36.4604 0.511129 36.5626 0.511129 36.5626C0.511129 36.5626 0.51113 36.6989 0.647431 36.6989C0.647431 36.8352 0.783732 36.9374 0.783732 37.0737C0.783732 37.0737 0.783732 37.21 0.920033 37.21C1.05633 37.4485 1.15856 37.5848 1.29486 37.6871C1.29486 37.6871 1.29486 37.8234 1.43116 37.8234C1.43116 37.8234 1.43116 37.9597 1.56746 37.9597C1.56746 38.096 1.70376 38.096 1.70376 38.096L1.84007 38.2323C1.97637 38.3686 2.07859 38.3686 2.07859 38.4708L2.21489 38.6071C2.21489 38.6071 2.35119 38.6071 2.35119 38.7434C2.4875 38.8797 2.58972 38.9819 2.72602 38.9819C2.72602 38.9819 2.86232 38.9819 2.86232 39.1182C2.99863 39.2545 3.10085 39.2545 3.23715 39.3567H3.3053C3.4416 39.493 3.54383 39.493 3.78236 39.493C3.91866 39.493 4.15718 39.6293 4.25941 39.6293H4.39571C4.53201 39.6293 4.63424 39.6293 4.77054 39.7656H5.86095C6.23578 39.7656 6.4743 39.6293 6.81506 39.6293H6.95136C7.08766 39.6293 7.18988 39.493 7.32618 39.493H7.39434C7.53064 39.493 7.63286 39.3567 7.76916 39.3567H7.90546C8.14399 39.2204 8.51882 38.9819 8.75735 38.8797L9.13217 38.5048L9.26848 38.3686C11.2108 36.3241 14.3457 36.3241 16.2539 38.3686C18.4347 40.6515 22.0467 40.5493 24.0912 37.9937C25.5224 36.1878 25.5224 33.53 24.0912 31.5877C22.1489 29.1684 18.6733 29.0662 16.6287 30.9744L16.3902 31.2129L15.9132 31.5877C13.9709 33.1552 11.0745 33.0189 9.26848 31.2129L9.02995 30.9744L8.65512 30.4973C7.08766 28.5551 7.22396 25.6588 9.02995 23.8528C10.1204 22.8987 10.5974 21.5698 10.5974 20.2409V19.8661C10.5974 18.6735 10.1204 17.4468 9.16625 16.595C9.16625 16.4587 9.02995 16.4587 9.02995 16.3564L8.65512 15.8794C7.08766 13.9372 7.22396 11.0408 9.02995 9.23488L9.16625 9.09858L9.30255 8.96229C11.2448 6.91782 14.3798 6.91782 16.288 8.96229L16.4243 9.09858L16.5606 9.23488L16.7991 9.4734C16.9354 9.4734 16.9354 9.6097 17.0376 9.6097C17.1399 9.6097 17.1739 9.746 17.2762 9.746C17.3784 9.746 17.4125 9.88229 17.5147 9.88229C17.6169 9.88229 17.651 10.0186 17.7532 10.0186C17.8554 10.0186 17.8895 10.1549 17.9917 10.1549C18.094 10.1549 18.128 10.2912 18.2303 10.2912C18.3325 10.2912 18.3666 10.2912 18.4688 10.4275C18.6051 10.4275 18.6051 10.4275 18.7073 10.5638H20.7518C20.8881 10.5638 20.9904 10.5638 21.1267 10.4275H21.3652C21.5015 10.4275 21.6037 10.2912 21.74 10.2912H21.8763C22.0126 10.2912 22.1149 10.1549 22.3534 10.0527C22.8304 9.81414 23.3075 9.43933 23.6823 9.09858L23.8186 8.96229C25.7609 6.91782 28.8958 6.91782 30.804 8.96229C32.8486 11.3816 36.5968 11.2453 38.5391 8.72376C39.834 6.50892 39.834 3.85111 38.4028 2.04516Z" fill="#978ABF"/>
<path d="M65.9017 17.0032C65.1861 16.2876 64.5728 15.8106 63.7209 15.4357C63.0053 15.0609 62.1534 14.8224 61.063 14.8224C60.1089 14.8224 59.1207 15.0609 58.4052 15.4357C57.6896 15.8106 57.0762 16.2876 56.5992 17.0032C56.1221 17.6165 55.7473 18.3321 55.5088 19.1839C55.2702 20.0358 55.1339 20.8877 55.1339 21.7054C55.1339 22.5232 55.2702 23.4092 55.611 24.227C55.8495 25.0788 56.3266 25.6581 56.8036 26.2714C57.2807 26.8848 57.9963 27.3618 58.7459 27.7026C59.4615 28.0774 60.3134 28.1796 61.2675 28.1796C62.3579 28.1796 63.2098 27.9411 63.9254 27.5663C64.6409 27.1914 65.3565 26.7144 65.9699 25.9988L68.4915 28.6566C67.5373 29.747 66.4469 30.4626 65.2202 30.9396C64.0276 31.4167 62.6987 31.6552 61.2334 31.6552C59.8023 31.6552 58.337 31.4167 57.1444 30.9396C55.9517 30.4626 54.8613 29.747 54.0095 28.8952C53.1576 28.0433 52.442 26.9529 51.9649 25.7603C51.4879 24.5677 51.2494 23.1025 51.2494 21.6714C51.2494 20.2402 51.4879 18.775 51.9649 17.5824C52.442 16.3898 53.1576 15.2994 54.0095 14.3113C54.8613 13.4594 55.9517 12.7439 57.1444 12.2668C58.337 11.7898 59.8023 11.5513 61.2334 11.5513C62.6646 11.5513 63.9935 11.7898 65.2202 12.2668C66.5492 12.7439 67.6396 13.5957 68.5937 14.5498L65.9017 17.0032ZM74.0798 21.4669C74.0798 22.421 74.2161 23.4092 74.5569 24.1247C74.7954 24.9766 75.2724 25.6922 75.7495 26.3055C76.2265 26.9188 76.9421 27.3959 77.6918 27.6344C78.4074 28.0092 79.3955 28.1114 80.3496 28.1114C81.3038 28.1114 82.1556 27.9751 83.0075 27.6344C83.7231 27.2596 84.4387 26.7825 84.9498 26.3055C85.4269 25.6922 85.9039 24.9766 86.1424 24.1247C86.381 23.2729 86.6195 22.421 86.6195 21.4669C86.6195 20.5128 86.4832 19.5247 86.1424 18.8091C85.9039 17.9573 85.4269 17.2417 84.9498 16.6283C84.4728 16.015 83.7572 15.538 83.0075 15.2994C82.2919 14.9246 81.3038 14.8224 80.3496 14.8224C79.3955 14.8224 78.5437 14.9587 77.6918 15.2994C76.9762 15.6743 76.2606 16.1513 75.7495 16.6283C75.2724 17.2417 74.7954 17.9573 74.5569 18.8091C74.3183 19.661 74.0798 20.5128 74.0798 21.4669ZM70.2293 21.4669C70.2293 20.0358 70.4678 18.7069 70.9449 17.4802C71.4219 16.2876 72.1375 15.1972 73.1257 14.2091C74.0798 13.255 75.068 12.5053 76.3969 12.0283C77.5896 11.5513 78.9185 11.1764 80.3837 11.1764C81.849 11.1764 83.1438 11.415 84.3705 12.0283C85.5632 12.5053 86.6536 13.2209 87.6418 14.2091C88.5959 15.1631 89.2092 16.2535 89.8226 17.4802C90.2996 18.6728 90.5382 20.0017 90.5382 21.4669C90.5382 22.898 90.2996 24.227 89.8226 25.4536C89.3455 26.6462 88.6299 27.7366 87.6418 28.7248C86.6876 29.6789 85.6995 30.2922 84.3705 30.9056C83.1779 31.3826 81.849 31.7574 80.3837 31.7574C78.9526 31.7574 77.6236 31.5189 76.3969 30.9056C75.2043 30.4285 74.1139 29.7129 73.1257 28.7248C72.1716 27.7707 71.5582 26.7825 70.9449 25.4536C70.6041 24.227 70.2293 22.898 70.2293 21.4669ZM94.2524 31.2463H97.8643V11.9601H94.2524V31.2463ZM93.4005 4.9408C93.4005 4.22523 93.639 3.6119 94.1161 2.99856C94.5931 2.52152 95.2065 2.1467 95.922 2.1467C96.6376 2.1467 97.251 2.38522 97.728 2.99856C98.2051 3.4756 98.4436 4.19116 98.4436 4.9408C98.4436 5.69044 98.2051 6.26971 97.728 6.88305C97.251 7.36009 96.6376 7.73491 95.922 7.73491C95.2065 7.73491 94.5931 7.49639 94.1161 6.88305C93.639 6.37193 93.4005 5.65636 93.4005 4.9408ZM102.907 11.9261H106.554V14.9246H106.69C107.167 13.8342 107.882 12.9824 109.109 12.4031C110.2 11.7898 111.529 11.449 113.096 11.449C114.05 11.449 114.902 11.5853 115.754 11.9261C116.606 12.1646 117.321 12.6416 117.935 13.255C118.548 13.8683 119.025 14.5839 119.502 15.538C119.877 16.492 120.115 17.5824 120.115 18.9113V31.3485H116.435V19.8995C116.435 19.0476 116.299 18.1958 116.061 17.6165C115.822 17.0032 115.447 16.4239 115.106 16.0491C114.732 15.6743 114.255 15.3335 113.675 15.1972C113.198 15.0609 112.585 14.9587 111.972 14.9587C111.256 14.9587 110.54 15.095 109.927 15.3335C109.314 15.572 108.734 15.9469 108.223 16.5261C107.746 17.0032 107.371 17.7187 107.133 18.5706C106.894 19.4224 106.758 20.3765 106.758 21.4669V31.4848H103.146V11.9601M133.439 28.2137C134.393 28.2137 135.245 28.0774 136.097 27.7366C136.949 27.3618 137.528 26.8848 138.141 26.3055C138.618 25.6922 139.095 24.9766 139.334 24.1247C139.572 23.2729 139.811 22.421 139.811 21.3647C139.811 20.4106 139.675 19.4225 139.334 18.6047C139.095 17.7528 138.618 17.0372 138.141 16.4239C137.528 15.8106 136.949 15.3335 136.097 14.9928C135.245 14.6179 134.393 14.5157 133.439 14.5157C132.485 14.5157 131.633 14.652 130.781 14.9928C129.929 15.3676 129.35 15.8446 128.737 16.4239C128.259 17.0372 127.782 17.7528 127.544 18.6047C127.305 19.4565 127.067 20.3084 127.067 21.3647C127.067 22.3188 127.203 23.3069 127.544 24.1247C127.782 24.9766 128.259 25.6922 128.737 26.3055C129.214 26.9188 129.929 27.3959 130.781 27.7366C131.497 27.9752 132.485 28.2137 133.439 28.2137ZM143.457 31.11H139.845V28.35H139.709C138.993 29.4403 138.005 30.1559 136.812 30.7693C135.62 31.3826 134.291 31.6211 132.962 31.6211C131.531 31.6211 130.065 31.3826 128.873 30.9056C127.68 30.4285 126.59 29.7129 125.738 28.7248C124.886 27.7707 124.17 26.6803 123.796 25.4536C123.319 24.261 123.08 22.9321 123.08 21.4669C123.08 20.0017 123.319 18.7069 123.796 17.378C124.273 16.1854 124.886 15.095 125.738 14.1068C126.59 13.1528 127.68 12.4031 128.873 11.9261C130.065 11.449 131.394 11.2105 132.962 11.2105C134.291 11.2105 135.62 11.449 136.812 12.0624C138.005 12.6757 138.993 13.4935 139.572 14.4817H139.709V0H143.321V31.11H143.457ZM161.892 19.8995C161.892 19.0476 161.755 18.3321 161.517 17.6165C161.278 16.9009 160.904 16.2876 160.427 15.8106C159.95 15.3335 159.336 14.9587 158.723 14.618C158.007 14.3794 157.292 14.1409 156.303 14.1409C155.452 14.1409 154.6 14.2772 153.884 14.618C153.169 14.9928 152.555 15.3335 151.942 15.9469C151.465 16.4239 150.988 17.0372 150.749 17.7528C150.511 18.4684 150.272 19.0817 150.272 19.6951H161.858L161.892 19.8995ZM150.34 22.8981C150.34 23.7499 150.579 24.4655 150.954 25.181C151.328 25.8966 151.806 26.5099 152.385 26.987C152.998 27.464 153.714 27.8389 154.429 28.0774C155.281 28.3159 155.997 28.4522 156.849 28.4522C157.939 28.4522 159.029 28.2137 159.847 27.6003C160.699 27.1233 161.415 26.4077 162.13 25.5559L164.89 27.7366C162.846 30.3944 159.95 31.7233 156.338 31.7233C154.77 31.7233 153.441 31.4848 152.248 31.0078C151.056 30.5307 149.965 29.8152 149.114 28.827C148.262 27.8729 147.546 26.8848 147.171 25.5559C146.694 24.3632 146.456 23.0343 146.456 21.5691C146.456 20.138 146.694 18.8091 147.171 17.5824C147.648 16.3898 148.364 15.2994 149.216 14.3113C150.068 13.3572 151.158 12.7439 152.351 12.1305C153.543 11.6535 154.872 11.4149 156.338 11.4149C158.041 11.4149 159.472 11.6535 160.665 12.2668C161.858 12.8802 162.846 13.5957 163.561 14.5498C164.277 15.5039 164.89 16.5943 165.265 17.821C165.64 19.0136 165.742 20.2402 165.742 21.5691V22.8981H150.34ZM179.986 16.7646C179.509 16.2876 179.032 15.8106 178.418 15.4357C177.805 15.0609 176.987 14.8224 176.135 14.8224C175.283 14.8224 174.568 15.0609 173.852 15.4357C173.239 15.8106 172.898 16.2876 172.898 17.0032C172.898 17.6165 173.137 18.0936 173.511 18.3321C173.886 18.7069 174.363 18.9454 174.84 19.1839C175.317 19.4225 175.931 19.5588 176.408 19.661C177.021 19.7973 177.498 19.8995 177.839 19.8995C178.555 20.138 179.406 20.2743 180.02 20.6151C180.735 20.8536 181.349 21.2284 181.826 21.7054C182.303 22.1825 182.678 22.6595 183.018 23.2729C183.257 23.8862 183.495 24.6018 183.495 25.5559C183.495 26.6462 183.257 27.6003 182.78 28.3159C182.303 29.0315 181.69 29.747 180.974 30.2581C180.258 30.7693 179.406 31.11 178.452 31.3485C177.498 31.587 176.51 31.7233 175.692 31.7233C174.125 31.7233 172.694 31.4848 171.467 31.0078C170.274 30.5307 169.184 29.6789 168.196 28.35L170.956 26.067C171.569 26.6803 172.148 27.1574 172.898 27.6344C173.648 28.1114 174.466 28.35 175.556 28.35C176.033 28.35 176.51 28.35 176.987 28.2137C177.464 28.0774 177.839 27.9752 178.18 27.7366C178.555 27.4981 178.793 27.2596 179.032 27.0211C179.27 26.6462 179.406 26.3055 179.406 25.9307C179.406 25.4536 179.27 24.9766 178.929 24.6018C178.555 24.227 178.214 23.9884 177.737 23.7499C177.26 23.5114 176.783 23.3751 176.306 23.2729L174.874 22.8981C174.159 22.6595 173.307 22.5232 172.694 22.2847C171.978 22.0462 171.365 21.6714 170.888 21.3306C170.411 20.9558 169.934 20.3765 169.559 19.7632C169.184 19.1499 169.082 18.3321 169.082 17.4802C169.082 16.5261 169.32 15.538 169.695 14.8224C170.07 14.1068 170.649 13.4935 171.399 13.0165C172.114 12.5394 172.83 12.1646 173.682 11.9261C174.534 11.6875 175.488 11.5513 176.34 11.5513C177.669 11.5513 178.861 11.7898 180.088 12.2668C181.281 12.7439 182.269 13.5957 182.984 14.6861L179.986 16.7646ZM187.005 0.477051H190.617V20.0017L198.829 11.7898H203.77L194.979 20.4788L204.622 30.8374H199.443L190.651 20.9558V30.8374H187.039V0.477051" fill="#978ABF"/>
</svg>
