<svg width="97" height="23" viewBox="0 0 97 23" fill="none" xmlns="http://www.w3.org/2000/svg">
<g clip-path="url(#clip0_2_42767)">
<mask id="mask0_2_42767" style="mask-type:luminance" maskUnits="userSpaceOnUse" x="0" y="0" width="97" height="23">
<path d="M0.569336 0.14325H96.6392V22.1432H0.569336V0.14325Z" fill="white"/>
</mask>
<g mask="url(#mask0_2_42767)">
<path fill-rule="evenodd" clip-rule="evenodd" d="M80.1017 6.68156H82.83V3.95258H80.1017V6.68156ZM65.6 11.2262C66.1213 9.84347 67.4563 8.85896 69.0217 8.85896C70.5869 8.85896 71.9219 9.84347 72.4434 11.2262H65.6ZM69.0217 6.32167C65.6018 6.32167 62.8285 9.09516 62.8285 12.5165C62.8285 15.9379 65.6018 18.711 69.0217 18.711C71.3686 18.711 73.4102 17.4058 74.4611 15.482L72.1726 14.3715C71.5367 15.4498 70.364 16.1737 69.0217 16.1737C67.3258 16.1737 65.9002 15.0189 65.4866 13.4527H72.5566C72.5561 13.4538 72.5559 13.4554 72.5557 13.4568H75.1451C75.1919 13.1501 75.2161 12.836 75.2161 12.5165C75.2161 9.09516 72.4428 6.32167 69.0217 6.32167ZM75.9352 18.3807H78.6636V15.6518H75.9352V18.3807ZM80.1017 18.3807H82.83V7.88129H80.1017V18.3807ZM90.4452 16.1737C88.4257 16.1737 86.7886 14.5362 86.7886 12.5165C86.7886 10.4964 88.4257 8.85896 90.4452 8.85896C92.4646 8.85896 94.1017 10.4964 94.1017 12.5165C94.1017 14.5362 92.4646 16.1737 90.4452 16.1737ZM90.444 6.32167C87.0241 6.32167 84.2508 9.09516 84.2508 12.5165C84.2508 15.9379 87.0241 18.711 90.444 18.711C93.8651 18.711 96.6384 15.9379 96.6384 12.5165C96.6384 9.09516 93.8651 6.32167 90.444 6.32167ZM33.4007 10.233V13.0547H37.2155C37.0163 13.861 36.6225 14.5835 36.0578 15.1606C35.2061 16.0313 34.0251 16.511 32.7322 16.511C30.0492 16.511 27.8662 14.3277 27.8662 11.6439C27.8662 8.96006 30.0492 6.7765 32.7322 6.7765C34.1693 6.7765 35.4904 7.39177 36.4062 8.45296L38.5904 6.66787C37.1423 4.97041 34.9937 3.95463 32.7322 3.95463C28.4936 3.95463 25.0452 7.40409 25.0452 11.6439C25.0452 15.8836 28.4936 19.3329 32.7322 19.3329C34.7902 19.3329 36.6873 18.5912 38.0743 17.1735C39.2382 15.9836 40.0096 14.3238 40.1579 12.661C40.2302 11.8499 40.2368 11.0443 40.1942 10.233H33.4007ZM47.2975 16.1744C45.2781 16.1744 43.6408 14.5365 43.6408 12.5165C43.6408 10.4962 45.2781 8.85873 47.2975 8.85873C49.3172 8.85873 50.9545 10.4962 50.9545 12.5165C50.9545 14.5365 49.3172 16.1744 47.2975 16.1744ZM50.955 7.52892C49.9298 6.77719 48.6658 6.33217 47.2975 6.33217C43.8776 6.33217 41.1052 9.10543 41.1052 12.5261C41.1052 15.9473 43.8776 18.7201 47.2975 18.7201C48.6658 18.7201 49.9298 18.2753 50.955 17.5236V18.3807H53.4901V6.67175H50.955V7.52892ZM58.9322 3.9528H56.3968V6.68156H54.8773V9.07485H56.3968V15.338C56.3968 15.9847 56.4781 16.5288 56.6391 16.9558C56.7979 17.3782 57.0407 17.7089 57.3293 17.9672C57.6218 18.2294 57.965 18.4337 58.3718 18.5496C58.7852 18.666 59.2413 18.711 59.7234 18.711C60.2224 18.711 60.6673 18.6592 61.047 18.5567C61.3995 18.462 61.7374 18.328 62.0518 18.1578V16.2294C61.5517 16.4457 61.0842 16.524 60.5507 16.5489C59.9876 16.5753 59.6545 16.4144 59.3773 16.1502C59.0869 15.8734 58.9322 15.5125 58.9322 14.9073V9.07485H62.0518V6.68156H58.9322V3.9528Z" fill="white" fill-opacity="0.7"/>
</g>
<mask id="mask1_2_42767" style="mask-type:luminance" maskUnits="userSpaceOnUse" x="0" y="0" width="97" height="23">
<path d="M0.569336 0.14325H96.6392V22.1432H0.569336V0.14325Z" fill="white"/>
</mask>
<g mask="url(#mask1_2_42767)">
<path fill-rule="evenodd" clip-rule="evenodd" d="M11.5665 17.1943C8.22595 17.1943 5.5179 14.4858 5.5179 11.1443C5.5179 7.80304 8.22595 5.09413 11.5665 5.09413V0.144165C5.49257 0.144165 0.568848 5.06903 0.568848 11.1443C0.568848 17.2194 5.49257 22.1443 11.5665 22.1443C17.6401 22.1443 22.5641 17.2194 22.5641 11.1443H17.615C17.615 14.4858 14.907 17.1943 11.5665 17.1943Z" fill="white" fill-opacity="0.7"/>
</g>
<mask id="mask2_2_42767" style="mask-type:luminance" maskUnits="userSpaceOnUse" x="0" y="0" width="97" height="23">
<path d="M0.569336 0.14325H96.6392V22.1432H0.569336V0.14325Z" fill="white"/>
</mask>
<g mask="url(#mask2_2_42767)">
<path fill-rule="evenodd" clip-rule="evenodd" d="M11.5664 11.1436H17.615V5.09363H11.5664V11.1436Z" fill="white" fill-opacity="0.7"/>
</g>
</g>
<defs>
<clipPath id="clip0_2_42767">
<rect width="96.0699" height="22" fill="white" transform="translate(0.566345 0.15448)"/>
</clipPath>
</defs>
</svg>
