<svg width="124" height="33" viewBox="0 0 124 33" fill="none" xmlns="http://www.w3.org/2000/svg">
<path d="M46.8932 13.9302C46.5363 12.5272 45.6356 11.5003 43.8691 11.5003C41.2679 11.5003 40.1806 13.8103 40.1806 16.1535C40.1806 18.4967 41.2679 20.8086 43.8691 20.8086C45.7546 20.8086 46.798 19.389 46.961 17.61H49.035C48.8647 20.5357 46.809 22.5545 43.8691 22.5545C40.2318 22.5545 38.0571 19.6453 38.0571 16.1535C38.0571 12.6618 40.2318 9.75446 43.8691 9.75446C46.604 9.77105 48.7622 11.2938 49.0167 13.9302H46.8932ZM50.2926 17.8312C50.2926 15.1285 51.9071 13.1761 54.728 13.1761C57.5489 13.1761 59.1616 15.1285 59.1616 17.8312C59.1616 20.5339 57.5471 22.5028 54.728 22.5028C51.909 22.5028 50.2926 20.5523 50.2926 17.8312ZM57.2249 17.8312C57.2249 16.3084 56.4597 14.7174 54.728 14.7174C52.9963 14.7174 52.2293 16.3084 52.2293 17.8312C52.2293 19.354 52.9945 20.9653 54.728 20.9653C56.4616 20.9653 57.2249 19.3724 57.2249 17.8312ZM60.8274 10.0457H62.7642V11.8893H60.8274V10.0457ZM60.8274 13.4158H62.7642V22.265H60.8274V13.4158ZM64.873 13.4158H66.7035V14.7174L66.7383 14.7506C67.0164 14.2691 67.4157 13.8701 67.8959 13.5936C68.376 13.3172 68.9201 13.1732 69.4732 13.1761C71.3769 13.1761 72.5851 14.203 72.5851 16.1886V22.2724H70.6502V16.7029C70.6154 15.3165 70.0718 14.7174 68.9331 14.7174C67.6426 14.7174 66.8097 15.7443 66.8097 17.044V22.2632H64.873V13.4158ZM85.485 22.2632H84.1249L83.8028 20.827C82.6642 22.1267 81.6262 22.5545 80.1417 22.5545C76.5043 22.5545 74.3296 19.6453 74.3296 16.1535C74.3296 12.6618 76.5043 9.75446 80.1417 9.75446C82.7923 9.75446 85.0183 11.174 85.3404 13.9302H83.2756C83.0705 12.3207 81.6775 11.5003 80.149 11.5003C77.5496 11.5003 76.4604 13.8103 76.4604 16.1535C76.4604 18.4967 77.5496 20.8086 80.149 20.8086C82.3237 20.8436 83.5135 19.5181 83.5465 17.4551H80.3192V15.8291H85.485V22.2632ZM89.0363 18.3456C89.0363 19.7319 89.7832 20.9634 91.3978 20.9634C92.5199 20.9634 93.199 20.4675 93.5395 19.4886H95.3701C94.9454 21.4225 93.3143 22.4992 91.3941 22.4992C88.6483 22.4992 87.0959 20.5652 87.0959 17.8441C87.0959 15.3295 88.727 13.1725 91.3428 13.1725C94.1125 13.1725 95.8131 15.689 95.489 18.3345L89.0363 18.3456ZM93.556 17.055C93.4882 15.8235 92.6553 14.7119 91.3465 14.7119C90.0047 14.7119 89.0876 15.7387 89.0363 17.055H93.556ZM102.903 16.3766C102.749 15.2981 101.967 14.7174 100.889 14.7174C99.8879 14.7174 98.4765 15.2483 98.4765 17.9344C98.4765 19.4093 99.1227 20.9634 100.805 20.9634C101.927 20.9634 102.709 20.2113 102.895 18.9447H104.832C104.466 21.2363 103.066 22.5028 100.805 22.5028C98.0591 22.5028 96.5398 20.5357 96.5398 17.9344C96.5398 15.2649 97.9841 13.1761 100.873 13.1761C102.912 13.1761 104.645 14.203 104.832 16.3766H102.903ZM106.471 10.0457H108.409V16.9924L111.918 13.4158H114.298L110.933 16.6679L114.622 22.2632H112.248L109.564 17.9676L108.409 19.0977V22.2632H106.471V10.0457ZM115.138 17.8312C115.138 15.1285 116.753 13.1761 119.572 13.1761C122.391 13.1761 124 15.1285 124 17.8312C124 20.5339 122.385 22.5028 119.565 22.5028C116.744 22.5028 115.138 20.5523 115.138 17.8312ZM122.071 17.8312C122.071 16.3084 121.305 14.7174 119.572 14.7174C117.838 14.7174 117.075 16.3084 117.075 17.8312C117.075 19.354 117.84 20.9653 119.572 20.9653C121.304 20.9653 122.071 19.3724 122.071 17.8312Z" fill="white" fill-opacity="0.7"/>
<path d="M29.9301 16.0952C29.9416 18.7092 29.1778 21.2679 27.7352 23.4478C26.2926 25.6276 24.236 27.3308 21.8254 28.3418C19.4149 29.3529 16.7587 29.6264 14.1927 29.1279C11.6266 28.6294 9.26607 27.3812 7.40944 25.5411C5.55281 23.701 4.2835 21.3517 3.76202 18.7903C3.24054 16.2288 3.49031 13.5703 4.47974 11.1508C5.46917 8.73128 7.15383 6.65951 9.32069 5.19743C11.4876 3.73536 14.0393 2.94864 16.6533 2.93678C20.1588 2.92123 23.5269 4.29879 26.0167 6.76645C28.5066 9.2341 29.9142 12.5897 29.9301 16.0952Z" fill="white" fill-opacity="0.7"/>
<path d="M28.9352 16.0987C28.9462 18.5158 28.2402 20.8819 26.9064 22.8977C25.5727 24.9136 23.6712 26.4887 21.4423 27.4238C19.2134 28.359 16.7572 28.6122 14.3844 28.1514C12.0116 27.6907 9.82874 26.5367 8.1118 24.8353C6.39486 23.134 5.22099 20.9617 4.73863 18.5932C4.25626 16.2247 4.48707 13.7663 5.40187 11.529C6.31666 9.29166 7.87435 7.37584 9.87797 6.0238C11.8816 4.67176 14.2411 3.94421 16.6582 3.93317C18.2631 3.92584 19.8538 4.2347 21.3393 4.84211C22.8249 5.44952 24.1763 6.34359 25.3163 7.47327C26.4563 8.60295 27.3627 9.94611 27.9836 11.4261C28.6045 12.906 28.9279 14.4938 28.9352 16.0987Z" fill="#414141" fill-opacity="0.7"/>
<path d="M16.9321 4.72456C17.7091 4.58587 18.5045 4.58587 19.2814 4.72456C20.0658 4.84886 20.824 5.103 21.5248 5.47655C22.2211 5.85951 22.8241 6.37894 23.4229 6.86913C24.0217 7.35932 24.6191 7.85507 25.1873 8.40096C25.7667 8.93769 26.2724 9.54877 26.6913 10.2183C27.1232 10.8833 27.477 11.5959 27.7455 12.342C28.2679 13.8322 28.4166 15.4279 28.1786 16.989H28.1006C27.8712 15.4976 27.4876 14.034 26.9559 12.6219C26.7011 11.9235 26.401 11.2425 26.0577 10.5831C25.6968 9.92569 25.2998 9.28877 24.8684 8.6753C24.4284 8.05438 23.8892 7.51005 23.2725 7.06409C22.6528 6.62264 21.9398 6.33577 21.2491 6.06422C20.5584 5.79267 19.8677 5.52251 19.1505 5.31502C18.4333 5.10752 17.6994 4.95295 16.9349 4.80255L16.9321 4.72456Z" fill="white" fill-opacity="0.7"/>
<path d="M22.9113 11.7808C22.0242 11.5232 21.1009 11.1597 20.1735 10.7921C20.1206 10.5581 19.9131 10.2671 19.4953 9.91196C18.8867 9.38417 17.7448 9.39809 16.7575 9.63344C15.6685 9.37721 14.592 9.28669 13.5546 9.53457C5.10858 11.8602 9.89905 17.5461 6.79639 23.2556C7.23783 24.1914 11.9963 29.6615 18.8812 28.1895C18.8812 28.1895 16.5277 22.5315 21.8404 19.816C26.1504 17.6059 29.2656 13.5145 22.9113 11.7808Z" fill="white" fill-opacity="0.7"/>
<path d="M23.9534 15.5003C23.9542 15.6018 23.9249 15.7012 23.8692 15.786C23.8134 15.8708 23.7337 15.9371 23.6403 15.9766C23.5468 16.0161 23.4437 16.0269 23.344 16.0077C23.2444 15.9885 23.1527 15.9402 23.0805 15.8688C23.0084 15.7975 22.9591 15.7063 22.9388 15.6069C22.9185 15.5074 22.9282 15.4042 22.9667 15.3103C23.0051 15.2164 23.0706 15.136 23.1548 15.0794C23.2389 15.0227 23.3381 14.9923 23.4395 14.992C23.5066 14.9916 23.5732 15.0045 23.6353 15.0298C23.6975 15.0552 23.754 15.0925 23.8017 15.1397C23.8494 15.1869 23.8874 15.2431 23.9134 15.3049C23.9394 15.3668 23.953 15.4332 23.9534 15.5003Z" fill="white" fill-opacity="0.7"/>
<path d="M16.7535 9.63076C17.3691 9.67532 19.5958 10.4022 20.1695 10.7922C19.6947 9.39959 18.0807 9.21856 16.7535 9.63076Z" fill="white" fill-opacity="0.7"/>
<path d="M17.3418 13.1433C17.3418 13.6115 17.203 14.0692 16.9428 14.4585C16.6827 14.8478 16.313 15.1512 15.8804 15.3304C15.4478 15.5096 14.9718 15.5565 14.5126 15.4651C14.0534 15.3738 13.6315 15.1483 13.3004 14.8172C12.9694 14.4862 12.7439 14.0643 12.6525 13.6051C12.5612 13.1459 12.6081 12.6699 12.7873 12.2373C12.9664 11.8047 13.2699 11.435 13.6592 11.1749C14.0485 10.9147 14.5062 10.7759 14.9744 10.7759C15.6023 10.7759 16.2045 11.0253 16.6484 11.4693C17.0924 11.9132 17.3418 12.5154 17.3418 13.1433Z" fill="white" fill-opacity="0.7"/>
<path d="M16.6397 13.164C16.64 13.4929 16.5427 13.8146 16.3601 14.0882C16.1776 14.3618 15.918 14.5751 15.6142 14.7012C15.3104 14.8273 14.976 14.8604 14.6534 14.7964C14.3308 14.7324 14.0344 14.5741 13.8017 14.3416C13.569 14.1092 13.4105 13.8129 13.3463 13.4903C13.282 13.1677 13.3148 12.8333 13.4406 12.5294C13.5665 12.2255 13.7796 11.9658 14.053 11.783C14.3265 11.6002 14.648 11.5027 14.9769 11.5027C15.4176 11.5031 15.8401 11.6782 16.1518 11.9896C16.4635 12.301 16.6389 12.7234 16.6397 13.164Z" fill="#737373" fill-opacity="0.7"/>
<path d="M25.8649 16.5417C23.9501 17.8912 21.7721 18.9091 18.6834 18.9091C17.2379 18.9091 16.9455 17.3773 15.9901 18.1265C15.4958 18.515 13.762 19.3798 12.3764 19.3185C10.9908 19.2573 8.75572 18.4426 8.13602 15.4973C7.88953 18.4426 7.76281 20.6122 6.6571 23.0994C8.86016 26.6268 14.1116 29.3465 18.877 28.1767C18.3659 24.6006 21.4908 21.0969 23.2524 19.3046C23.9181 18.6264 25.202 17.5179 25.8649 16.5362V16.5417Z" fill="white" fill-opacity="0.7"/>
<path d="M25.7898 16.632C25.1798 17.1566 24.4991 17.593 23.7678 17.9285C23.0388 18.2748 22.2788 18.5518 21.4979 18.7556C20.718 18.9576 19.902 19.1094 19.0762 19.0342C18.2504 18.959 17.4051 18.6777 16.8606 18.0594L16.8871 18.0287C17.5611 18.4646 18.3312 18.6178 19.0999 18.6401C19.8803 18.6627 20.6609 18.5978 21.4269 18.4465C22.2007 18.2852 22.9578 18.0521 23.6884 17.7502C24.4308 17.4667 25.1297 17.0805 25.7647 16.6027L25.7898 16.632Z" fill="white" fill-opacity="0.7"/>
</svg>
