<svg width="247" height="41" viewBox="0 0 247 41" fill="none" xmlns="http://www.w3.org/2000/svg">
<path fill-rule="evenodd" clip-rule="evenodd" d="M11.2782 11.4284L0 0V28.5712L11.2782 39.9997V29.1427L21.9925 39.9997H38.3459L24.812 26.2856H11.2782V11.4284Z" fill="black"/>
<path fill-rule="evenodd" clip-rule="evenodd" d="M54.1353 9.71416V39.9995H62.594L62.594 25.714L72.1805 39.9995H82.3308L71.5096 24.3347L82.3308 9.71416H72.1805L62.594 22.8568L62.594 9.71416H54.1353Z" fill="black"/>
<path d="M84.0226 39.9995V9.71416H92.4812V39.9995H84.0226Z" fill="black"/>
<path fill-rule="evenodd" clip-rule="evenodd" d="M95.4341 17.0572C96.2294 17.8848 97.2269 18.2986 98.4268 18.2986C99.6546 18.2986 100.659 17.8848 101.44 17.0572C102.222 16.2297 102.612 15.2127 102.612 14.0064C102.612 12.8001 102.222 11.7831 101.44 10.9555C100.659 10.128 99.6546 9.71416 98.4268 9.71416C97.2269 9.71416 96.2294 10.128 95.4341 10.9555C94.6389 11.7831 94.2412 12.8001 94.2412 14.0064C94.2412 15.2127 94.6389 16.2297 95.4341 17.0572ZM94.1729 19.4278V39.999H102.632V19.4278H94.1729Z" fill="black"/>
<path fill-rule="evenodd" clip-rule="evenodd" d="M127.444 9.71416V39.9993H135.902V9.71416H127.444ZM135.902 30.2853L140.977 39.9995H150L143.53 28.9043L149.436 19.4283H140.414L135.902 27.4282V28.8648V30.2853Z" fill="black"/>
<path fill-rule="evenodd" clip-rule="evenodd" d="M104.323 19.4283V39.9995H112.782V22.2855C112.782 22.2858 112.782 22.2859 112.782 22.2859C112.782 22.2859 112.785 26.9526 112.782 28.8573C112.782 28.3243 112.889 27.9502 113.098 27.5714C113.308 27.1927 113.6 26.9052 113.977 26.7088C114.354 26.5124 114.779 26.4142 115.254 26.4142C115.951 26.4142 116.53 26.6316 116.991 27.0665C117.451 27.5013 117.681 28.1255 117.681 28.9391L117.681 40H125.752L125.752 27.0454C125.752 25.143 125.55 24.2471 124.881 23.1109C124.211 21.9747 123.297 21.077 122.139 20.4177C120.981 19.7585 119.663 19.4288 118.184 19.4288C116.537 19.4288 114.85 19.5087 113.768 20.3967C112.93 21.0847 112.799 21.8408 112.782 22.1464V19.4283H104.323ZM112.782 22.2855C112.782 22.2801 112.777 22.2302 112.782 22.1464V22.2855Z" fill="black"/>
<ellipse cx="27.6316" cy="15.4284" rx="5.6391" ry="5.71421" fill="#7660FF"/>
<mask id="path-8-outside-1_2_42846" maskUnits="userSpaceOnUse" x="154.212" y="19" width="86" height="22" fill="black">
<rect fill="white" x="154.212" y="19" width="86" height="22"/>
<path fill-rule="evenodd" clip-rule="evenodd" d="M239.212 23.3487C239.212 21.5095 237.702 20.0185 235.841 20.0185L169.249 20.0185C169.011 20.0185 168.778 20.0135 168.554 20.0088C168.133 19.9998 167.741 19.9914 167.393 20.0176L166.803 20.0176C165.385 20.0176 164.033 20.6201 163.085 21.6751L156.121 29.4223C155.803 30.0041 155.803 30.9412 156.121 31.523L163.508 38.6077C164.439 39.5006 165.677 39.9991 166.967 39.9991L168.801 39.9991L168.801 39.9709C168.948 39.9901 169.097 40 169.249 40L235.841 40C237.702 40 239.212 38.509 239.212 36.6697L239.212 23.3487Z"/>
</mask>
<path fill-rule="evenodd" clip-rule="evenodd" d="M239.212 23.3487C239.212 21.5095 237.702 20.0185 235.841 20.0185L169.249 20.0185C169.011 20.0185 168.778 20.0135 168.554 20.0088C168.133 19.9998 167.741 19.9914 167.393 20.0176L166.803 20.0176C165.385 20.0176 164.033 20.6201 163.085 21.6751L156.121 29.4223C155.803 30.0041 155.803 30.9412 156.121 31.523L163.508 38.6077C164.439 39.5006 165.677 39.9991 166.967 39.9991L168.801 39.9991L168.801 39.9709C168.948 39.9901 169.097 40 169.249 40L235.841 40C237.702 40 239.212 38.509 239.212 36.6697L239.212 23.3487Z" fill="url(#paint0_linear_2_42846)"/>
<path d="M235.841 20.0185L235.841 19.25L235.841 20.0185ZM239.212 23.3487L238.443 23.3487L239.212 23.3487ZM169.249 20.0185L169.249 20.787L169.249 20.0185ZM168.554 20.0088L168.537 20.7771L168.554 20.0088ZM167.393 20.0176L167.393 20.7861L167.422 20.7861L167.451 20.7839L167.393 20.0176ZM166.803 20.0176L166.803 19.2491L166.803 19.2491L166.803 20.0176ZM163.085 21.6751L163.656 22.1888L163.085 21.6751ZM156.121 29.4223L155.549 28.9085L155.489 28.9751L155.446 29.0537L156.121 29.4223ZM156.121 31.523L155.446 31.8915L155.503 31.9956L155.589 32.0777L156.121 31.523ZM163.508 38.6077L164.04 38.0531L164.04 38.0531L163.508 38.6077ZM166.967 39.9991L166.967 40.7676L166.967 39.9991ZM168.801 39.9991L168.801 40.7676L169.57 40.7676L169.57 39.9991L168.801 39.9991ZM168.801 39.9709L168.901 39.2089L168.033 39.095L168.033 39.9709L168.801 39.9709ZM169.249 40L169.249 40.7685L169.249 40ZM235.841 40L235.841 39.2315L235.841 40ZM239.212 36.6697L239.98 36.6697L239.212 36.6697ZM235.841 20.787C237.287 20.787 238.443 21.9427 238.443 23.3487L239.98 23.3487C239.98 21.0763 238.118 19.25 235.841 19.25L235.841 20.787ZM169.249 20.787L235.841 20.787L235.841 19.25L169.249 19.25L169.249 20.787ZM168.537 20.7771C168.761 20.7819 169.001 20.787 169.249 20.787L169.249 19.25C169.02 19.25 168.796 19.2452 168.57 19.2404L168.537 20.7771ZM167.451 20.7839C167.754 20.7611 168.106 20.7679 168.537 20.7771L168.57 19.2404C168.159 19.2317 167.727 19.2217 167.336 19.2512L167.451 20.7839ZM167.393 19.2491L166.803 19.2491L166.803 20.7861L167.393 20.7861L167.393 19.2491ZM166.803 19.2491C165.167 19.2491 163.607 19.9442 162.513 21.1613L163.656 22.1888C164.459 21.296 165.603 20.7861 166.803 20.7861L166.803 19.2491ZM162.513 21.1613L155.549 28.9085L156.692 29.936L163.656 22.1888L162.513 21.1613ZM155.446 29.0537C155.211 29.4849 155.114 29.9992 155.114 30.4726C155.114 30.946 155.211 31.4603 155.446 31.8915L156.795 31.1545C156.713 31.0038 156.651 30.7587 156.651 30.4726C156.651 30.1866 156.713 29.9415 156.795 29.7908L155.446 29.0537ZM155.589 32.0777L162.976 39.1624L164.04 38.0531L156.653 30.9683L155.589 32.0777ZM162.976 39.1624C164.05 40.1922 165.478 40.7676 166.967 40.7676L166.967 39.2306C165.875 39.2306 164.828 38.8089 164.04 38.0531L162.976 39.1624ZM166.967 40.7676L168.801 40.7676L168.801 39.2306L166.967 39.2306L166.967 40.7676ZM169.57 39.9991L169.57 39.9709L168.033 39.9709L168.033 39.9991L169.57 39.9991ZM169.249 39.2315C169.131 39.2315 169.015 39.2238 168.901 39.2089L168.702 40.7329C168.881 40.7564 169.064 40.7685 169.249 40.7685L169.249 39.2315ZM235.841 39.2315L169.249 39.2315L169.249 40.7685L235.841 40.7685L235.841 39.2315ZM238.443 36.6697C238.443 38.0758 237.287 39.2315 235.841 39.2315L235.841 40.7685C238.118 40.7685 239.98 38.9422 239.98 36.6697L238.443 36.6697ZM238.443 23.3487L238.443 36.6697L239.98 36.6697L239.98 23.3487L238.443 23.3487Z" fill="#9A8AFE" mask="url(#path-8-outside-1_2_42846)"/>
<path d="M224.345 26.1084H226.375L228.518 31.3378H228.609L230.753 26.1084H232.782V33.8918H231.186V28.8257H231.121L229.107 33.8538H228.02L226.006 28.8067H225.941V33.8918H224.345V26.1084Z" fill="white"/>
<path d="M217.786 33.8918V26.1084H223.031V27.4652H219.432V29.3198H222.761V30.6766H219.432V32.535H223.046V33.8918H217.786Z" fill="white"/>
<path d="M210.345 27.4652V26.1084H216.737V27.4652H214.354V33.8918H212.728V27.4652H210.345Z" fill="white"/>
<path d="M207.85 28.3478C207.819 28.0412 207.689 27.8031 207.458 27.6333C207.228 27.4636 206.915 27.3787 206.519 27.3787C206.251 27.3787 206.024 27.4167 205.839 27.4927C205.654 27.5662 205.512 27.6688 205.414 27.8005C205.317 27.9323 205.269 28.0818 205.269 28.249C205.264 28.3883 205.293 28.51 205.356 28.6138C205.422 28.7177 205.512 28.8077 205.626 28.8837C205.74 28.9571 205.872 29.0218 206.022 29.0775C206.171 29.1307 206.331 29.1763 206.5 29.2143L207.2 29.3815C207.539 29.4575 207.851 29.5589 208.135 29.6856C208.418 29.8123 208.664 29.9681 208.872 30.153C209.08 30.338 209.241 30.5559 209.355 30.8067C209.471 31.0575 209.531 31.3451 209.533 31.6694C209.531 32.1457 209.409 32.5587 209.168 32.9084C208.93 33.2555 208.586 33.5253 208.135 33.7179C207.686 33.9079 207.145 34.0029 206.512 34.0029C205.883 34.0029 205.336 33.9066 204.87 33.7141C204.406 33.5215 204.044 33.2365 203.783 32.859C203.525 32.4789 203.389 32.0089 203.376 31.449H204.969C204.987 31.71 205.061 31.9279 205.193 32.1027C205.327 32.275 205.506 32.4054 205.729 32.4941C205.954 32.5803 206.209 32.6233 206.493 32.6233C206.772 32.6233 207.013 32.5828 207.219 32.5017C207.426 32.4206 207.587 32.3079 207.701 32.1635C207.815 32.0191 207.872 31.8531 207.872 31.6656C207.872 31.4908 207.82 31.3438 207.717 31.2248C207.615 31.1057 207.466 31.0043 207.268 30.9207C207.073 30.8371 206.834 30.7611 206.55 30.6927L205.702 30.4799C205.046 30.3203 204.528 30.0707 204.148 29.7312C203.768 29.3917 203.579 28.9343 203.582 28.3592C203.579 27.8879 203.705 27.4762 203.958 27.1241C204.214 26.7719 204.565 26.497 205.011 26.2994C205.457 26.1017 205.963 26.0029 206.531 26.0029C207.108 26.0029 207.613 26.1017 208.043 26.2994C208.477 26.497 208.814 26.7719 209.054 27.1241C209.295 27.4762 209.419 27.8841 209.427 28.3478H207.85Z" fill="white"/>
<path d="M195.419 26.1084H197.263L199.037 29.4604H199.113L200.888 26.1084H202.731L199.892 31.1402V33.8918H198.258V31.1402L195.419 26.1084Z" fill="white"/>
<path d="M193.08 28.3478C193.049 28.0412 192.919 27.8031 192.688 27.6333C192.458 27.4636 192.145 27.3787 191.75 27.3787C191.481 27.3787 191.254 27.4167 191.069 27.4927C190.884 27.5662 190.742 27.6688 190.644 27.8005C190.547 27.9323 190.499 28.0818 190.499 28.249C190.494 28.3883 190.523 28.51 190.587 28.6138C190.652 28.7177 190.742 28.8077 190.856 28.8837C190.97 28.9571 191.102 29.0218 191.252 29.0775C191.401 29.1307 191.561 29.1763 191.731 29.2143L192.43 29.3815C192.769 29.4575 193.081 29.5589 193.365 29.6856C193.648 29.8123 193.894 29.9681 194.102 30.153C194.31 30.338 194.471 30.5559 194.585 30.8067C194.701 31.0575 194.761 31.3451 194.763 31.6694C194.761 32.1457 194.639 32.5587 194.398 32.9084C194.16 33.2555 193.816 33.5253 193.365 33.7179C192.916 33.9079 192.375 34.0029 191.742 34.0029C191.114 34.0029 190.566 33.9066 190.1 33.7141C189.636 33.5215 189.274 33.2365 189.013 32.859C188.755 32.4789 188.619 32.0089 188.607 31.449H190.199C190.217 31.71 190.291 31.9279 190.423 32.1027C190.557 32.275 190.736 32.4054 190.959 32.4941C191.185 32.5803 191.439 32.6233 191.723 32.6233C192.002 32.6233 192.244 32.5828 192.449 32.5017C192.657 32.4206 192.817 32.3079 192.931 32.1635C193.045 32.0191 193.102 31.8531 193.102 31.6656C193.102 31.4908 193.051 31.3438 192.947 31.2248C192.845 31.1057 192.696 31.0043 192.498 30.9207C192.303 30.8371 192.064 30.7611 191.78 30.6927L190.932 30.4799C190.276 30.3203 189.758 30.0707 189.378 29.7312C188.998 29.3917 188.809 28.9343 188.812 28.3592C188.809 27.8879 188.935 27.4762 189.188 27.1241C189.444 26.7719 189.795 26.497 190.241 26.2994C190.687 26.1017 191.193 26.0029 191.761 26.0029C192.339 26.0029 192.843 26.1017 193.274 26.2994C193.707 26.497 194.044 26.7719 194.284 27.1241C194.525 27.4762 194.649 27.8841 194.657 28.3478H193.08Z" fill="white"/>
<path d="M187.638 30.001C187.638 30.8498 187.477 31.5719 187.156 32.1673C186.836 32.7627 186.401 33.2175 185.848 33.5317C185.299 33.8433 184.68 33.9991 183.994 33.9991C183.302 33.9991 182.681 33.842 182.132 33.5279C181.582 33.2137 181.147 32.7589 180.828 32.1635C180.509 31.5681 180.349 30.8473 180.349 30.001C180.349 29.1522 180.509 28.4302 180.828 27.8347C181.147 27.2393 181.582 26.7858 182.132 26.4742C182.681 26.16 183.302 26.0029 183.994 26.0029C184.68 26.0029 185.299 26.16 185.848 26.4742C186.401 26.7858 186.836 27.2393 187.156 27.8347C187.477 28.4302 187.638 29.1522 187.638 30.001ZM185.97 30.001C185.97 29.4512 185.888 28.9876 185.723 28.61C185.561 28.2325 185.332 27.9462 185.035 27.7511C184.739 27.556 184.392 27.4585 183.994 27.4585C183.596 27.4585 183.249 27.556 182.952 27.7511C182.656 27.9462 182.425 28.2325 182.261 28.61C182.099 28.9876 182.018 29.4512 182.018 30.001C182.018 30.5508 182.099 31.0145 182.261 31.392C182.425 31.7695 182.656 32.0558 182.952 32.2509C183.249 32.446 183.596 32.5435 183.994 32.5435C184.392 32.5435 184.739 32.446 185.035 32.2509C185.332 32.0558 185.561 31.7695 185.723 31.392C185.888 31.0145 185.97 30.5508 185.97 30.001Z" fill="white"/>
<path d="M179.306 28.8343H177.642C177.611 28.6189 177.549 28.4276 177.456 28.2604C177.362 28.0906 177.242 27.9462 177.095 27.8271C176.948 27.7081 176.778 27.6168 176.585 27.5535C176.395 27.4902 176.189 27.4585 175.966 27.4585C175.563 27.4585 175.212 27.5586 174.913 27.7587C174.614 27.9564 174.382 28.2452 174.218 28.6252C174.053 29.0028 173.971 29.4613 173.971 30.001C173.971 30.5559 174.053 31.0221 174.218 31.3996C174.385 31.7771 174.618 32.0621 174.917 32.2547C175.216 32.4473 175.562 32.5435 175.954 32.5435C176.175 32.5435 176.379 32.5144 176.566 32.4561C176.756 32.3978 176.925 32.313 177.072 32.2015C177.219 32.0875 177.34 31.9494 177.437 31.7872C177.535 31.6251 177.604 31.4401 177.642 31.2324L179.306 31.24C179.263 31.5972 179.156 31.9418 178.983 32.2737C178.814 32.6031 178.584 32.8982 178.296 33.1592C178.009 33.4176 177.667 33.6229 177.269 33.7749C176.874 33.9244 176.427 33.9991 175.928 33.9991C175.234 33.9991 174.613 33.842 174.066 33.5279C173.521 33.2137 173.09 32.7589 172.774 32.1635C172.459 31.5681 172.302 30.8473 172.302 30.001C172.302 29.1522 172.462 28.4302 172.781 27.8347C173.1 27.2393 173.534 26.7858 174.081 26.4742C174.628 26.16 175.244 26.0029 175.928 26.0029C176.379 26.0029 176.797 26.0663 177.182 26.1929C177.57 26.3196 177.913 26.5046 178.212 26.7478C178.511 26.9885 178.754 27.2837 178.942 27.6333C179.132 27.983 179.253 28.3833 179.306 28.8343Z" fill="white"/>
<path d="M165.888 33.8918V26.1084H171.133V27.4652H167.534V29.3198H170.863V30.6766H167.534V32.535H171.148V33.8918H165.888Z" fill="white"/>
<defs>
<linearGradient id="paint0_linear_2_42846" x1="197.547" y1="20" x2="197.547" y2="40" gradientUnits="userSpaceOnUse">
<stop stop-color="#674EFF"/>
<stop offset="1" stop-color="#714EBD"/>
</linearGradient>
</defs>
</svg>
