<svg width="105" height="25" viewBox="0 0 105 25" fill="none" xmlns="http://www.w3.org/2000/svg">
<path d="M81.9177 12.1538C81.9177 11.5527 81.9177 10.9517 81.9177 10.4364C81.9177 9.92124 81.8318 9.40603 81.746 8.9767C81.6601 8.54736 81.4884 8.11802 81.3166 7.68868C81.1449 7.25934 80.8014 6.91587 80.458 6.5724C79.9428 6.0572 79.4276 5.71373 78.7406 5.37026C78.0537 5.11265 77.3667 4.94092 76.5939 4.94092C75.8211 4.94092 75.1342 5.02679 74.4472 5.37026C73.8462 5.62786 73.2451 6.0572 72.7299 6.48653C72.3864 6.83001 72.1288 7.17348 71.8712 7.60282C71.6995 8.03215 71.5277 8.46149 71.4419 8.89083C71.356 9.40604 71.2701 9.92124 71.2701 10.3506C71.2701 10.8658 71.2701 11.4669 71.2701 12.0679C71.2701 12.669 71.2701 13.2701 71.2701 13.7853C71.2701 14.3005 71.356 14.8157 71.4419 15.245C71.5277 15.6744 71.6995 16.1037 71.8712 16.533C72.0429 16.9624 72.3864 17.3059 72.7299 17.6493C73.2451 18.1645 73.7603 18.508 74.4472 18.7656C75.1342 19.0232 75.907 19.1949 76.5939 19.1949C77.3667 19.1949 78.0537 19.1091 78.7406 18.7656C79.3417 18.508 79.9428 18.0787 80.458 17.6493C80.8014 17.3059 81.059 16.9624 81.3166 16.533C81.4884 16.1037 81.6601 15.6744 81.746 15.245C81.8318 14.7298 81.9177 14.2146 81.9177 13.7853C81.9177 13.3559 82.0036 12.7549 81.9177 12.1538ZM79.17 12.1538C79.17 12.8407 79.17 13.4418 79.17 13.8712C79.17 14.2146 79.0841 14.644 79.0841 14.9874C79.0841 15.245 78.9982 15.5026 78.8265 15.6744C78.7406 15.8461 78.6547 16.0178 78.483 16.1896C78.3113 16.4472 78.0537 16.6189 77.7102 16.7048C77.3667 16.8765 77.0233 16.8765 76.6798 16.8765C76.3363 16.8765 75.9929 16.7907 75.6494 16.7048C75.3918 16.6189 75.0483 16.3613 74.8766 16.1896C74.7048 16.0178 74.619 15.8461 74.5331 15.6744C74.4472 15.4168 74.3614 15.245 74.3614 14.9874C74.2755 14.644 74.2755 14.2146 74.2755 13.8712C74.2755 13.4418 74.2755 12.8407 74.2755 12.1538C74.2755 11.4669 74.2755 10.8658 74.2755 10.4364C74.2755 10.093 74.3614 9.66364 74.3614 9.32017C74.3614 9.06257 74.4472 8.80496 74.5331 8.63323C74.619 8.46149 74.7048 8.28976 74.8766 8.11802C75.0483 7.86042 75.3918 7.68868 75.6494 7.60282C75.9929 7.43108 76.3363 7.43108 76.6798 7.43108C77.0233 7.43108 77.3667 7.51695 77.7102 7.60282C77.9678 7.68868 78.2254 7.94629 78.483 8.11802C78.6547 8.28976 78.7406 8.46149 78.8265 8.63323C78.9123 8.89083 78.9982 9.06257 79.0841 9.32017C79.17 9.66364 79.17 10.093 79.17 10.4364C79.17 10.9517 79.17 11.4669 79.17 12.1538Z" fill="white" fill-opacity="0.7"/>
<path d="M104.072 5.28574C104.072 5.114 103.986 5.02814 103.814 5.02814H101.581C101.41 5.02814 101.324 5.114 101.324 5.28574V13.7866L95.7424 5.114C95.7424 5.02814 95.6565 5.02814 95.5707 5.02814H93.424C93.2522 5.02814 93.1664 5.114 93.1664 5.28574V19.0246C93.1664 19.1963 93.2522 19.2822 93.424 19.2822H95.7424C95.9141 19.2822 96 19.1963 96 19.0246V10.5237L101.581 19.1963C101.581 19.2822 101.667 19.2822 101.753 19.2822H103.9C104.072 19.2822 104.157 19.1963 104.157 19.0246L104.072 5.28574Z" fill="white" fill-opacity="0.7"/>
<path d="M88.7012 5.28574C88.7012 5.114 88.6154 5.02814 88.4436 5.02814H86.1252C85.9535 5.02814 85.8676 5.114 85.8676 5.28574V19.0246C85.8676 19.1963 85.9535 19.2822 86.1252 19.2822H88.4436C88.6154 19.2822 88.7012 19.1963 88.7012 19.0246V5.28574Z" fill="white" fill-opacity="0.7"/>
<path d="M61.3108 12.1542C61.3108 11.4672 61.3108 10.8661 61.3108 10.4368C61.3108 10.0933 61.3967 9.664 61.3967 9.32052C61.5684 8.11838 62.513 7.34557 63.7151 7.34557C64.4879 7.34557 65.1749 7.60317 65.6901 8.29011C65.8618 8.63358 66.0335 8.97705 66.1194 9.32052C66.1194 9.32052 66.1194 9.40639 66.2053 9.40639H68.9531C68.9531 9.40639 69.0389 9.40639 69.0389 9.32052C68.7813 7.68904 67.8368 6.14342 66.2912 5.37061C65.5183 5.02714 64.6597 4.85541 63.801 4.85541C62.2554 4.85541 60.9674 5.37061 59.937 6.40102C59.3359 7.0021 58.9065 7.68904 58.7348 8.54771C58.5631 9.32052 58.4772 10.5227 58.4772 12.0683C58.4772 13.6139 58.5631 14.8161 58.7348 15.5889C58.9065 16.3617 59.3359 17.1345 59.8511 17.7356C60.8815 18.766 62.1695 19.2812 63.7151 19.2812C64.5738 19.2812 65.4325 19.1094 66.2053 18.766C67.7509 17.9932 68.6954 16.5334 68.9531 14.8161C68.9531 14.8161 68.9531 14.7302 68.8672 14.7302H66.2053C66.2053 14.7302 66.1194 14.7302 66.1194 14.8161C66.0335 15.1595 65.8618 15.503 65.6901 15.8465C65.2607 16.5334 64.4879 16.791 63.7151 16.791C62.513 16.791 61.5684 16.1041 61.3967 14.8161C61.3108 14.4726 61.3108 14.0432 61.3108 13.6998C61.3108 13.4422 61.3108 12.8411 61.3108 12.1542Z" fill="white" fill-opacity="0.7"/>
<path d="M32.8014 5.28574C32.8014 5.114 32.7156 5.02814 32.5438 5.02814H30.3113C30.1395 5.02814 30.0537 5.114 30.0537 5.28574V19.0246C30.0537 19.1963 30.1395 19.2822 30.3113 19.2822H32.6297C32.8014 19.2822 32.8873 19.1963 32.8873 19.0246V14.9888L34.6905 12.7562L38.4687 19.1963C38.4687 19.2822 38.5546 19.2822 38.6404 19.2822H41.3882C41.4741 19.2822 41.5599 19.1963 41.4741 19.1104L36.4937 10.6954L41.0447 5.28574C41.1306 5.19987 41.1306 5.02814 40.9589 5.02814H37.9535C37.9535 5.02814 37.8676 5.02814 37.8676 5.114L32.8873 11.1247V5.28574H32.8014Z" fill="white" fill-opacity="0.7"/>
<path d="M49.5456 16.9637C48.2576 16.9637 47.0555 15.7616 47.0555 14.3877V5.28574C47.0555 5.114 46.9696 5.02814 46.7979 5.02814H44.4794C44.3077 5.02814 44.2218 5.114 44.2218 5.28574V14.3018C44.2218 17.4789 46.5403 19.4539 49.4598 19.4539C52.3793 19.4539 54.6977 17.4789 54.6977 14.3018V5.28574C54.6977 5.114 54.6118 5.02814 54.4401 5.02814H52.1217C51.9499 5.02814 51.8641 5.114 51.8641 5.28574V14.3018C51.9499 15.7616 50.8336 16.9637 49.5456 16.9637Z" fill="white" fill-opacity="0.7"/>
<path fill-rule="evenodd" clip-rule="evenodd" d="M7.04114 12.1545L14.1682 19.2815L18.6333 14.8164C19.4061 14.1294 20.6941 14.1294 21.4669 14.9022C22.2397 15.6751 22.2397 16.8772 21.5528 17.7359L15.542 23.5749C14.7692 24.3477 13.4812 24.3477 12.7084 23.5749L4.12165 14.9881V20.1402C4.12165 21.2564 3.1771 22.201 2.06082 22.201C0.944544 22.201 0 21.2564 0 20.1402V4.25466C0 3.13838 0.944544 2.19383 2.06082 2.19383C3.1771 2.19383 4.12165 3.13838 4.12165 4.25466V9.32085L12.7084 0.734086C13.4812 -0.0387222 14.7692 -0.0387222 15.542 0.734086L21.4669 6.65895C22.1538 7.43176 22.1538 8.71977 21.381 9.49258C20.6082 10.2654 19.4061 10.2654 18.5474 9.57845L14.0823 5.11333L7.04114 12.1545ZM14.1682 10.1795C13.3095 10.1795 12.6225 10.6947 12.2791 11.4675C11.9356 12.2403 12.1073 13.099 12.7084 13.7001C13.3095 14.3012 14.1682 14.4729 14.941 14.1294C15.7138 13.786 16.229 13.099 16.229 12.2403C16.229 11.7251 16.0572 11.2099 15.6279 10.7806C15.1986 10.3513 14.6834 10.1795 14.1682 10.1795Z" fill="white" fill-opacity="0.7"/>
</svg>
