<svg width="170" height="22" viewBox="0 0 170 22" fill="none" xmlns="http://www.w3.org/2000/svg">
<g clip-path="url(#clip0_2_42747)">
<mask id="mask0_2_42747" style="mask-type:luminance" maskUnits="userSpaceOnUse" x="0" y="0" width="170" height="22">
<path d="M169.626 0.556702H0.0996704V21.7474H169.626V0.556702Z" fill="white"/>
</mask>
<g mask="url(#mask0_2_42747)">
<path d="M33.0642 15.0634L25.8193 2.49622C24.231 -0.123092 20.3577 -0.150958 18.8251 2.60767L11.2181 15.6764C9.79689 18.0728 11.5524 21.0821 14.3947 21.0821H29.6368C32.5069 21.0821 34.6525 17.9891 33.0642 15.0634Z" fill="white" fill-opacity="0.7"/>
<path d="M22.6146 16.0389L22.1688 15.2587C21.7508 14.5342 20.8313 12.9737 20.8313 12.9737L14.701 2.32935C13.1127 -0.039171 9.35093 -0.234227 7.76263 2.74733L0.629192 15.0915C-0.847652 17.6829 0.907841 21.0546 4.11232 21.0825H19.2708H25.7355H29.5809C25.652 21.1104 24.3981 19.0762 22.6146 16.0389Z" fill="white" fill-opacity="0.7"/>
<path d="M22.6149 16.0409L22.1691 15.2608C21.7511 14.5363 20.8315 12.9758 20.8315 12.9758L16.8747 6.00958L11.1902 15.7066C9.76919 18.103 11.5246 21.1124 14.3669 21.1124H19.2432H25.7079H29.5812C25.6244 21.0845 24.3982 19.0783 22.6149 16.0409Z" fill="url(#paint0_linear_2_42747)" fill-opacity="0.3"/>
<path d="M167.419 20.1056C166.388 20.1056 165.579 19.8827 164.967 19.4926C164.325 19.0747 163.991 18.4615 163.991 17.6256V5.4765H165.608C166.193 5.4765 166.694 5.95021 166.694 6.56323V17.2633C166.694 17.2913 166.694 17.7928 167.112 18.2108C167.362 18.4615 167.669 18.6009 168.087 18.6009H168.394C168.506 18.6009 168.617 18.7124 168.617 18.8238V20.1335L167.419 20.1056Z" fill="white" fill-opacity="0.7"/>
<path d="M132.587 20.1071C130.915 20.1071 129.55 19.6613 128.519 18.7696C127.99 18.3238 127.628 17.8222 127.405 17.2649C127.182 16.7076 127.07 15.8995 127.07 14.8128C127.07 13.754 127.182 12.9179 127.405 12.3606C127.6 11.8312 127.962 11.3575 128.492 10.9117C129.522 10.02 130.887 9.57416 132.559 9.57416C134.231 9.57416 135.597 10.02 136.628 10.9117C137.158 11.3575 137.52 11.8591 137.715 12.3606C137.938 12.9458 138.049 13.754 138.049 14.8128C138.049 15.8995 137.938 16.7076 137.715 17.2649C137.492 17.8222 137.129 18.3238 136.6 18.7696C135.625 19.6613 134.259 20.1071 132.587 20.1071ZM132.587 11.1067C130.748 11.1067 129.829 12.3606 129.829 14.8406C129.829 17.3485 130.748 18.6024 132.587 18.6024C134.426 18.6024 135.346 17.3485 135.346 14.8685C135.346 12.3606 134.399 11.1067 132.587 11.1067Z" fill="white" fill-opacity="0.7"/>
<path d="M144.123 20.1056C142.674 20.1056 141.337 19.7155 140.195 18.9632C140.083 18.8516 139.86 18.7124 139.581 18.5452C139.526 18.5173 139.47 18.4337 139.47 18.3501V5.4765H141.114C141.699 5.4765 142.201 5.97807 142.201 6.56323V10.325L142.702 10.0464C143.288 9.73985 144.068 9.60052 145.071 9.60052C146.826 9.60052 148.163 10.1299 149.055 11.1609C149.835 12.0805 150.226 13.3065 150.226 14.8113C150.226 16.316 149.78 17.5421 148.888 18.4337C147.857 19.5483 146.241 20.1056 144.123 20.1056ZM144.402 11.1052C143.789 11.1052 143.092 11.3281 142.312 11.8019L142.201 11.8576V17.9043L142.312 17.9879C142.925 18.378 143.65 18.573 144.402 18.573C145.405 18.573 146.186 18.1551 146.714 17.3192C147.16 16.6503 147.412 15.7866 147.412 14.8113C147.412 12.3591 146.38 11.1052 144.402 11.1052Z" fill="white" fill-opacity="0.7"/>
<path d="M156.663 20.0793C153.598 20.0793 151.675 18.073 151.675 14.8128C151.675 11.5805 153.569 9.57416 156.607 9.57416C157.777 9.57416 158.78 9.88068 159.588 10.4658L159.756 10.5773V9.76921H161.901C162.041 9.76921 162.124 9.88068 162.124 9.99213V19.8842H159.728V18.9925L159.56 19.1319C158.892 19.7449 157.833 20.0793 156.663 20.0793ZM157.22 11.3575C155.297 11.3575 154.155 12.8344 154.155 14.8128C154.155 16.7912 155.297 18.3238 157.22 18.3238C157.833 18.3238 158.892 18.2681 159.728 17.4321L159.756 17.4042V12.3328L159.728 12.3049C159.142 11.6362 158.279 11.3575 157.22 11.3575Z" fill="white" fill-opacity="0.7"/>
<path d="M57.6581 19.9688V5.45111H69.7237V6.37066C69.7237 7.09514 69.1385 7.68031 68.4141 7.68031H60.6675V11.5814H68.4141V13.8106H60.6675V17.7117H68.4141C69.1385 17.7117 69.7237 18.2968 69.7237 19.0213V19.9409L57.6581 19.9688Z" fill="white" fill-opacity="0.7"/>
<path d="M87.0556 5.45111H84.2133C83.6838 5.45111 83.2102 5.67403 82.8758 6.092L79.4484 10.4111L76.021 6.11987C75.6867 5.7019 75.2129 5.47897 74.6835 5.47897H71.8412L77.6093 12.7239L71.8412 19.9688H74.6835C75.2129 19.9688 75.6867 19.7459 76.021 19.3279L79.4484 15.0367L82.9036 19.3558C83.238 19.7459 83.7118 19.9966 84.2412 19.9966H87.0834L81.3153 12.7517L87.0556 5.45111Z" fill="white" fill-opacity="0.7"/>
<path d="M48.2123 18.4367L52.1691 11.5262V19.9414H55.1786V5.42377H53.3116C52.7265 5.42377 52.1691 5.73028 51.8905 6.25971L47.1535 14.8978L42.4165 6.25971C42.1377 5.73028 41.5804 5.42377 40.9953 5.42377H39.1284V19.9414H42.1377V11.5262L46.0946 18.4367H48.2123Z" fill="white" fill-opacity="0.7"/>
<path d="M94.9137 20.1357C90.7339 20.1914 87.3344 16.9033 87.3066 12.7236C87.3066 10.4387 88.0032 8.54387 89.3128 7.23422C90.6225 5.95243 92.5173 5.2558 94.7744 5.2558C97.4215 5.2558 99.5114 6.17535 101.016 7.95871L100.069 8.76679C99.4836 9.26836 98.6197 9.29623 97.9788 8.82252C97.1429 8.18162 96.084 7.87511 94.8858 7.87511C91.9321 7.87511 90.1766 9.65847 90.1766 12.6679C90.1766 15.7052 91.9878 17.5722 94.8858 17.5722C96.1118 17.5722 97.1429 17.2378 97.9788 16.6247C98.5919 16.151 99.4556 16.1789 100.069 16.6804L101.016 17.4885C99.5114 19.244 97.5052 20.1357 94.9137 20.1357Z" fill="white" fill-opacity="0.7"/>
<path d="M113.444 20.1366C108.763 20.1366 105.865 17.2944 105.865 12.7245C105.865 8.15466 108.763 5.31244 113.388 5.31244C115.617 5.31244 117.484 5.95333 118.933 7.26299L118.237 8.04321C117.93 8.37759 117.484 8.57265 117.038 8.57265C116.788 8.57265 116.537 8.51691 116.314 8.40545C115.45 7.95961 114.447 7.73669 113.388 7.73669C110.378 7.73669 108.511 9.65938 108.511 12.7524C108.511 15.8732 110.462 17.7959 113.583 17.7959C115.088 17.7959 116.258 17.5173 117.122 16.9043L117.177 16.8765V13.8948H113.862V12.9195C113.862 12.1951 114.447 11.6099 115.171 11.6099H119.267C119.379 11.6099 119.49 11.7213 119.49 11.8329V18.2697C118.069 19.4957 116.035 20.1366 113.444 20.1366Z" fill="white" fill-opacity="0.7"/>
<path d="M124.869 20.1056C123.838 20.1056 123.03 19.8827 122.417 19.4926C121.776 19.0747 121.441 18.4615 121.441 17.6256V5.4765H123.058C123.643 5.4765 124.145 5.95021 124.145 6.56323V17.2633C124.145 17.2913 124.145 17.7928 124.562 18.2108C124.814 18.4615 125.119 18.6009 125.537 18.6009H125.844C125.956 18.6009 126.067 18.7124 126.067 18.8238V20.1335L124.869 20.1056Z" fill="white" fill-opacity="0.7"/>
</g>
</g>
<defs>
<linearGradient id="paint0_linear_2_42747" x1="9.16718" y1="11.3006" x2="26.7773" y2="17.8082" gradientUnits="userSpaceOnUse">
<stop stop-color="white" stop-opacity="0"/>
<stop offset="1" stop-color="white"/>
</linearGradient>
<clipPath id="clip0_2_42747">
<rect width="169.526" height="21.1907" fill="white" transform="translate(0.098877 0.559082)"/>
</clipPath>
</defs>
</svg>
