<svg width="115" height="25" viewBox="0 0 115 25" fill="none" xmlns="http://www.w3.org/2000/svg">
<path d="M10.0805 11.6411C10.5967 12.5444 9.43533 12.8024 8.91916 12.867C8.1449 12.9315 7.95134 12.4798 8.08038 11.8992C8.1449 11.7056 8.27394 11.5121 8.40299 11.383C8.53203 11.254 8.79012 11.1249 8.98368 11.1249C9.17724 11.1249 9.43533 11.1249 9.56437 11.254C9.82246 11.3185 9.9515 11.4475 10.0805 11.6411Z" fill="white" fill-opacity="0.7"/>
<path d="M13.1783 10.0269C12.5976 14.5432 20.4692 13.5754 20.3401 17.1239C21.1144 16.0916 21.437 13.3818 19.1788 11.9624C17.1141 10.672 14.4687 11.3818 13.1783 10.0269Z" fill="white" fill-opacity="0.7"/>
<path d="M17.7574 8.28358C17.6929 8.21906 17.6284 8.21906 17.6284 8.15454C17.6284 8.21906 17.6929 8.28358 17.7574 8.28358Z" fill="white" fill-opacity="0.7"/>
<path d="M19.5627 11.576C19.4981 11.447 19.4336 11.318 19.3046 11.1889C19.0465 10.8018 18.6594 10.5437 18.2077 10.4792C17.9496 10.4147 17.627 10.3502 17.3044 10.3502C16.9818 10.3502 16.7237 10.2857 16.4011 10.2857C15.7559 10.2211 15.1752 10.1566 14.53 10.0276C14.401 9.96306 14.2074 9.96306 14.0783 9.89854C14.0138 9.89854 13.9493 9.83402 13.8203 9.83402C13.7557 9.7695 13.6912 9.7695 13.5622 9.70498C13.2396 9.57595 12.9815 9.31787 12.7879 9.12431C12.3363 8.67268 11.9491 8.15653 11.562 7.7049C11.1749 7.18874 10.8523 6.73711 10.4006 6.28548C10.0135 5.83384 9.49732 5.44673 8.98115 5.18865C8.46498 4.93058 7.81977 4.73702 7.23907 4.6725C7.88429 4.60798 8.5295 4.6725 9.11019 4.93058C9.69089 5.18865 10.2716 5.51125 10.7232 5.96288C11.0458 6.22096 11.3039 6.54355 11.562 6.86615C13.5622 6.47903 15.1107 6.80163 16.3366 7.51134C16.7237 7.7049 17.1108 7.96297 17.4335 8.28556C17.498 8.35008 17.5625 8.35008 17.5625 8.4146C17.8206 8.67268 18.0787 8.93076 18.2722 9.18883C19.1755 10.0276 19.5627 10.9954 19.5627 11.576Z" fill="white" fill-opacity="0.7"/>
<path d="M7.43635 5.18622C7.95252 5.25074 8.46869 5.44429 8.7913 5.83141C9.1139 6.21852 9.24295 6.73468 9.37199 7.18631C9.43651 7.57342 9.50103 7.96053 9.63007 8.28313C9.6946 8.47669 9.82364 8.60573 9.88816 8.73476C9.95268 8.8638 10.0817 8.99284 10.1462 9.12188V9.1864V9.25091C9.95268 9.44447 9.50103 9.25092 9.30747 9.12188C8.98486 8.99284 8.72677 8.73476 8.46869 8.47669C7.75895 7.70246 7.37183 6.54112 7.37183 5.50881C7.37183 5.44429 7.43635 5.31526 7.43635 5.18622Z" fill="white" fill-opacity="0.7"/>
<path d="M15.8215 14.22C14.7247 17.2524 19.6928 19.317 17.8217 22.4139C19.6928 21.6397 20.5961 19.2525 19.8219 17.3814C19.1767 15.7039 17.112 15.0587 15.8215 14.22Z" fill="white" fill-opacity="0.7"/>
<path d="M9.30249 18.1554C9.6251 17.9619 9.9477 17.7683 10.2703 17.5748C10.5929 17.4457 10.98 17.3167 11.3672 17.2522C12.0769 17.1231 12.8512 17.0586 13.4319 16.8005C13.7545 16.6715 14.0126 16.5425 14.2706 16.2844C14.5287 16.0908 14.6578 15.8328 14.7868 15.5102C14.9159 15.1876 14.9159 14.865 14.9159 14.5424C14.9159 14.1553 14.7868 13.8327 14.6578 13.5101C14.9159 13.7681 15.1094 14.1553 15.2385 14.5424C15.3675 14.9295 15.3675 15.3166 15.303 15.7037C15.2385 16.0908 14.9804 16.4779 14.7223 16.8005C14.4642 17.0586 14.0771 17.3167 13.6899 17.4457C13.3028 17.5748 12.9157 17.6393 12.5286 17.7038C12.1414 17.7038 11.8188 17.7683 11.4317 17.7683C10.722 17.7683 10.0122 17.8974 9.30249 18.1554Z" fill="white" fill-opacity="0.7"/>
<path d="M16.2749 23.5093C16.1459 23.5738 16.0814 23.7028 15.9523 23.7673C15.8233 23.8319 15.6942 23.8964 15.5652 23.9609C15.3071 24.0899 14.9845 24.1545 14.6619 24.1545C13.8231 24.1545 13.2424 23.5093 12.9198 22.7996C12.6617 22.3479 12.5327 21.8318 12.2746 21.3801C11.8875 20.735 11.1777 20.2188 10.4035 20.2833C10.0809 20.3478 9.75828 20.4769 9.62924 20.735C9.17759 21.4447 9.8228 22.477 10.7261 22.3479C10.7906 22.3479 10.8551 22.3479 10.9197 22.2834C10.9842 22.2834 11.0487 22.2189 11.1132 22.1544C11.2423 22.0253 11.3068 21.8963 11.3713 21.7673C11.4358 21.6382 11.4358 21.4447 11.4358 21.2511C11.3713 21.0575 11.3068 20.9285 11.1777 20.864C11.3713 20.9285 11.5004 21.0575 11.5649 21.2511C11.5004 21.5737 11.5004 21.7673 11.5004 21.9608C11.4358 22.1544 11.3713 22.3479 11.2423 22.477C11.1777 22.5415 11.1132 22.606 10.9842 22.6705C10.9197 22.735 10.7906 22.7996 10.7261 22.7996C10.5325 22.8641 10.339 22.8641 10.1454 22.8641C9.88732 22.7996 9.56471 22.735 9.37115 22.5415C9.11306 22.3479 8.9195 22.0253 8.66141 21.8318C8.40333 21.5092 8.08072 21.3156 7.69359 21.1221C7.43551 20.993 7.17742 20.9285 6.91934 20.864C6.79029 20.864 6.66125 20.7995 6.53221 20.7995C6.46769 20.7995 6.14508 20.735 6.14508 20.735C6.59673 20.3478 7.04838 20.0252 7.50003 19.7027C8.0162 19.3801 8.53237 19.1865 9.11306 18.9929C9.69376 18.7994 10.2744 18.7994 10.9197 18.8639C11.2423 18.9284 11.5004 18.9929 11.823 19.122C12.1456 19.251 12.4037 19.4446 12.6617 19.6381C12.9198 19.8962 13.1134 20.1543 13.2424 20.4124C13.3715 20.6704 13.436 20.993 13.5005 21.3156C13.6941 22.2189 13.6296 23.6383 14.7909 23.8319C14.8555 23.8319 14.92 23.8319 14.9845 23.8319H15.1781C15.3071 23.8319 15.4362 23.8319 15.5652 23.7673C15.7588 23.7673 16.0169 23.6383 16.2749 23.5093Z" fill="white" fill-opacity="0.7"/>
<path d="M8.33756 9.76781C8.27304 9.96137 8.20852 10.0904 8.144 10.2194C7.95043 10.4775 7.69235 10.6711 7.43426 10.8001C7.17618 10.9292 6.91809 10.9937 6.59548 10.9937C6.53096 10.9937 6.46644 10.9937 6.40192 10.9937C6.20835 10.9937 6.07931 11.0582 5.88575 11.1872C5.7567 11.3163 5.62766 11.4453 5.62766 11.6389C5.62766 11.7034 5.56314 11.8324 5.56314 11.8969C5.56314 12.155 5.49862 12.3486 5.49862 12.6712C5.4341 13.1873 5.30505 13.639 5.11149 14.0906C4.8534 14.6713 4.5308 15.1874 4.59532 15.8326C4.65984 16.2842 4.8534 16.6068 5.17601 16.8649C5.69218 17.4456 6.91809 17.7036 6.66 19.0585C6.46644 19.8973 5.11149 20.736 3.24037 21.0586C3.43393 21.0586 2.98228 20.2844 2.98228 20.2199C2.78872 19.8973 2.53063 19.5747 2.40159 19.2521C2.07898 18.6069 1.94994 17.7682 2.07898 17.0585C2.20803 16.2842 2.78872 15.7036 3.24037 15.0584C3.82106 14.3487 4.40176 13.4454 4.5308 12.4776C4.5308 12.2841 4.59532 11.9615 4.65984 11.7034C4.72436 11.3808 4.78888 11.1227 4.91793 10.8001C4.98245 10.6066 5.11149 10.4775 5.30505 10.284C5.36958 10.2194 5.4341 10.0904 5.4341 10.0259C5.4341 9.89685 5.4341 9.83233 5.36958 9.70329L2.33707 4.21918L6.72452 9.63877C6.78905 9.70329 6.85357 9.76781 6.91809 9.76781C6.98261 9.83233 7.04713 9.83233 7.17617 9.83233C7.2407 9.83233 7.30522 9.83233 7.43426 9.76781C7.49878 9.70329 7.5633 9.70329 7.62782 9.63877C7.69235 9.57425 7.69235 9.50973 7.69235 9.3807C7.69235 9.31618 7.69235 9.18714 7.62782 9.12262C7.36974 8.73551 7.04713 8.41291 6.72452 8.0258L5.62766 6.6709L3.43393 3.9611L0.401428 0.15448L3.69202 3.70302L6.01479 6.28378L7.17617 7.57416C7.5633 8.0258 7.95043 8.41291 8.33756 8.92906L8.40208 8.99358V9.12262C8.40208 9.3807 8.40208 9.57425 8.33756 9.76781Z" fill="white" fill-opacity="0.7"/>
<path d="M9.36829 22.4789C9.17473 22.2854 8.98116 22.0918 8.7876 21.8983C8.98116 22.1563 9.11021 22.3499 9.36829 22.4789Z" fill="white" fill-opacity="0.7"/>
<path fill-rule="evenodd" clip-rule="evenodd" d="M66.2135 7.89739C64.0843 8.41354 63.1165 10.091 63.6972 12.0911C63.9553 12.9299 64.7295 13.8331 65.8909 14.4783C67.8911 15.6397 68.5363 16.0913 68.8589 16.801C69.117 17.3817 69.1815 17.5752 69.0525 18.1559C68.7299 19.4463 67.8266 20.0915 66.5361 20.0915C65.2457 20.0915 64.3424 19.3818 64.0843 18.1559C64.0198 17.6398 63.8908 17.5107 63.6972 17.5107C63.4391 17.5107 63.3746 17.6398 63.3746 18.8656V20.2205L64.2134 20.4786C65.5683 20.9302 67.4394 20.8657 68.5363 20.3496C70.73 19.3173 71.5688 17.3172 70.601 15.4461C70.2138 14.7364 69.3105 13.9622 67.762 12.9944C66.0845 11.9621 65.3747 11.2524 65.2457 10.5427C65.0521 9.38132 66.0845 8.47806 67.5039 8.47806C68.6008 8.47806 69.0525 8.73613 69.4396 9.57488C69.6977 10.091 69.8267 10.2846 70.1493 10.2846C70.4719 10.2846 70.5365 10.2201 70.4074 9.89748C70.3429 9.70392 70.2784 9.18777 70.2784 8.80065C70.2784 8.2845 70.2138 8.02642 70.0203 7.9619C69.5686 7.76835 66.7942 7.70383 66.2135 7.89739ZM23.6294 8.34902C23.6294 8.6071 23.7584 8.67162 24.0165 8.67162C24.7908 8.67162 24.8553 8.86517 24.9198 13.5751C24.9843 17.6398 25.0489 17.9624 25.3715 18.6075C25.8231 19.4463 26.4683 20.027 27.4362 20.4786C28.0814 20.8012 28.533 20.8657 29.888 20.8657C31.3074 20.8657 31.63 20.8012 32.4043 20.4141C32.9205 20.156 33.5657 19.7044 33.8238 19.3818C34.7271 18.2849 34.8561 17.7043 34.9206 13.1879C35.0497 8.80065 35.0497 8.73613 35.7594 8.73613C35.953 8.73613 36.0175 8.6071 36.0175 8.41354C36.0175 8.09094 35.8885 8.09094 34.0819 8.09094C32.2753 8.09094 32.1462 8.09094 32.1462 8.41354C32.1462 8.67161 32.2753 8.73614 32.6624 8.80065C33.5012 8.86517 33.5657 9.18777 33.5657 13.1879C33.5657 17.2526 33.4366 18.0269 32.5333 18.8656C31.7591 19.6398 31.1139 19.8979 30.017 19.8979C28.4685 19.8979 27.3071 19.1882 26.9845 17.8978C26.8555 17.4462 26.7909 15.8977 26.8555 13.1234L26.92 8.99421L27.5007 8.80065C27.8233 8.67162 28.0814 8.47806 28.1459 8.34902C28.2104 8.09094 27.9523 8.09094 25.9522 8.09094C23.7584 8.02642 23.6294 8.02643 23.6294 8.34902ZM38.6629 8.34902C38.6629 8.6071 38.7919 8.67162 39.1145 8.67162C39.9533 8.67162 40.405 8.99421 40.5985 9.70392C40.7276 10.091 40.7276 11.9621 40.7276 14.6074C40.663 19.3818 40.5985 19.7044 39.6307 19.8979C39.3081 19.9624 39.1791 20.0915 39.1791 20.285C39.1791 20.5431 39.3081 20.6076 41.4373 20.6076C43.502 20.6076 43.6956 20.6076 43.6956 20.3496C43.6956 20.156 43.502 20.027 42.9858 19.8979C42.3406 19.7044 42.2761 19.6398 42.0825 19.1237C41.8244 18.3495 41.8244 11.0588 42.018 11.1233C42.0825 11.1233 42.7277 11.7685 43.4375 12.6073C44.1472 13.446 46.0183 15.5751 47.6959 17.3172C50.2767 20.0915 50.7284 20.6076 51.1155 20.6076H51.5672L51.6317 14.93C51.6962 10.8653 51.7607 9.18777 51.8898 9.05873C52.0188 8.92969 52.3414 8.80065 52.5995 8.73613C52.9221 8.67161 53.1157 8.54258 53.1157 8.41354C53.1157 8.21998 52.7285 8.15546 50.9219 8.15546C48.7927 8.09094 48.7282 8.09094 48.7282 8.41354C48.7282 8.67161 48.8573 8.73613 49.1154 8.73613C49.3089 8.73613 49.696 8.92969 49.9541 9.12325L50.4058 9.51036L50.4703 13.3815C50.4703 15.5751 50.4703 17.2526 50.4058 17.2526C50.3413 17.2526 49.8251 16.7365 49.3089 16.1558C48.7927 15.5752 47.3088 13.8977 46.0183 12.4782C44.7279 11.0588 43.3084 9.51036 42.8568 8.99421L42.0825 8.09094H40.405C38.7274 8.02642 38.6629 8.02643 38.6629 8.34902ZM55.5675 8.34902C55.5675 8.6071 55.6965 8.67162 56.0191 8.67162C56.2772 8.67162 56.5998 8.80065 56.7934 8.92969C57.116 9.12325 57.116 9.44584 57.1805 13.8977C57.245 19.4463 57.1805 19.7689 56.2127 19.8979C55.7611 19.9624 55.5675 20.0915 55.5675 20.285C55.5675 20.5431 55.7611 20.6076 58.0193 20.6076C60.3421 20.6076 60.4711 20.6076 60.4711 20.285C60.4711 20.027 60.3421 19.9624 60.084 19.9624C59.8904 19.9624 59.5678 19.8334 59.3742 19.7044C59.0516 19.5108 59.0516 19.1882 58.9871 14.4138C58.9226 9.51036 58.9226 9.31681 59.2452 8.99421C59.4388 8.80065 59.7614 8.67162 59.9549 8.67162C60.2775 8.67162 60.3421 8.6071 60.3421 8.34902C60.3421 8.02643 60.213 8.02643 57.8903 8.02643C55.6965 8.02643 55.5675 8.02643 55.5675 8.34902ZM72.5366 8.34902C72.6011 8.54258 72.7302 8.67162 72.9883 8.67162C73.1818 8.67162 73.5044 8.86517 73.698 9.05873C73.8916 9.25229 74.9884 11.8976 76.2143 15.059L78.3435 20.6722L78.9242 20.7367L79.5049 20.8012L80.9889 16.801C81.8277 14.6074 82.602 12.6073 82.6665 12.4137C82.86 12.0266 82.86 12.0911 83.3762 13.3815C83.6343 14.1557 84.4086 16.0913 85.0538 17.7688L86.2152 20.8012H86.7313C86.9894 20.8012 87.2475 20.7367 87.312 20.6076C87.3765 20.4786 88.0863 18.6075 88.9896 16.4139C89.8284 14.2202 90.7962 11.7685 91.1188 10.9943C91.8285 9.18777 91.9576 8.99421 92.4737 8.80065C92.7318 8.73614 92.9254 8.54258 92.9254 8.41354C92.9254 8.21998 92.6028 8.15546 90.9897 8.15546C89.1831 8.15546 89.0541 8.15546 89.0541 8.47806C89.0541 8.73614 89.1831 8.80065 89.4412 8.80065C90.0864 8.80065 90.3445 8.99421 90.3445 9.38132C90.3445 9.70392 87.2475 18.0269 87.0539 18.2204C86.9249 18.3495 84.1505 10.6072 84.0859 9.83296C83.9569 9.12325 84.2795 8.80065 84.9892 8.80065C85.2473 8.80065 85.3764 8.73614 85.3764 8.47806C85.3764 8.15546 85.2473 8.15546 82.86 8.15546C80.4728 8.15546 80.3437 8.15546 80.3437 8.47806C80.3437 8.67162 80.4728 8.80065 80.6018 8.80065C81.118 8.80065 81.7632 9.31681 81.9567 9.76844C82.2148 10.4781 82.0213 11.1879 80.5373 15.059L79.3114 18.3495L79.0533 17.7043C78.9242 17.3817 78.15 15.3171 77.3757 13.1879C75.8272 8.99421 75.8272 8.80065 76.8596 8.80065C77.2467 8.80065 77.3112 8.73614 77.3112 8.47806C77.3112 8.15546 77.1822 8.15546 74.9239 8.15546C72.4721 8.02643 72.4076 8.02643 72.5366 8.34902ZM105.184 8.47806C105.184 8.47806 105.184 8.67161 105.184 8.73613C105.184 8.80065 105.378 8.80065 105.378 8.80065C105.507 8.80065 105.572 8.86517 105.701 8.86517C106.217 8.99421 106.539 9.05873 106.668 9.38132C106.733 9.57488 106.797 10.3491 106.797 14.4138C106.797 18.6721 106.797 19.1882 106.668 19.4463C106.539 19.7689 106.281 19.9624 105.636 20.156C105.636 20.156 105.378 20.2205 105.313 20.285C105.249 20.3496 105.249 20.4786 105.249 20.4786C105.249 20.4786 105.249 20.6076 105.313 20.6722C105.378 20.7367 105.572 20.7367 105.572 20.7367H107.185H109.895C109.895 20.7367 110.024 20.7367 110.088 20.6722C110.153 20.6076 110.153 20.4786 110.153 20.4786C110.153 20.4786 110.153 20.3496 110.088 20.285C110.024 20.2205 109.765 20.156 109.765 20.156C109.185 20.027 108.862 19.8334 108.733 19.5108C108.604 19.2527 108.604 18.6721 108.604 17.3172V15.3816C108.669 15.4461 108.733 15.4461 108.798 15.5106C109.12 15.7042 109.507 16.0268 110.927 16.0268C112.669 16.0913 113.701 15.3171 114.346 14.4138C114.992 13.5105 115.185 12.0911 114.734 10.5427C114.282 9.05873 112.927 8.09094 111.056 8.02643C110.088 7.96191 108.604 8.02642 107.83 8.09094H107.636C106.927 8.09094 106.023 8.21998 105.572 8.21998C105.443 8.21998 105.443 8.21998 105.378 8.2845C105.184 8.41354 105.184 8.47806 105.184 8.47806ZM112.346 14.4138C113.056 13.7686 113.056 12.7363 113.056 12.0266C112.992 10.9943 112.54 8.99421 110.217 8.99421C109.636 8.99421 108.54 9.05873 108.475 9.83296C108.411 9.962 108.411 10.9298 108.411 12.3492V14.6719L108.669 14.8009C108.798 14.8654 108.991 14.93 109.249 14.9945C110.217 15.2526 111.637 15.059 112.346 14.4138ZM97.5064 8.21998C97.7 8.15546 97.829 8.09094 97.829 8.09094C97.829 8.09094 98.0871 7.96191 98.1516 8.09094C98.1516 8.15546 98.2806 8.34902 98.5387 8.99421C98.6033 9.12325 98.6678 9.25229 98.6678 9.38132C98.9904 10.2846 99.5066 11.575 99.7646 12.2847C100.023 12.9944 100.539 14.2848 100.926 15.3171C101.313 16.2849 101.765 17.5107 102.023 18.0914C102.216 18.6721 102.539 19.1882 102.604 19.3172C102.668 19.3818 102.668 19.4463 102.733 19.5108C102.926 19.7689 103.12 20.156 103.571 20.2205C103.571 20.2205 103.894 20.285 103.959 20.3496C104.023 20.4141 104.023 20.4786 104.023 20.4786V20.6722C104.023 20.6722 104.023 20.7367 103.959 20.7367C103.959 20.8012 103.829 20.7367 103.829 20.7367H101.12H99.184C99.184 20.7367 99.1194 20.7367 99.0549 20.7367C98.9904 20.7367 98.9904 20.6076 98.9904 20.6076V20.4786C98.9904 20.4786 98.9904 20.3496 99.0549 20.285C99.1194 20.2205 99.442 20.156 99.442 20.156C100.023 20.0915 100.281 19.6398 100.345 19.3818V19.3172C100.474 19.0592 100.41 18.8656 99.8292 17.5107C99.442 16.6075 99.313 16.3494 99.2485 16.2849C99.184 16.2849 98.1516 16.2849 97.0547 16.2849H94.9255L94.7965 16.6075C94.4094 17.6398 94.0868 18.6075 94.0868 18.8656C93.9577 19.3818 94.1513 20.027 94.9255 20.156C94.9255 20.156 95.2481 20.2205 95.3127 20.285C95.3772 20.3496 95.4417 20.4786 95.4417 20.4786V20.6076C95.4417 20.6076 95.4417 20.6722 95.3772 20.7367C95.3127 20.8012 95.1836 20.7367 95.1836 20.7367H93.1835H91.2478C91.2478 20.7367 91.1833 20.7367 91.1188 20.6722C91.0543 20.6076 91.0543 20.5431 91.0543 20.5431V20.4141C91.0543 20.4141 91.0543 20.3496 91.1833 20.2205C91.3123 20.0915 91.5704 20.0915 91.5704 20.0915C92.0866 20.027 92.4092 19.4463 92.6028 19.1237C92.6028 19.1237 92.6028 19.0592 92.6673 19.0592C92.7318 18.9301 93.0544 18.2204 93.377 17.4462C93.6996 16.672 94.0222 15.7687 94.1513 15.5106C94.5384 14.5428 94.9255 13.6396 95.5062 12.2202C95.8288 11.4459 96.2805 10.2846 96.5386 9.6394L96.9902 8.47806L97.5064 8.21998ZM97.3774 10.9943C97.5064 11.2524 97.6354 11.6395 97.7 11.833C97.7645 12.0266 98.0226 12.6073 98.2161 13.1234C98.4097 13.6396 98.6678 14.2202 98.7968 14.4783C98.9259 14.7364 98.9904 14.93 98.9904 14.93C98.9904 14.93 98.2161 14.93 97.2483 14.93C96.1514 14.93 95.5062 14.93 95.5062 14.8654C95.5062 14.8654 95.5708 14.7364 95.5708 14.6074C95.6353 14.4138 96.0224 13.3815 96.7967 11.1879C96.9257 10.8653 97.0547 10.5427 97.0547 10.4781C97.1193 10.4781 97.1838 10.5427 97.3774 10.9943Z" fill="white" fill-opacity="0.7"/>
</svg>
